G04 #@! TF.GenerationSoftware,KiCad,Pcbnew,5.0.1*
G04 #@! TF.CreationDate,2019-01-20T00:11:33+01:00*
G04 #@! TF.ProjectId,Powerstage,506F77657273746167652E6B69636164,rev?*
G04 #@! TF.SameCoordinates,Original*
G04 #@! TF.FileFunction,Copper,L1,Top,Signal*
G04 #@! TF.FilePolarity,Positive*
%FSLAX46Y46*%
G04 Gerber Fmt 4.6, Leading zero omitted, Abs format (unit mm)*
G04 Created by KiCad (PCBNEW 5.0.1) date So 20 Jan 2019 00:11:33 CET*
%MOMM*%
%LPD*%
G01*
G04 APERTURE LIST*
G04 #@! TA.AperFunction,ComponentPad*
%ADD10R,2.000000X1.905000*%
G04 #@! TD*
G04 #@! TA.AperFunction,ComponentPad*
%ADD11O,2.000000X1.905000*%
G04 #@! TD*
G04 #@! TA.AperFunction,ComponentPad*
%ADD12R,1.600000X1.600000*%
G04 #@! TD*
G04 #@! TA.AperFunction,ComponentPad*
%ADD13O,1.600000X1.600000*%
G04 #@! TD*
G04 #@! TA.AperFunction,Conductor*
%ADD14C,0.100000*%
G04 #@! TD*
G04 #@! TA.AperFunction,SMDPad,CuDef*
%ADD15C,0.875000*%
G04 #@! TD*
G04 #@! TA.AperFunction,ComponentPad*
%ADD16O,1.700000X1.700000*%
G04 #@! TD*
G04 #@! TA.AperFunction,ComponentPad*
%ADD17R,1.700000X1.700000*%
G04 #@! TD*
G04 #@! TA.AperFunction,SMDPad,CuDef*
%ADD18R,0.800000X0.900000*%
G04 #@! TD*
G04 #@! TA.AperFunction,SMDPad,CuDef*
%ADD19R,0.900000X0.800000*%
G04 #@! TD*
G04 #@! TA.AperFunction,SMDPad,CuDef*
%ADD20C,1.425000*%
G04 #@! TD*
G04 #@! TA.AperFunction,ViaPad*
%ADD21C,0.800000*%
G04 #@! TD*
G04 #@! TA.AperFunction,Conductor*
%ADD22C,0.250000*%
G04 #@! TD*
G04 APERTURE END LIST*
D10*
G04 #@! TO.P,U1,1*
G04 #@! TO.N,Net-(C1-Pad2)*
X110490000Y-104140000D03*
D11*
G04 #@! TO.P,U1,2*
G04 #@! TO.N,GND*
X110490000Y-106680000D03*
G04 #@! TO.P,U1,3*
G04 #@! TO.N,VCC*
X110490000Y-109220000D03*
G04 #@! TD*
D12*
G04 #@! TO.P,U2,1*
G04 #@! TO.N,B1*
X115570000Y-106680000D03*
D13*
G04 #@! TO.P,U2,9*
G04 #@! TO.N,Net-(U2-Pad9)*
X133350000Y-99060000D03*
G04 #@! TO.P,U2,2*
G04 #@! TO.N,C1*
X118110000Y-106680000D03*
G04 #@! TO.P,U2,10*
G04 #@! TO.N,Net-(J1-Pad6)*
X130810000Y-99060000D03*
G04 #@! TO.P,U2,3*
G04 #@! TO.N,D1*
X120650000Y-106680000D03*
G04 #@! TO.P,U2,11*
G04 #@! TO.N,Net-(J1-Pad7)*
X128270000Y-99060000D03*
G04 #@! TO.P,U2,4*
G04 #@! TO.N,E1*
X123190000Y-106680000D03*
G04 #@! TO.P,U2,12*
G04 #@! TO.N,Net-(J1-Pad5)*
X125730000Y-99060000D03*
G04 #@! TO.P,U2,5*
G04 #@! TO.N,F1*
X125730000Y-106680000D03*
G04 #@! TO.P,U2,13*
G04 #@! TO.N,Net-(J1-Pad4)*
X123190000Y-99060000D03*
G04 #@! TO.P,U2,6*
G04 #@! TO.N,G1*
X128270000Y-106680000D03*
G04 #@! TO.P,U2,14*
G04 #@! TO.N,Net-(J1-Pad3)*
X120650000Y-99060000D03*
G04 #@! TO.P,U2,7*
G04 #@! TO.N,H1*
X130810000Y-106680000D03*
G04 #@! TO.P,U2,15*
G04 #@! TO.N,A1*
X118110000Y-99060000D03*
G04 #@! TO.P,U2,8*
G04 #@! TO.N,GND*
X133350000Y-106680000D03*
G04 #@! TO.P,U2,16*
G04 #@! TO.N,VCC*
X115570000Y-99060000D03*
G04 #@! TD*
D14*
G04 #@! TO.N,Net-(C1-Pad2)*
G04 #@! TO.C,C1*
G36*
X121195191Y-110016053D02*
X121216426Y-110019203D01*
X121237250Y-110024419D01*
X121257462Y-110031651D01*
X121276868Y-110040830D01*
X121295281Y-110051866D01*
X121312524Y-110064654D01*
X121328430Y-110079070D01*
X121342846Y-110094976D01*
X121355634Y-110112219D01*
X121366670Y-110130632D01*
X121375849Y-110150038D01*
X121383081Y-110170250D01*
X121388297Y-110191074D01*
X121391447Y-110212309D01*
X121392500Y-110233750D01*
X121392500Y-110746250D01*
X121391447Y-110767691D01*
X121388297Y-110788926D01*
X121383081Y-110809750D01*
X121375849Y-110829962D01*
X121366670Y-110849368D01*
X121355634Y-110867781D01*
X121342846Y-110885024D01*
X121328430Y-110900930D01*
X121312524Y-110915346D01*
X121295281Y-110928134D01*
X121276868Y-110939170D01*
X121257462Y-110948349D01*
X121237250Y-110955581D01*
X121216426Y-110960797D01*
X121195191Y-110963947D01*
X121173750Y-110965000D01*
X120736250Y-110965000D01*
X120714809Y-110963947D01*
X120693574Y-110960797D01*
X120672750Y-110955581D01*
X120652538Y-110948349D01*
X120633132Y-110939170D01*
X120614719Y-110928134D01*
X120597476Y-110915346D01*
X120581570Y-110900930D01*
X120567154Y-110885024D01*
X120554366Y-110867781D01*
X120543330Y-110849368D01*
X120534151Y-110829962D01*
X120526919Y-110809750D01*
X120521703Y-110788926D01*
X120518553Y-110767691D01*
X120517500Y-110746250D01*
X120517500Y-110233750D01*
X120518553Y-110212309D01*
X120521703Y-110191074D01*
X120526919Y-110170250D01*
X120534151Y-110150038D01*
X120543330Y-110130632D01*
X120554366Y-110112219D01*
X120567154Y-110094976D01*
X120581570Y-110079070D01*
X120597476Y-110064654D01*
X120614719Y-110051866D01*
X120633132Y-110040830D01*
X120652538Y-110031651D01*
X120672750Y-110024419D01*
X120693574Y-110019203D01*
X120714809Y-110016053D01*
X120736250Y-110015000D01*
X121173750Y-110015000D01*
X121195191Y-110016053D01*
X121195191Y-110016053D01*
G37*
D15*
G04 #@! TD*
G04 #@! TO.P,C1,2*
G04 #@! TO.N,Net-(C1-Pad2)*
X120955000Y-110490000D03*
D14*
G04 #@! TO.N,GND*
G04 #@! TO.C,C1*
G36*
X119620191Y-110016053D02*
X119641426Y-110019203D01*
X119662250Y-110024419D01*
X119682462Y-110031651D01*
X119701868Y-110040830D01*
X119720281Y-110051866D01*
X119737524Y-110064654D01*
X119753430Y-110079070D01*
X119767846Y-110094976D01*
X119780634Y-110112219D01*
X119791670Y-110130632D01*
X119800849Y-110150038D01*
X119808081Y-110170250D01*
X119813297Y-110191074D01*
X119816447Y-110212309D01*
X119817500Y-110233750D01*
X119817500Y-110746250D01*
X119816447Y-110767691D01*
X119813297Y-110788926D01*
X119808081Y-110809750D01*
X119800849Y-110829962D01*
X119791670Y-110849368D01*
X119780634Y-110867781D01*
X119767846Y-110885024D01*
X119753430Y-110900930D01*
X119737524Y-110915346D01*
X119720281Y-110928134D01*
X119701868Y-110939170D01*
X119682462Y-110948349D01*
X119662250Y-110955581D01*
X119641426Y-110960797D01*
X119620191Y-110963947D01*
X119598750Y-110965000D01*
X119161250Y-110965000D01*
X119139809Y-110963947D01*
X119118574Y-110960797D01*
X119097750Y-110955581D01*
X119077538Y-110948349D01*
X119058132Y-110939170D01*
X119039719Y-110928134D01*
X119022476Y-110915346D01*
X119006570Y-110900930D01*
X118992154Y-110885024D01*
X118979366Y-110867781D01*
X118968330Y-110849368D01*
X118959151Y-110829962D01*
X118951919Y-110809750D01*
X118946703Y-110788926D01*
X118943553Y-110767691D01*
X118942500Y-110746250D01*
X118942500Y-110233750D01*
X118943553Y-110212309D01*
X118946703Y-110191074D01*
X118951919Y-110170250D01*
X118959151Y-110150038D01*
X118968330Y-110130632D01*
X118979366Y-110112219D01*
X118992154Y-110094976D01*
X119006570Y-110079070D01*
X119022476Y-110064654D01*
X119039719Y-110051866D01*
X119058132Y-110040830D01*
X119077538Y-110031651D01*
X119097750Y-110024419D01*
X119118574Y-110019203D01*
X119139809Y-110016053D01*
X119161250Y-110015000D01*
X119598750Y-110015000D01*
X119620191Y-110016053D01*
X119620191Y-110016053D01*
G37*
D15*
G04 #@! TD*
G04 #@! TO.P,C1,1*
G04 #@! TO.N,GND*
X119380000Y-110490000D03*
D14*
G04 #@! TO.N,VCC*
G04 #@! TO.C,C2*
G36*
X115022691Y-110016053D02*
X115043926Y-110019203D01*
X115064750Y-110024419D01*
X115084962Y-110031651D01*
X115104368Y-110040830D01*
X115122781Y-110051866D01*
X115140024Y-110064654D01*
X115155930Y-110079070D01*
X115170346Y-110094976D01*
X115183134Y-110112219D01*
X115194170Y-110130632D01*
X115203349Y-110150038D01*
X115210581Y-110170250D01*
X115215797Y-110191074D01*
X115218947Y-110212309D01*
X115220000Y-110233750D01*
X115220000Y-110746250D01*
X115218947Y-110767691D01*
X115215797Y-110788926D01*
X115210581Y-110809750D01*
X115203349Y-110829962D01*
X115194170Y-110849368D01*
X115183134Y-110867781D01*
X115170346Y-110885024D01*
X115155930Y-110900930D01*
X115140024Y-110915346D01*
X115122781Y-110928134D01*
X115104368Y-110939170D01*
X115084962Y-110948349D01*
X115064750Y-110955581D01*
X115043926Y-110960797D01*
X115022691Y-110963947D01*
X115001250Y-110965000D01*
X114563750Y-110965000D01*
X114542309Y-110963947D01*
X114521074Y-110960797D01*
X114500250Y-110955581D01*
X114480038Y-110948349D01*
X114460632Y-110939170D01*
X114442219Y-110928134D01*
X114424976Y-110915346D01*
X114409070Y-110900930D01*
X114394654Y-110885024D01*
X114381866Y-110867781D01*
X114370830Y-110849368D01*
X114361651Y-110829962D01*
X114354419Y-110809750D01*
X114349203Y-110788926D01*
X114346053Y-110767691D01*
X114345000Y-110746250D01*
X114345000Y-110233750D01*
X114346053Y-110212309D01*
X114349203Y-110191074D01*
X114354419Y-110170250D01*
X114361651Y-110150038D01*
X114370830Y-110130632D01*
X114381866Y-110112219D01*
X114394654Y-110094976D01*
X114409070Y-110079070D01*
X114424976Y-110064654D01*
X114442219Y-110051866D01*
X114460632Y-110040830D01*
X114480038Y-110031651D01*
X114500250Y-110024419D01*
X114521074Y-110019203D01*
X114542309Y-110016053D01*
X114563750Y-110015000D01*
X115001250Y-110015000D01*
X115022691Y-110016053D01*
X115022691Y-110016053D01*
G37*
D15*
G04 #@! TD*
G04 #@! TO.P,C2,1*
G04 #@! TO.N,VCC*
X114782500Y-110490000D03*
D14*
G04 #@! TO.N,GND*
G04 #@! TO.C,C2*
G36*
X116597691Y-110016053D02*
X116618926Y-110019203D01*
X116639750Y-110024419D01*
X116659962Y-110031651D01*
X116679368Y-110040830D01*
X116697781Y-110051866D01*
X116715024Y-110064654D01*
X116730930Y-110079070D01*
X116745346Y-110094976D01*
X116758134Y-110112219D01*
X116769170Y-110130632D01*
X116778349Y-110150038D01*
X116785581Y-110170250D01*
X116790797Y-110191074D01*
X116793947Y-110212309D01*
X116795000Y-110233750D01*
X116795000Y-110746250D01*
X116793947Y-110767691D01*
X116790797Y-110788926D01*
X116785581Y-110809750D01*
X116778349Y-110829962D01*
X116769170Y-110849368D01*
X116758134Y-110867781D01*
X116745346Y-110885024D01*
X116730930Y-110900930D01*
X116715024Y-110915346D01*
X116697781Y-110928134D01*
X116679368Y-110939170D01*
X116659962Y-110948349D01*
X116639750Y-110955581D01*
X116618926Y-110960797D01*
X116597691Y-110963947D01*
X116576250Y-110965000D01*
X116138750Y-110965000D01*
X116117309Y-110963947D01*
X116096074Y-110960797D01*
X116075250Y-110955581D01*
X116055038Y-110948349D01*
X116035632Y-110939170D01*
X116017219Y-110928134D01*
X115999976Y-110915346D01*
X115984070Y-110900930D01*
X115969654Y-110885024D01*
X115956866Y-110867781D01*
X115945830Y-110849368D01*
X115936651Y-110829962D01*
X115929419Y-110809750D01*
X115924203Y-110788926D01*
X115921053Y-110767691D01*
X115920000Y-110746250D01*
X115920000Y-110233750D01*
X115921053Y-110212309D01*
X115924203Y-110191074D01*
X115929419Y-110170250D01*
X115936651Y-110150038D01*
X115945830Y-110130632D01*
X115956866Y-110112219D01*
X115969654Y-110094976D01*
X115984070Y-110079070D01*
X115999976Y-110064654D01*
X116017219Y-110051866D01*
X116035632Y-110040830D01*
X116055038Y-110031651D01*
X116075250Y-110024419D01*
X116096074Y-110019203D01*
X116117309Y-110016053D01*
X116138750Y-110015000D01*
X116576250Y-110015000D01*
X116597691Y-110016053D01*
X116597691Y-110016053D01*
G37*
D15*
G04 #@! TD*
G04 #@! TO.P,C2,2*
G04 #@! TO.N,GND*
X116357500Y-110490000D03*
D16*
G04 #@! TO.P,J1,9*
G04 #@! TO.N,Net-(C1-Pad2)*
X110490000Y-99060000D03*
G04 #@! TO.P,J1,8*
G04 #@! TO.N,VCC*
X110490000Y-96520000D03*
G04 #@! TO.P,J1,7*
G04 #@! TO.N,Net-(J1-Pad7)*
X110490000Y-93980000D03*
G04 #@! TO.P,J1,6*
G04 #@! TO.N,Net-(J1-Pad6)*
X110490000Y-91440000D03*
G04 #@! TO.P,J1,5*
G04 #@! TO.N,Net-(J1-Pad5)*
X110490000Y-88900000D03*
G04 #@! TO.P,J1,4*
G04 #@! TO.N,Net-(J1-Pad4)*
X110490000Y-86360000D03*
G04 #@! TO.P,J1,3*
G04 #@! TO.N,Net-(J1-Pad3)*
X110490000Y-83820000D03*
G04 #@! TO.P,J1,2*
G04 #@! TO.N,Net-(J1-Pad2)*
X110490000Y-81280000D03*
D17*
G04 #@! TO.P,J1,1*
G04 #@! TO.N,GND*
X110490000Y-78740000D03*
G04 #@! TD*
G04 #@! TO.P,J2,1*
G04 #@! TO.N,VCC*
X163830000Y-111760000D03*
D16*
G04 #@! TO.P,J2,2*
G04 #@! TO.N,Net-(J2-Pad2)*
X161290000Y-111760000D03*
G04 #@! TO.P,J2,3*
G04 #@! TO.N,Net-(J2-Pad3)*
X158750000Y-111760000D03*
G04 #@! TO.P,J2,4*
G04 #@! TO.N,Net-(J2-Pad4)*
X156210000Y-111760000D03*
G04 #@! TO.P,J2,5*
G04 #@! TO.N,Net-(J2-Pad5)*
X153670000Y-111760000D03*
G04 #@! TO.P,J2,6*
G04 #@! TO.N,Net-(J2-Pad6)*
X151130000Y-111760000D03*
G04 #@! TO.P,J2,7*
G04 #@! TO.N,Net-(J2-Pad7)*
X148590000Y-111760000D03*
G04 #@! TO.P,J2,8*
G04 #@! TO.N,Net-(J2-Pad8)*
X146050000Y-111760000D03*
G04 #@! TO.P,J2,9*
G04 #@! TO.N,Net-(J2-Pad9)*
X143510000Y-111760000D03*
G04 #@! TD*
D17*
G04 #@! TO.P,J3,1*
G04 #@! TO.N,VCC*
X143510000Y-78740000D03*
D16*
G04 #@! TO.P,J3,2*
G04 #@! TO.N,Net-(J3-Pad2)*
X146050000Y-78740000D03*
G04 #@! TO.P,J3,3*
G04 #@! TO.N,Net-(J3-Pad3)*
X148590000Y-78740000D03*
G04 #@! TO.P,J3,4*
G04 #@! TO.N,Net-(J3-Pad4)*
X151130000Y-78740000D03*
G04 #@! TO.P,J3,5*
G04 #@! TO.N,Net-(J3-Pad5)*
X153670000Y-78740000D03*
G04 #@! TO.P,J3,6*
G04 #@! TO.N,Net-(J3-Pad6)*
X156210000Y-78740000D03*
G04 #@! TO.P,J3,7*
G04 #@! TO.N,Net-(J3-Pad7)*
X158750000Y-78740000D03*
G04 #@! TO.P,J3,8*
G04 #@! TO.N,Net-(J3-Pad8)*
X161290000Y-78740000D03*
G04 #@! TO.P,J3,9*
G04 #@! TO.N,Net-(J3-Pad9)*
X163830000Y-78740000D03*
G04 #@! TD*
D18*
G04 #@! TO.P,Q1,3*
G04 #@! TO.N,Net-(Q1-Pad3)*
X163830000Y-99060000D03*
G04 #@! TO.P,Q1,2*
G04 #@! TO.N,GND*
X162880000Y-97060000D03*
G04 #@! TO.P,Q1,1*
G04 #@! TO.N,A1*
X164780000Y-97060000D03*
G04 #@! TD*
G04 #@! TO.P,Q2,3*
G04 #@! TO.N,Net-(Q2-Pad3)*
X158750000Y-102870000D03*
G04 #@! TO.P,Q2,2*
G04 #@! TO.N,GND*
X157800000Y-100870000D03*
G04 #@! TO.P,Q2,1*
G04 #@! TO.N,B1*
X159700000Y-100870000D03*
G04 #@! TD*
G04 #@! TO.P,Q3,1*
G04 #@! TO.N,C1*
X155890000Y-97060000D03*
G04 #@! TO.P,Q3,2*
G04 #@! TO.N,GND*
X153990000Y-97060000D03*
G04 #@! TO.P,Q3,3*
G04 #@! TO.N,Net-(Q3-Pad3)*
X154940000Y-99060000D03*
G04 #@! TD*
D19*
G04 #@! TO.P,Q4,1*
G04 #@! TO.N,D1*
X145320000Y-99380000D03*
G04 #@! TO.P,Q4,2*
G04 #@! TO.N,GND*
X145320000Y-101280000D03*
G04 #@! TO.P,Q4,3*
G04 #@! TO.N,Net-(Q4-Pad3)*
X147320000Y-100330000D03*
G04 #@! TD*
G04 #@! TO.P,Q5,3*
G04 #@! TO.N,Net-(Q5-Pad3)*
X143240000Y-102870000D03*
G04 #@! TO.P,Q5,2*
G04 #@! TO.N,GND*
X141240000Y-103820000D03*
G04 #@! TO.P,Q5,1*
G04 #@! TO.N,E1*
X141240000Y-101920000D03*
G04 #@! TD*
G04 #@! TO.P,Q6,1*
G04 #@! TO.N,F1*
X141510000Y-105730000D03*
G04 #@! TO.P,Q6,2*
G04 #@! TO.N,GND*
X141510000Y-107630000D03*
G04 #@! TO.P,Q6,3*
G04 #@! TO.N,Net-(Q6-Pad3)*
X143510000Y-106680000D03*
G04 #@! TD*
G04 #@! TO.P,Q7,3*
G04 #@! TO.N,Net-(Q7-Pad3)*
X138430000Y-106680000D03*
G04 #@! TO.P,Q7,2*
G04 #@! TO.N,GND*
X136430000Y-107630000D03*
G04 #@! TO.P,Q7,1*
G04 #@! TO.N,G1*
X136430000Y-105730000D03*
G04 #@! TD*
G04 #@! TO.P,Q8,1*
G04 #@! TO.N,H1*
X126000000Y-110810000D03*
G04 #@! TO.P,Q8,2*
G04 #@! TO.N,GND*
X126000000Y-112710000D03*
G04 #@! TO.P,Q8,3*
G04 #@! TO.N,Net-(Q8-Pad3)*
X128000000Y-111760000D03*
G04 #@! TD*
G04 #@! TO.P,Q9,3*
G04 #@! TO.N,Net-(Q9-Pad3)*
X137160000Y-95250000D03*
G04 #@! TO.P,Q9,2*
G04 #@! TO.N,GND*
X135160000Y-96200000D03*
G04 #@! TO.P,Q9,1*
G04 #@! TO.N,A2*
X135160000Y-94300000D03*
G04 #@! TD*
G04 #@! TO.P,Q10,3*
G04 #@! TO.N,Net-(Q10-Pad3)*
X138430000Y-78740000D03*
G04 #@! TO.P,Q10,2*
G04 #@! TO.N,GND*
X136430000Y-79690000D03*
G04 #@! TO.P,Q10,1*
G04 #@! TO.N,B2*
X136430000Y-77790000D03*
G04 #@! TD*
G04 #@! TO.P,Q11,1*
G04 #@! TO.N,C2*
X144050000Y-85410000D03*
G04 #@! TO.P,Q11,2*
G04 #@! TO.N,GND*
X144050000Y-87310000D03*
G04 #@! TO.P,Q11,3*
G04 #@! TO.N,Net-(Q11-Pad3)*
X146050000Y-86360000D03*
G04 #@! TD*
G04 #@! TO.P,Q12,1*
G04 #@! TO.N,D2*
X138970000Y-85410000D03*
G04 #@! TO.P,Q12,2*
G04 #@! TO.N,GND*
X138970000Y-87310000D03*
G04 #@! TO.P,Q12,3*
G04 #@! TO.N,Net-(Q12-Pad3)*
X140970000Y-86360000D03*
G04 #@! TD*
G04 #@! TO.P,Q13,3*
G04 #@! TO.N,Net-(Q13-Pad3)*
X149860000Y-90170000D03*
G04 #@! TO.P,Q13,2*
G04 #@! TO.N,GND*
X147860000Y-91120000D03*
G04 #@! TO.P,Q13,1*
G04 #@! TO.N,E2*
X147860000Y-89220000D03*
G04 #@! TD*
G04 #@! TO.P,Q14,1*
G04 #@! TO.N,F2*
X152940000Y-91760000D03*
G04 #@! TO.P,Q14,2*
G04 #@! TO.N,GND*
X152940000Y-93660000D03*
G04 #@! TO.P,Q14,3*
G04 #@! TO.N,Net-(Q14-Pad3)*
X154940000Y-92710000D03*
G04 #@! TD*
D18*
G04 #@! TO.P,Q15,3*
G04 #@! TO.N,Net-(Q15-Pad3)*
X158750000Y-91710000D03*
G04 #@! TO.P,Q15,2*
G04 #@! TO.N,GND*
X159700000Y-93710000D03*
G04 #@! TO.P,Q15,1*
G04 #@! TO.N,G2*
X157800000Y-93710000D03*
G04 #@! TD*
G04 #@! TO.P,Q16,1*
G04 #@! TO.N,H2*
X162880000Y-90900000D03*
G04 #@! TO.P,Q16,2*
G04 #@! TO.N,GND*
X164780000Y-90900000D03*
G04 #@! TO.P,Q16,3*
G04 #@! TO.N,Net-(Q16-Pad3)*
X163830000Y-88900000D03*
G04 #@! TD*
D14*
G04 #@! TO.N,Net-(Q1-Pad3)*
G04 #@! TO.C,R1*
G36*
X164479504Y-100453704D02*
X164503773Y-100457304D01*
X164527571Y-100463265D01*
X164550671Y-100471530D01*
X164572849Y-100482020D01*
X164593893Y-100494633D01*
X164613598Y-100509247D01*
X164631777Y-100525723D01*
X164648253Y-100543902D01*
X164662867Y-100563607D01*
X164675480Y-100584651D01*
X164685970Y-100606829D01*
X164694235Y-100629929D01*
X164700196Y-100653727D01*
X164703796Y-100677996D01*
X164705000Y-100702500D01*
X164705000Y-101627500D01*
X164703796Y-101652004D01*
X164700196Y-101676273D01*
X164694235Y-101700071D01*
X164685970Y-101723171D01*
X164675480Y-101745349D01*
X164662867Y-101766393D01*
X164648253Y-101786098D01*
X164631777Y-101804277D01*
X164613598Y-101820753D01*
X164593893Y-101835367D01*
X164572849Y-101847980D01*
X164550671Y-101858470D01*
X164527571Y-101866735D01*
X164503773Y-101872696D01*
X164479504Y-101876296D01*
X164455000Y-101877500D01*
X163205000Y-101877500D01*
X163180496Y-101876296D01*
X163156227Y-101872696D01*
X163132429Y-101866735D01*
X163109329Y-101858470D01*
X163087151Y-101847980D01*
X163066107Y-101835367D01*
X163046402Y-101820753D01*
X163028223Y-101804277D01*
X163011747Y-101786098D01*
X162997133Y-101766393D01*
X162984520Y-101745349D01*
X162974030Y-101723171D01*
X162965765Y-101700071D01*
X162959804Y-101676273D01*
X162956204Y-101652004D01*
X162955000Y-101627500D01*
X162955000Y-100702500D01*
X162956204Y-100677996D01*
X162959804Y-100653727D01*
X162965765Y-100629929D01*
X162974030Y-100606829D01*
X162984520Y-100584651D01*
X162997133Y-100563607D01*
X163011747Y-100543902D01*
X163028223Y-100525723D01*
X163046402Y-100509247D01*
X163066107Y-100494633D01*
X163087151Y-100482020D01*
X163109329Y-100471530D01*
X163132429Y-100463265D01*
X163156227Y-100457304D01*
X163180496Y-100453704D01*
X163205000Y-100452500D01*
X164455000Y-100452500D01*
X164479504Y-100453704D01*
X164479504Y-100453704D01*
G37*
D20*
G04 #@! TD*
G04 #@! TO.P,R1,2*
G04 #@! TO.N,Net-(Q1-Pad3)*
X163830000Y-101165000D03*
D14*
G04 #@! TO.N,Net-(J2-Pad2)*
G04 #@! TO.C,R1*
G36*
X164479504Y-103428704D02*
X164503773Y-103432304D01*
X164527571Y-103438265D01*
X164550671Y-103446530D01*
X164572849Y-103457020D01*
X164593893Y-103469633D01*
X164613598Y-103484247D01*
X164631777Y-103500723D01*
X164648253Y-103518902D01*
X164662867Y-103538607D01*
X164675480Y-103559651D01*
X164685970Y-103581829D01*
X164694235Y-103604929D01*
X164700196Y-103628727D01*
X164703796Y-103652996D01*
X164705000Y-103677500D01*
X164705000Y-104602500D01*
X164703796Y-104627004D01*
X164700196Y-104651273D01*
X164694235Y-104675071D01*
X164685970Y-104698171D01*
X164675480Y-104720349D01*
X164662867Y-104741393D01*
X164648253Y-104761098D01*
X164631777Y-104779277D01*
X164613598Y-104795753D01*
X164593893Y-104810367D01*
X164572849Y-104822980D01*
X164550671Y-104833470D01*
X164527571Y-104841735D01*
X164503773Y-104847696D01*
X164479504Y-104851296D01*
X164455000Y-104852500D01*
X163205000Y-104852500D01*
X163180496Y-104851296D01*
X163156227Y-104847696D01*
X163132429Y-104841735D01*
X163109329Y-104833470D01*
X163087151Y-104822980D01*
X163066107Y-104810367D01*
X163046402Y-104795753D01*
X163028223Y-104779277D01*
X163011747Y-104761098D01*
X162997133Y-104741393D01*
X162984520Y-104720349D01*
X162974030Y-104698171D01*
X162965765Y-104675071D01*
X162959804Y-104651273D01*
X162956204Y-104627004D01*
X162955000Y-104602500D01*
X162955000Y-103677500D01*
X162956204Y-103652996D01*
X162959804Y-103628727D01*
X162965765Y-103604929D01*
X162974030Y-103581829D01*
X162984520Y-103559651D01*
X162997133Y-103538607D01*
X163011747Y-103518902D01*
X163028223Y-103500723D01*
X163046402Y-103484247D01*
X163066107Y-103469633D01*
X163087151Y-103457020D01*
X163109329Y-103446530D01*
X163132429Y-103438265D01*
X163156227Y-103432304D01*
X163180496Y-103428704D01*
X163205000Y-103427500D01*
X164455000Y-103427500D01*
X164479504Y-103428704D01*
X164479504Y-103428704D01*
G37*
D20*
G04 #@! TD*
G04 #@! TO.P,R1,1*
G04 #@! TO.N,Net-(J2-Pad2)*
X163830000Y-104140000D03*
D14*
G04 #@! TO.N,Net-(J2-Pad3)*
G04 #@! TO.C,R2*
G36*
X160669504Y-107238704D02*
X160693773Y-107242304D01*
X160717571Y-107248265D01*
X160740671Y-107256530D01*
X160762849Y-107267020D01*
X160783893Y-107279633D01*
X160803598Y-107294247D01*
X160821777Y-107310723D01*
X160838253Y-107328902D01*
X160852867Y-107348607D01*
X160865480Y-107369651D01*
X160875970Y-107391829D01*
X160884235Y-107414929D01*
X160890196Y-107438727D01*
X160893796Y-107462996D01*
X160895000Y-107487500D01*
X160895000Y-108412500D01*
X160893796Y-108437004D01*
X160890196Y-108461273D01*
X160884235Y-108485071D01*
X160875970Y-108508171D01*
X160865480Y-108530349D01*
X160852867Y-108551393D01*
X160838253Y-108571098D01*
X160821777Y-108589277D01*
X160803598Y-108605753D01*
X160783893Y-108620367D01*
X160762849Y-108632980D01*
X160740671Y-108643470D01*
X160717571Y-108651735D01*
X160693773Y-108657696D01*
X160669504Y-108661296D01*
X160645000Y-108662500D01*
X159395000Y-108662500D01*
X159370496Y-108661296D01*
X159346227Y-108657696D01*
X159322429Y-108651735D01*
X159299329Y-108643470D01*
X159277151Y-108632980D01*
X159256107Y-108620367D01*
X159236402Y-108605753D01*
X159218223Y-108589277D01*
X159201747Y-108571098D01*
X159187133Y-108551393D01*
X159174520Y-108530349D01*
X159164030Y-108508171D01*
X159155765Y-108485071D01*
X159149804Y-108461273D01*
X159146204Y-108437004D01*
X159145000Y-108412500D01*
X159145000Y-107487500D01*
X159146204Y-107462996D01*
X159149804Y-107438727D01*
X159155765Y-107414929D01*
X159164030Y-107391829D01*
X159174520Y-107369651D01*
X159187133Y-107348607D01*
X159201747Y-107328902D01*
X159218223Y-107310723D01*
X159236402Y-107294247D01*
X159256107Y-107279633D01*
X159277151Y-107267020D01*
X159299329Y-107256530D01*
X159322429Y-107248265D01*
X159346227Y-107242304D01*
X159370496Y-107238704D01*
X159395000Y-107237500D01*
X160645000Y-107237500D01*
X160669504Y-107238704D01*
X160669504Y-107238704D01*
G37*
D20*
G04 #@! TD*
G04 #@! TO.P,R2,1*
G04 #@! TO.N,Net-(J2-Pad3)*
X160020000Y-107950000D03*
D14*
G04 #@! TO.N,Net-(Q2-Pad3)*
G04 #@! TO.C,R2*
G36*
X160669504Y-104263704D02*
X160693773Y-104267304D01*
X160717571Y-104273265D01*
X160740671Y-104281530D01*
X160762849Y-104292020D01*
X160783893Y-104304633D01*
X160803598Y-104319247D01*
X160821777Y-104335723D01*
X160838253Y-104353902D01*
X160852867Y-104373607D01*
X160865480Y-104394651D01*
X160875970Y-104416829D01*
X160884235Y-104439929D01*
X160890196Y-104463727D01*
X160893796Y-104487996D01*
X160895000Y-104512500D01*
X160895000Y-105437500D01*
X160893796Y-105462004D01*
X160890196Y-105486273D01*
X160884235Y-105510071D01*
X160875970Y-105533171D01*
X160865480Y-105555349D01*
X160852867Y-105576393D01*
X160838253Y-105596098D01*
X160821777Y-105614277D01*
X160803598Y-105630753D01*
X160783893Y-105645367D01*
X160762849Y-105657980D01*
X160740671Y-105668470D01*
X160717571Y-105676735D01*
X160693773Y-105682696D01*
X160669504Y-105686296D01*
X160645000Y-105687500D01*
X159395000Y-105687500D01*
X159370496Y-105686296D01*
X159346227Y-105682696D01*
X159322429Y-105676735D01*
X159299329Y-105668470D01*
X159277151Y-105657980D01*
X159256107Y-105645367D01*
X159236402Y-105630753D01*
X159218223Y-105614277D01*
X159201747Y-105596098D01*
X159187133Y-105576393D01*
X159174520Y-105555349D01*
X159164030Y-105533171D01*
X159155765Y-105510071D01*
X159149804Y-105486273D01*
X159146204Y-105462004D01*
X159145000Y-105437500D01*
X159145000Y-104512500D01*
X159146204Y-104487996D01*
X159149804Y-104463727D01*
X159155765Y-104439929D01*
X159164030Y-104416829D01*
X159174520Y-104394651D01*
X159187133Y-104373607D01*
X159201747Y-104353902D01*
X159218223Y-104335723D01*
X159236402Y-104319247D01*
X159256107Y-104304633D01*
X159277151Y-104292020D01*
X159299329Y-104281530D01*
X159322429Y-104273265D01*
X159346227Y-104267304D01*
X159370496Y-104263704D01*
X159395000Y-104262500D01*
X160645000Y-104262500D01*
X160669504Y-104263704D01*
X160669504Y-104263704D01*
G37*
D20*
G04 #@! TD*
G04 #@! TO.P,R2,2*
G04 #@! TO.N,Net-(Q2-Pad3)*
X160020000Y-104975000D03*
D14*
G04 #@! TO.N,Net-(Q3-Pad3)*
G04 #@! TO.C,R3*
G36*
X156859504Y-104263704D02*
X156883773Y-104267304D01*
X156907571Y-104273265D01*
X156930671Y-104281530D01*
X156952849Y-104292020D01*
X156973893Y-104304633D01*
X156993598Y-104319247D01*
X157011777Y-104335723D01*
X157028253Y-104353902D01*
X157042867Y-104373607D01*
X157055480Y-104394651D01*
X157065970Y-104416829D01*
X157074235Y-104439929D01*
X157080196Y-104463727D01*
X157083796Y-104487996D01*
X157085000Y-104512500D01*
X157085000Y-105437500D01*
X157083796Y-105462004D01*
X157080196Y-105486273D01*
X157074235Y-105510071D01*
X157065970Y-105533171D01*
X157055480Y-105555349D01*
X157042867Y-105576393D01*
X157028253Y-105596098D01*
X157011777Y-105614277D01*
X156993598Y-105630753D01*
X156973893Y-105645367D01*
X156952849Y-105657980D01*
X156930671Y-105668470D01*
X156907571Y-105676735D01*
X156883773Y-105682696D01*
X156859504Y-105686296D01*
X156835000Y-105687500D01*
X155585000Y-105687500D01*
X155560496Y-105686296D01*
X155536227Y-105682696D01*
X155512429Y-105676735D01*
X155489329Y-105668470D01*
X155467151Y-105657980D01*
X155446107Y-105645367D01*
X155426402Y-105630753D01*
X155408223Y-105614277D01*
X155391747Y-105596098D01*
X155377133Y-105576393D01*
X155364520Y-105555349D01*
X155354030Y-105533171D01*
X155345765Y-105510071D01*
X155339804Y-105486273D01*
X155336204Y-105462004D01*
X155335000Y-105437500D01*
X155335000Y-104512500D01*
X155336204Y-104487996D01*
X155339804Y-104463727D01*
X155345765Y-104439929D01*
X155354030Y-104416829D01*
X155364520Y-104394651D01*
X155377133Y-104373607D01*
X155391747Y-104353902D01*
X155408223Y-104335723D01*
X155426402Y-104319247D01*
X155446107Y-104304633D01*
X155467151Y-104292020D01*
X155489329Y-104281530D01*
X155512429Y-104273265D01*
X155536227Y-104267304D01*
X155560496Y-104263704D01*
X155585000Y-104262500D01*
X156835000Y-104262500D01*
X156859504Y-104263704D01*
X156859504Y-104263704D01*
G37*
D20*
G04 #@! TD*
G04 #@! TO.P,R3,2*
G04 #@! TO.N,Net-(Q3-Pad3)*
X156210000Y-104975000D03*
D14*
G04 #@! TO.N,Net-(J2-Pad4)*
G04 #@! TO.C,R3*
G36*
X156859504Y-107238704D02*
X156883773Y-107242304D01*
X156907571Y-107248265D01*
X156930671Y-107256530D01*
X156952849Y-107267020D01*
X156973893Y-107279633D01*
X156993598Y-107294247D01*
X157011777Y-107310723D01*
X157028253Y-107328902D01*
X157042867Y-107348607D01*
X157055480Y-107369651D01*
X157065970Y-107391829D01*
X157074235Y-107414929D01*
X157080196Y-107438727D01*
X157083796Y-107462996D01*
X157085000Y-107487500D01*
X157085000Y-108412500D01*
X157083796Y-108437004D01*
X157080196Y-108461273D01*
X157074235Y-108485071D01*
X157065970Y-108508171D01*
X157055480Y-108530349D01*
X157042867Y-108551393D01*
X157028253Y-108571098D01*
X157011777Y-108589277D01*
X156993598Y-108605753D01*
X156973893Y-108620367D01*
X156952849Y-108632980D01*
X156930671Y-108643470D01*
X156907571Y-108651735D01*
X156883773Y-108657696D01*
X156859504Y-108661296D01*
X156835000Y-108662500D01*
X155585000Y-108662500D01*
X155560496Y-108661296D01*
X155536227Y-108657696D01*
X155512429Y-108651735D01*
X155489329Y-108643470D01*
X155467151Y-108632980D01*
X155446107Y-108620367D01*
X155426402Y-108605753D01*
X155408223Y-108589277D01*
X155391747Y-108571098D01*
X155377133Y-108551393D01*
X155364520Y-108530349D01*
X155354030Y-108508171D01*
X155345765Y-108485071D01*
X155339804Y-108461273D01*
X155336204Y-108437004D01*
X155335000Y-108412500D01*
X155335000Y-107487500D01*
X155336204Y-107462996D01*
X155339804Y-107438727D01*
X155345765Y-107414929D01*
X155354030Y-107391829D01*
X155364520Y-107369651D01*
X155377133Y-107348607D01*
X155391747Y-107328902D01*
X155408223Y-107310723D01*
X155426402Y-107294247D01*
X155446107Y-107279633D01*
X155467151Y-107267020D01*
X155489329Y-107256530D01*
X155512429Y-107248265D01*
X155536227Y-107242304D01*
X155560496Y-107238704D01*
X155585000Y-107237500D01*
X156835000Y-107237500D01*
X156859504Y-107238704D01*
X156859504Y-107238704D01*
G37*
D20*
G04 #@! TD*
G04 #@! TO.P,R3,1*
G04 #@! TO.N,Net-(J2-Pad4)*
X156210000Y-107950000D03*
D14*
G04 #@! TO.N,Net-(J2-Pad5)*
G04 #@! TO.C,R4*
G36*
X155427004Y-100726204D02*
X155451273Y-100729804D01*
X155475071Y-100735765D01*
X155498171Y-100744030D01*
X155520349Y-100754520D01*
X155541393Y-100767133D01*
X155561098Y-100781747D01*
X155579277Y-100798223D01*
X155595753Y-100816402D01*
X155610367Y-100836107D01*
X155622980Y-100857151D01*
X155633470Y-100879329D01*
X155641735Y-100902429D01*
X155647696Y-100926227D01*
X155651296Y-100950496D01*
X155652500Y-100975000D01*
X155652500Y-102225000D01*
X155651296Y-102249504D01*
X155647696Y-102273773D01*
X155641735Y-102297571D01*
X155633470Y-102320671D01*
X155622980Y-102342849D01*
X155610367Y-102363893D01*
X155595753Y-102383598D01*
X155579277Y-102401777D01*
X155561098Y-102418253D01*
X155541393Y-102432867D01*
X155520349Y-102445480D01*
X155498171Y-102455970D01*
X155475071Y-102464235D01*
X155451273Y-102470196D01*
X155427004Y-102473796D01*
X155402500Y-102475000D01*
X154477500Y-102475000D01*
X154452996Y-102473796D01*
X154428727Y-102470196D01*
X154404929Y-102464235D01*
X154381829Y-102455970D01*
X154359651Y-102445480D01*
X154338607Y-102432867D01*
X154318902Y-102418253D01*
X154300723Y-102401777D01*
X154284247Y-102383598D01*
X154269633Y-102363893D01*
X154257020Y-102342849D01*
X154246530Y-102320671D01*
X154238265Y-102297571D01*
X154232304Y-102273773D01*
X154228704Y-102249504D01*
X154227500Y-102225000D01*
X154227500Y-100975000D01*
X154228704Y-100950496D01*
X154232304Y-100926227D01*
X154238265Y-100902429D01*
X154246530Y-100879329D01*
X154257020Y-100857151D01*
X154269633Y-100836107D01*
X154284247Y-100816402D01*
X154300723Y-100798223D01*
X154318902Y-100781747D01*
X154338607Y-100767133D01*
X154359651Y-100754520D01*
X154381829Y-100744030D01*
X154404929Y-100735765D01*
X154428727Y-100729804D01*
X154452996Y-100726204D01*
X154477500Y-100725000D01*
X155402500Y-100725000D01*
X155427004Y-100726204D01*
X155427004Y-100726204D01*
G37*
D20*
G04 #@! TD*
G04 #@! TO.P,R4,1*
G04 #@! TO.N,Net-(J2-Pad5)*
X154940000Y-101600000D03*
D14*
G04 #@! TO.N,Net-(Q4-Pad3)*
G04 #@! TO.C,R4*
G36*
X152452004Y-100726204D02*
X152476273Y-100729804D01*
X152500071Y-100735765D01*
X152523171Y-100744030D01*
X152545349Y-100754520D01*
X152566393Y-100767133D01*
X152586098Y-100781747D01*
X152604277Y-100798223D01*
X152620753Y-100816402D01*
X152635367Y-100836107D01*
X152647980Y-100857151D01*
X152658470Y-100879329D01*
X152666735Y-100902429D01*
X152672696Y-100926227D01*
X152676296Y-100950496D01*
X152677500Y-100975000D01*
X152677500Y-102225000D01*
X152676296Y-102249504D01*
X152672696Y-102273773D01*
X152666735Y-102297571D01*
X152658470Y-102320671D01*
X152647980Y-102342849D01*
X152635367Y-102363893D01*
X152620753Y-102383598D01*
X152604277Y-102401777D01*
X152586098Y-102418253D01*
X152566393Y-102432867D01*
X152545349Y-102445480D01*
X152523171Y-102455970D01*
X152500071Y-102464235D01*
X152476273Y-102470196D01*
X152452004Y-102473796D01*
X152427500Y-102475000D01*
X151502500Y-102475000D01*
X151477996Y-102473796D01*
X151453727Y-102470196D01*
X151429929Y-102464235D01*
X151406829Y-102455970D01*
X151384651Y-102445480D01*
X151363607Y-102432867D01*
X151343902Y-102418253D01*
X151325723Y-102401777D01*
X151309247Y-102383598D01*
X151294633Y-102363893D01*
X151282020Y-102342849D01*
X151271530Y-102320671D01*
X151263265Y-102297571D01*
X151257304Y-102273773D01*
X151253704Y-102249504D01*
X151252500Y-102225000D01*
X151252500Y-100975000D01*
X151253704Y-100950496D01*
X151257304Y-100926227D01*
X151263265Y-100902429D01*
X151271530Y-100879329D01*
X151282020Y-100857151D01*
X151294633Y-100836107D01*
X151309247Y-100816402D01*
X151325723Y-100798223D01*
X151343902Y-100781747D01*
X151363607Y-100767133D01*
X151384651Y-100754520D01*
X151406829Y-100744030D01*
X151429929Y-100735765D01*
X151453727Y-100729804D01*
X151477996Y-100726204D01*
X151502500Y-100725000D01*
X152427500Y-100725000D01*
X152452004Y-100726204D01*
X152452004Y-100726204D01*
G37*
D20*
G04 #@! TD*
G04 #@! TO.P,R4,2*
G04 #@! TO.N,Net-(Q4-Pad3)*
X151965000Y-101600000D03*
D14*
G04 #@! TO.N,Net-(Q5-Pad3)*
G04 #@! TO.C,R5*
G36*
X151779504Y-104263704D02*
X151803773Y-104267304D01*
X151827571Y-104273265D01*
X151850671Y-104281530D01*
X151872849Y-104292020D01*
X151893893Y-104304633D01*
X151913598Y-104319247D01*
X151931777Y-104335723D01*
X151948253Y-104353902D01*
X151962867Y-104373607D01*
X151975480Y-104394651D01*
X151985970Y-104416829D01*
X151994235Y-104439929D01*
X152000196Y-104463727D01*
X152003796Y-104487996D01*
X152005000Y-104512500D01*
X152005000Y-105437500D01*
X152003796Y-105462004D01*
X152000196Y-105486273D01*
X151994235Y-105510071D01*
X151985970Y-105533171D01*
X151975480Y-105555349D01*
X151962867Y-105576393D01*
X151948253Y-105596098D01*
X151931777Y-105614277D01*
X151913598Y-105630753D01*
X151893893Y-105645367D01*
X151872849Y-105657980D01*
X151850671Y-105668470D01*
X151827571Y-105676735D01*
X151803773Y-105682696D01*
X151779504Y-105686296D01*
X151755000Y-105687500D01*
X150505000Y-105687500D01*
X150480496Y-105686296D01*
X150456227Y-105682696D01*
X150432429Y-105676735D01*
X150409329Y-105668470D01*
X150387151Y-105657980D01*
X150366107Y-105645367D01*
X150346402Y-105630753D01*
X150328223Y-105614277D01*
X150311747Y-105596098D01*
X150297133Y-105576393D01*
X150284520Y-105555349D01*
X150274030Y-105533171D01*
X150265765Y-105510071D01*
X150259804Y-105486273D01*
X150256204Y-105462004D01*
X150255000Y-105437500D01*
X150255000Y-104512500D01*
X150256204Y-104487996D01*
X150259804Y-104463727D01*
X150265765Y-104439929D01*
X150274030Y-104416829D01*
X150284520Y-104394651D01*
X150297133Y-104373607D01*
X150311747Y-104353902D01*
X150328223Y-104335723D01*
X150346402Y-104319247D01*
X150366107Y-104304633D01*
X150387151Y-104292020D01*
X150409329Y-104281530D01*
X150432429Y-104273265D01*
X150456227Y-104267304D01*
X150480496Y-104263704D01*
X150505000Y-104262500D01*
X151755000Y-104262500D01*
X151779504Y-104263704D01*
X151779504Y-104263704D01*
G37*
D20*
G04 #@! TD*
G04 #@! TO.P,R5,2*
G04 #@! TO.N,Net-(Q5-Pad3)*
X151130000Y-104975000D03*
D14*
G04 #@! TO.N,Net-(J2-Pad6)*
G04 #@! TO.C,R5*
G36*
X151779504Y-107238704D02*
X151803773Y-107242304D01*
X151827571Y-107248265D01*
X151850671Y-107256530D01*
X151872849Y-107267020D01*
X151893893Y-107279633D01*
X151913598Y-107294247D01*
X151931777Y-107310723D01*
X151948253Y-107328902D01*
X151962867Y-107348607D01*
X151975480Y-107369651D01*
X151985970Y-107391829D01*
X151994235Y-107414929D01*
X152000196Y-107438727D01*
X152003796Y-107462996D01*
X152005000Y-107487500D01*
X152005000Y-108412500D01*
X152003796Y-108437004D01*
X152000196Y-108461273D01*
X151994235Y-108485071D01*
X151985970Y-108508171D01*
X151975480Y-108530349D01*
X151962867Y-108551393D01*
X151948253Y-108571098D01*
X151931777Y-108589277D01*
X151913598Y-108605753D01*
X151893893Y-108620367D01*
X151872849Y-108632980D01*
X151850671Y-108643470D01*
X151827571Y-108651735D01*
X151803773Y-108657696D01*
X151779504Y-108661296D01*
X151755000Y-108662500D01*
X150505000Y-108662500D01*
X150480496Y-108661296D01*
X150456227Y-108657696D01*
X150432429Y-108651735D01*
X150409329Y-108643470D01*
X150387151Y-108632980D01*
X150366107Y-108620367D01*
X150346402Y-108605753D01*
X150328223Y-108589277D01*
X150311747Y-108571098D01*
X150297133Y-108551393D01*
X150284520Y-108530349D01*
X150274030Y-108508171D01*
X150265765Y-108485071D01*
X150259804Y-108461273D01*
X150256204Y-108437004D01*
X150255000Y-108412500D01*
X150255000Y-107487500D01*
X150256204Y-107462996D01*
X150259804Y-107438727D01*
X150265765Y-107414929D01*
X150274030Y-107391829D01*
X150284520Y-107369651D01*
X150297133Y-107348607D01*
X150311747Y-107328902D01*
X150328223Y-107310723D01*
X150346402Y-107294247D01*
X150366107Y-107279633D01*
X150387151Y-107267020D01*
X150409329Y-107256530D01*
X150432429Y-107248265D01*
X150456227Y-107242304D01*
X150480496Y-107238704D01*
X150505000Y-107237500D01*
X151755000Y-107237500D01*
X151779504Y-107238704D01*
X151779504Y-107238704D01*
G37*
D20*
G04 #@! TD*
G04 #@! TO.P,R5,1*
G04 #@! TO.N,Net-(J2-Pad6)*
X151130000Y-107950000D03*
D14*
G04 #@! TO.N,Net-(J2-Pad7)*
G04 #@! TO.C,R6*
G36*
X147969504Y-107238704D02*
X147993773Y-107242304D01*
X148017571Y-107248265D01*
X148040671Y-107256530D01*
X148062849Y-107267020D01*
X148083893Y-107279633D01*
X148103598Y-107294247D01*
X148121777Y-107310723D01*
X148138253Y-107328902D01*
X148152867Y-107348607D01*
X148165480Y-107369651D01*
X148175970Y-107391829D01*
X148184235Y-107414929D01*
X148190196Y-107438727D01*
X148193796Y-107462996D01*
X148195000Y-107487500D01*
X148195000Y-108412500D01*
X148193796Y-108437004D01*
X148190196Y-108461273D01*
X148184235Y-108485071D01*
X148175970Y-108508171D01*
X148165480Y-108530349D01*
X148152867Y-108551393D01*
X148138253Y-108571098D01*
X148121777Y-108589277D01*
X148103598Y-108605753D01*
X148083893Y-108620367D01*
X148062849Y-108632980D01*
X148040671Y-108643470D01*
X148017571Y-108651735D01*
X147993773Y-108657696D01*
X147969504Y-108661296D01*
X147945000Y-108662500D01*
X146695000Y-108662500D01*
X146670496Y-108661296D01*
X146646227Y-108657696D01*
X146622429Y-108651735D01*
X146599329Y-108643470D01*
X146577151Y-108632980D01*
X146556107Y-108620367D01*
X146536402Y-108605753D01*
X146518223Y-108589277D01*
X146501747Y-108571098D01*
X146487133Y-108551393D01*
X146474520Y-108530349D01*
X146464030Y-108508171D01*
X146455765Y-108485071D01*
X146449804Y-108461273D01*
X146446204Y-108437004D01*
X146445000Y-108412500D01*
X146445000Y-107487500D01*
X146446204Y-107462996D01*
X146449804Y-107438727D01*
X146455765Y-107414929D01*
X146464030Y-107391829D01*
X146474520Y-107369651D01*
X146487133Y-107348607D01*
X146501747Y-107328902D01*
X146518223Y-107310723D01*
X146536402Y-107294247D01*
X146556107Y-107279633D01*
X146577151Y-107267020D01*
X146599329Y-107256530D01*
X146622429Y-107248265D01*
X146646227Y-107242304D01*
X146670496Y-107238704D01*
X146695000Y-107237500D01*
X147945000Y-107237500D01*
X147969504Y-107238704D01*
X147969504Y-107238704D01*
G37*
D20*
G04 #@! TD*
G04 #@! TO.P,R6,1*
G04 #@! TO.N,Net-(J2-Pad7)*
X147320000Y-107950000D03*
D14*
G04 #@! TO.N,Net-(Q6-Pad3)*
G04 #@! TO.C,R6*
G36*
X147969504Y-104263704D02*
X147993773Y-104267304D01*
X148017571Y-104273265D01*
X148040671Y-104281530D01*
X148062849Y-104292020D01*
X148083893Y-104304633D01*
X148103598Y-104319247D01*
X148121777Y-104335723D01*
X148138253Y-104353902D01*
X148152867Y-104373607D01*
X148165480Y-104394651D01*
X148175970Y-104416829D01*
X148184235Y-104439929D01*
X148190196Y-104463727D01*
X148193796Y-104487996D01*
X148195000Y-104512500D01*
X148195000Y-105437500D01*
X148193796Y-105462004D01*
X148190196Y-105486273D01*
X148184235Y-105510071D01*
X148175970Y-105533171D01*
X148165480Y-105555349D01*
X148152867Y-105576393D01*
X148138253Y-105596098D01*
X148121777Y-105614277D01*
X148103598Y-105630753D01*
X148083893Y-105645367D01*
X148062849Y-105657980D01*
X148040671Y-105668470D01*
X148017571Y-105676735D01*
X147993773Y-105682696D01*
X147969504Y-105686296D01*
X147945000Y-105687500D01*
X146695000Y-105687500D01*
X146670496Y-105686296D01*
X146646227Y-105682696D01*
X146622429Y-105676735D01*
X146599329Y-105668470D01*
X146577151Y-105657980D01*
X146556107Y-105645367D01*
X146536402Y-105630753D01*
X146518223Y-105614277D01*
X146501747Y-105596098D01*
X146487133Y-105576393D01*
X146474520Y-105555349D01*
X146464030Y-105533171D01*
X146455765Y-105510071D01*
X146449804Y-105486273D01*
X146446204Y-105462004D01*
X146445000Y-105437500D01*
X146445000Y-104512500D01*
X146446204Y-104487996D01*
X146449804Y-104463727D01*
X146455765Y-104439929D01*
X146464030Y-104416829D01*
X146474520Y-104394651D01*
X146487133Y-104373607D01*
X146501747Y-104353902D01*
X146518223Y-104335723D01*
X146536402Y-104319247D01*
X146556107Y-104304633D01*
X146577151Y-104292020D01*
X146599329Y-104281530D01*
X146622429Y-104273265D01*
X146646227Y-104267304D01*
X146670496Y-104263704D01*
X146695000Y-104262500D01*
X147945000Y-104262500D01*
X147969504Y-104263704D01*
X147969504Y-104263704D01*
G37*
D20*
G04 #@! TD*
G04 #@! TO.P,R6,2*
G04 #@! TO.N,Net-(Q6-Pad3)*
X147320000Y-104975000D03*
D14*
G04 #@! TO.N,Net-(J2-Pad8)*
G04 #@! TO.C,R7*
G36*
X140622004Y-109616204D02*
X140646273Y-109619804D01*
X140670071Y-109625765D01*
X140693171Y-109634030D01*
X140715349Y-109644520D01*
X140736393Y-109657133D01*
X140756098Y-109671747D01*
X140774277Y-109688223D01*
X140790753Y-109706402D01*
X140805367Y-109726107D01*
X140817980Y-109747151D01*
X140828470Y-109769329D01*
X140836735Y-109792429D01*
X140842696Y-109816227D01*
X140846296Y-109840496D01*
X140847500Y-109865000D01*
X140847500Y-111115000D01*
X140846296Y-111139504D01*
X140842696Y-111163773D01*
X140836735Y-111187571D01*
X140828470Y-111210671D01*
X140817980Y-111232849D01*
X140805367Y-111253893D01*
X140790753Y-111273598D01*
X140774277Y-111291777D01*
X140756098Y-111308253D01*
X140736393Y-111322867D01*
X140715349Y-111335480D01*
X140693171Y-111345970D01*
X140670071Y-111354235D01*
X140646273Y-111360196D01*
X140622004Y-111363796D01*
X140597500Y-111365000D01*
X139672500Y-111365000D01*
X139647996Y-111363796D01*
X139623727Y-111360196D01*
X139599929Y-111354235D01*
X139576829Y-111345970D01*
X139554651Y-111335480D01*
X139533607Y-111322867D01*
X139513902Y-111308253D01*
X139495723Y-111291777D01*
X139479247Y-111273598D01*
X139464633Y-111253893D01*
X139452020Y-111232849D01*
X139441530Y-111210671D01*
X139433265Y-111187571D01*
X139427304Y-111163773D01*
X139423704Y-111139504D01*
X139422500Y-111115000D01*
X139422500Y-109865000D01*
X139423704Y-109840496D01*
X139427304Y-109816227D01*
X139433265Y-109792429D01*
X139441530Y-109769329D01*
X139452020Y-109747151D01*
X139464633Y-109726107D01*
X139479247Y-109706402D01*
X139495723Y-109688223D01*
X139513902Y-109671747D01*
X139533607Y-109657133D01*
X139554651Y-109644520D01*
X139576829Y-109634030D01*
X139599929Y-109625765D01*
X139623727Y-109619804D01*
X139647996Y-109616204D01*
X139672500Y-109615000D01*
X140597500Y-109615000D01*
X140622004Y-109616204D01*
X140622004Y-109616204D01*
G37*
D20*
G04 #@! TD*
G04 #@! TO.P,R7,1*
G04 #@! TO.N,Net-(J2-Pad8)*
X140135000Y-110490000D03*
D14*
G04 #@! TO.N,Net-(Q7-Pad3)*
G04 #@! TO.C,R7*
G36*
X137647004Y-109616204D02*
X137671273Y-109619804D01*
X137695071Y-109625765D01*
X137718171Y-109634030D01*
X137740349Y-109644520D01*
X137761393Y-109657133D01*
X137781098Y-109671747D01*
X137799277Y-109688223D01*
X137815753Y-109706402D01*
X137830367Y-109726107D01*
X137842980Y-109747151D01*
X137853470Y-109769329D01*
X137861735Y-109792429D01*
X137867696Y-109816227D01*
X137871296Y-109840496D01*
X137872500Y-109865000D01*
X137872500Y-111115000D01*
X137871296Y-111139504D01*
X137867696Y-111163773D01*
X137861735Y-111187571D01*
X137853470Y-111210671D01*
X137842980Y-111232849D01*
X137830367Y-111253893D01*
X137815753Y-111273598D01*
X137799277Y-111291777D01*
X137781098Y-111308253D01*
X137761393Y-111322867D01*
X137740349Y-111335480D01*
X137718171Y-111345970D01*
X137695071Y-111354235D01*
X137671273Y-111360196D01*
X137647004Y-111363796D01*
X137622500Y-111365000D01*
X136697500Y-111365000D01*
X136672996Y-111363796D01*
X136648727Y-111360196D01*
X136624929Y-111354235D01*
X136601829Y-111345970D01*
X136579651Y-111335480D01*
X136558607Y-111322867D01*
X136538902Y-111308253D01*
X136520723Y-111291777D01*
X136504247Y-111273598D01*
X136489633Y-111253893D01*
X136477020Y-111232849D01*
X136466530Y-111210671D01*
X136458265Y-111187571D01*
X136452304Y-111163773D01*
X136448704Y-111139504D01*
X136447500Y-111115000D01*
X136447500Y-109865000D01*
X136448704Y-109840496D01*
X136452304Y-109816227D01*
X136458265Y-109792429D01*
X136466530Y-109769329D01*
X136477020Y-109747151D01*
X136489633Y-109726107D01*
X136504247Y-109706402D01*
X136520723Y-109688223D01*
X136538902Y-109671747D01*
X136558607Y-109657133D01*
X136579651Y-109644520D01*
X136601829Y-109634030D01*
X136624929Y-109625765D01*
X136648727Y-109619804D01*
X136672996Y-109616204D01*
X136697500Y-109615000D01*
X137622500Y-109615000D01*
X137647004Y-109616204D01*
X137647004Y-109616204D01*
G37*
D20*
G04 #@! TD*
G04 #@! TO.P,R7,2*
G04 #@! TO.N,Net-(Q7-Pad3)*
X137160000Y-110490000D03*
D14*
G04 #@! TO.N,Net-(Q8-Pad3)*
G04 #@! TO.C,R8*
G36*
X131297004Y-110886204D02*
X131321273Y-110889804D01*
X131345071Y-110895765D01*
X131368171Y-110904030D01*
X131390349Y-110914520D01*
X131411393Y-110927133D01*
X131431098Y-110941747D01*
X131449277Y-110958223D01*
X131465753Y-110976402D01*
X131480367Y-110996107D01*
X131492980Y-111017151D01*
X131503470Y-111039329D01*
X131511735Y-111062429D01*
X131517696Y-111086227D01*
X131521296Y-111110496D01*
X131522500Y-111135000D01*
X131522500Y-112385000D01*
X131521296Y-112409504D01*
X131517696Y-112433773D01*
X131511735Y-112457571D01*
X131503470Y-112480671D01*
X131492980Y-112502849D01*
X131480367Y-112523893D01*
X131465753Y-112543598D01*
X131449277Y-112561777D01*
X131431098Y-112578253D01*
X131411393Y-112592867D01*
X131390349Y-112605480D01*
X131368171Y-112615970D01*
X131345071Y-112624235D01*
X131321273Y-112630196D01*
X131297004Y-112633796D01*
X131272500Y-112635000D01*
X130347500Y-112635000D01*
X130322996Y-112633796D01*
X130298727Y-112630196D01*
X130274929Y-112624235D01*
X130251829Y-112615970D01*
X130229651Y-112605480D01*
X130208607Y-112592867D01*
X130188902Y-112578253D01*
X130170723Y-112561777D01*
X130154247Y-112543598D01*
X130139633Y-112523893D01*
X130127020Y-112502849D01*
X130116530Y-112480671D01*
X130108265Y-112457571D01*
X130102304Y-112433773D01*
X130098704Y-112409504D01*
X130097500Y-112385000D01*
X130097500Y-111135000D01*
X130098704Y-111110496D01*
X130102304Y-111086227D01*
X130108265Y-111062429D01*
X130116530Y-111039329D01*
X130127020Y-111017151D01*
X130139633Y-110996107D01*
X130154247Y-110976402D01*
X130170723Y-110958223D01*
X130188902Y-110941747D01*
X130208607Y-110927133D01*
X130229651Y-110914520D01*
X130251829Y-110904030D01*
X130274929Y-110895765D01*
X130298727Y-110889804D01*
X130322996Y-110886204D01*
X130347500Y-110885000D01*
X131272500Y-110885000D01*
X131297004Y-110886204D01*
X131297004Y-110886204D01*
G37*
D20*
G04 #@! TD*
G04 #@! TO.P,R8,2*
G04 #@! TO.N,Net-(Q8-Pad3)*
X130810000Y-111760000D03*
D14*
G04 #@! TO.N,Net-(J2-Pad9)*
G04 #@! TO.C,R8*
G36*
X134272004Y-110886204D02*
X134296273Y-110889804D01*
X134320071Y-110895765D01*
X134343171Y-110904030D01*
X134365349Y-110914520D01*
X134386393Y-110927133D01*
X134406098Y-110941747D01*
X134424277Y-110958223D01*
X134440753Y-110976402D01*
X134455367Y-110996107D01*
X134467980Y-111017151D01*
X134478470Y-111039329D01*
X134486735Y-111062429D01*
X134492696Y-111086227D01*
X134496296Y-111110496D01*
X134497500Y-111135000D01*
X134497500Y-112385000D01*
X134496296Y-112409504D01*
X134492696Y-112433773D01*
X134486735Y-112457571D01*
X134478470Y-112480671D01*
X134467980Y-112502849D01*
X134455367Y-112523893D01*
X134440753Y-112543598D01*
X134424277Y-112561777D01*
X134406098Y-112578253D01*
X134386393Y-112592867D01*
X134365349Y-112605480D01*
X134343171Y-112615970D01*
X134320071Y-112624235D01*
X134296273Y-112630196D01*
X134272004Y-112633796D01*
X134247500Y-112635000D01*
X133322500Y-112635000D01*
X133297996Y-112633796D01*
X133273727Y-112630196D01*
X133249929Y-112624235D01*
X133226829Y-112615970D01*
X133204651Y-112605480D01*
X133183607Y-112592867D01*
X133163902Y-112578253D01*
X133145723Y-112561777D01*
X133129247Y-112543598D01*
X133114633Y-112523893D01*
X133102020Y-112502849D01*
X133091530Y-112480671D01*
X133083265Y-112457571D01*
X133077304Y-112433773D01*
X133073704Y-112409504D01*
X133072500Y-112385000D01*
X133072500Y-111135000D01*
X133073704Y-111110496D01*
X133077304Y-111086227D01*
X133083265Y-111062429D01*
X133091530Y-111039329D01*
X133102020Y-111017151D01*
X133114633Y-110996107D01*
X133129247Y-110976402D01*
X133145723Y-110958223D01*
X133163902Y-110941747D01*
X133183607Y-110927133D01*
X133204651Y-110914520D01*
X133226829Y-110904030D01*
X133249929Y-110895765D01*
X133273727Y-110889804D01*
X133297996Y-110886204D01*
X133322500Y-110885000D01*
X134247500Y-110885000D01*
X134272004Y-110886204D01*
X134272004Y-110886204D01*
G37*
D20*
G04 #@! TD*
G04 #@! TO.P,R8,1*
G04 #@! TO.N,Net-(J2-Pad9)*
X133785000Y-111760000D03*
D14*
G04 #@! TO.N,Net-(J3-Pad2)*
G04 #@! TO.C,R9*
G36*
X143997004Y-93106204D02*
X144021273Y-93109804D01*
X144045071Y-93115765D01*
X144068171Y-93124030D01*
X144090349Y-93134520D01*
X144111393Y-93147133D01*
X144131098Y-93161747D01*
X144149277Y-93178223D01*
X144165753Y-93196402D01*
X144180367Y-93216107D01*
X144192980Y-93237151D01*
X144203470Y-93259329D01*
X144211735Y-93282429D01*
X144217696Y-93306227D01*
X144221296Y-93330496D01*
X144222500Y-93355000D01*
X144222500Y-94605000D01*
X144221296Y-94629504D01*
X144217696Y-94653773D01*
X144211735Y-94677571D01*
X144203470Y-94700671D01*
X144192980Y-94722849D01*
X144180367Y-94743893D01*
X144165753Y-94763598D01*
X144149277Y-94781777D01*
X144131098Y-94798253D01*
X144111393Y-94812867D01*
X144090349Y-94825480D01*
X144068171Y-94835970D01*
X144045071Y-94844235D01*
X144021273Y-94850196D01*
X143997004Y-94853796D01*
X143972500Y-94855000D01*
X143047500Y-94855000D01*
X143022996Y-94853796D01*
X142998727Y-94850196D01*
X142974929Y-94844235D01*
X142951829Y-94835970D01*
X142929651Y-94825480D01*
X142908607Y-94812867D01*
X142888902Y-94798253D01*
X142870723Y-94781777D01*
X142854247Y-94763598D01*
X142839633Y-94743893D01*
X142827020Y-94722849D01*
X142816530Y-94700671D01*
X142808265Y-94677571D01*
X142802304Y-94653773D01*
X142798704Y-94629504D01*
X142797500Y-94605000D01*
X142797500Y-93355000D01*
X142798704Y-93330496D01*
X142802304Y-93306227D01*
X142808265Y-93282429D01*
X142816530Y-93259329D01*
X142827020Y-93237151D01*
X142839633Y-93216107D01*
X142854247Y-93196402D01*
X142870723Y-93178223D01*
X142888902Y-93161747D01*
X142908607Y-93147133D01*
X142929651Y-93134520D01*
X142951829Y-93124030D01*
X142974929Y-93115765D01*
X142998727Y-93109804D01*
X143022996Y-93106204D01*
X143047500Y-93105000D01*
X143972500Y-93105000D01*
X143997004Y-93106204D01*
X143997004Y-93106204D01*
G37*
D20*
G04 #@! TD*
G04 #@! TO.P,R9,1*
G04 #@! TO.N,Net-(J3-Pad2)*
X143510000Y-93980000D03*
D14*
G04 #@! TO.N,Net-(Q9-Pad3)*
G04 #@! TO.C,R9*
G36*
X141022004Y-93106204D02*
X141046273Y-93109804D01*
X141070071Y-93115765D01*
X141093171Y-93124030D01*
X141115349Y-93134520D01*
X141136393Y-93147133D01*
X141156098Y-93161747D01*
X141174277Y-93178223D01*
X141190753Y-93196402D01*
X141205367Y-93216107D01*
X141217980Y-93237151D01*
X141228470Y-93259329D01*
X141236735Y-93282429D01*
X141242696Y-93306227D01*
X141246296Y-93330496D01*
X141247500Y-93355000D01*
X141247500Y-94605000D01*
X141246296Y-94629504D01*
X141242696Y-94653773D01*
X141236735Y-94677571D01*
X141228470Y-94700671D01*
X141217980Y-94722849D01*
X141205367Y-94743893D01*
X141190753Y-94763598D01*
X141174277Y-94781777D01*
X141156098Y-94798253D01*
X141136393Y-94812867D01*
X141115349Y-94825480D01*
X141093171Y-94835970D01*
X141070071Y-94844235D01*
X141046273Y-94850196D01*
X141022004Y-94853796D01*
X140997500Y-94855000D01*
X140072500Y-94855000D01*
X140047996Y-94853796D01*
X140023727Y-94850196D01*
X139999929Y-94844235D01*
X139976829Y-94835970D01*
X139954651Y-94825480D01*
X139933607Y-94812867D01*
X139913902Y-94798253D01*
X139895723Y-94781777D01*
X139879247Y-94763598D01*
X139864633Y-94743893D01*
X139852020Y-94722849D01*
X139841530Y-94700671D01*
X139833265Y-94677571D01*
X139827304Y-94653773D01*
X139823704Y-94629504D01*
X139822500Y-94605000D01*
X139822500Y-93355000D01*
X139823704Y-93330496D01*
X139827304Y-93306227D01*
X139833265Y-93282429D01*
X139841530Y-93259329D01*
X139852020Y-93237151D01*
X139864633Y-93216107D01*
X139879247Y-93196402D01*
X139895723Y-93178223D01*
X139913902Y-93161747D01*
X139933607Y-93147133D01*
X139954651Y-93134520D01*
X139976829Y-93124030D01*
X139999929Y-93115765D01*
X140023727Y-93109804D01*
X140047996Y-93106204D01*
X140072500Y-93105000D01*
X140997500Y-93105000D01*
X141022004Y-93106204D01*
X141022004Y-93106204D01*
G37*
D20*
G04 #@! TD*
G04 #@! TO.P,R9,2*
G04 #@! TO.N,Net-(Q9-Pad3)*
X140535000Y-93980000D03*
D14*
G04 #@! TO.N,Net-(Q10-Pad3)*
G04 #@! TO.C,R10*
G36*
X142292004Y-81676204D02*
X142316273Y-81679804D01*
X142340071Y-81685765D01*
X142363171Y-81694030D01*
X142385349Y-81704520D01*
X142406393Y-81717133D01*
X142426098Y-81731747D01*
X142444277Y-81748223D01*
X142460753Y-81766402D01*
X142475367Y-81786107D01*
X142487980Y-81807151D01*
X142498470Y-81829329D01*
X142506735Y-81852429D01*
X142512696Y-81876227D01*
X142516296Y-81900496D01*
X142517500Y-81925000D01*
X142517500Y-83175000D01*
X142516296Y-83199504D01*
X142512696Y-83223773D01*
X142506735Y-83247571D01*
X142498470Y-83270671D01*
X142487980Y-83292849D01*
X142475367Y-83313893D01*
X142460753Y-83333598D01*
X142444277Y-83351777D01*
X142426098Y-83368253D01*
X142406393Y-83382867D01*
X142385349Y-83395480D01*
X142363171Y-83405970D01*
X142340071Y-83414235D01*
X142316273Y-83420196D01*
X142292004Y-83423796D01*
X142267500Y-83425000D01*
X141342500Y-83425000D01*
X141317996Y-83423796D01*
X141293727Y-83420196D01*
X141269929Y-83414235D01*
X141246829Y-83405970D01*
X141224651Y-83395480D01*
X141203607Y-83382867D01*
X141183902Y-83368253D01*
X141165723Y-83351777D01*
X141149247Y-83333598D01*
X141134633Y-83313893D01*
X141122020Y-83292849D01*
X141111530Y-83270671D01*
X141103265Y-83247571D01*
X141097304Y-83223773D01*
X141093704Y-83199504D01*
X141092500Y-83175000D01*
X141092500Y-81925000D01*
X141093704Y-81900496D01*
X141097304Y-81876227D01*
X141103265Y-81852429D01*
X141111530Y-81829329D01*
X141122020Y-81807151D01*
X141134633Y-81786107D01*
X141149247Y-81766402D01*
X141165723Y-81748223D01*
X141183902Y-81731747D01*
X141203607Y-81717133D01*
X141224651Y-81704520D01*
X141246829Y-81694030D01*
X141269929Y-81685765D01*
X141293727Y-81679804D01*
X141317996Y-81676204D01*
X141342500Y-81675000D01*
X142267500Y-81675000D01*
X142292004Y-81676204D01*
X142292004Y-81676204D01*
G37*
D20*
G04 #@! TD*
G04 #@! TO.P,R10,2*
G04 #@! TO.N,Net-(Q10-Pad3)*
X141805000Y-82550000D03*
D14*
G04 #@! TO.N,Net-(J3-Pad3)*
G04 #@! TO.C,R10*
G36*
X145267004Y-81676204D02*
X145291273Y-81679804D01*
X145315071Y-81685765D01*
X145338171Y-81694030D01*
X145360349Y-81704520D01*
X145381393Y-81717133D01*
X145401098Y-81731747D01*
X145419277Y-81748223D01*
X145435753Y-81766402D01*
X145450367Y-81786107D01*
X145462980Y-81807151D01*
X145473470Y-81829329D01*
X145481735Y-81852429D01*
X145487696Y-81876227D01*
X145491296Y-81900496D01*
X145492500Y-81925000D01*
X145492500Y-83175000D01*
X145491296Y-83199504D01*
X145487696Y-83223773D01*
X145481735Y-83247571D01*
X145473470Y-83270671D01*
X145462980Y-83292849D01*
X145450367Y-83313893D01*
X145435753Y-83333598D01*
X145419277Y-83351777D01*
X145401098Y-83368253D01*
X145381393Y-83382867D01*
X145360349Y-83395480D01*
X145338171Y-83405970D01*
X145315071Y-83414235D01*
X145291273Y-83420196D01*
X145267004Y-83423796D01*
X145242500Y-83425000D01*
X144317500Y-83425000D01*
X144292996Y-83423796D01*
X144268727Y-83420196D01*
X144244929Y-83414235D01*
X144221829Y-83405970D01*
X144199651Y-83395480D01*
X144178607Y-83382867D01*
X144158902Y-83368253D01*
X144140723Y-83351777D01*
X144124247Y-83333598D01*
X144109633Y-83313893D01*
X144097020Y-83292849D01*
X144086530Y-83270671D01*
X144078265Y-83247571D01*
X144072304Y-83223773D01*
X144068704Y-83199504D01*
X144067500Y-83175000D01*
X144067500Y-81925000D01*
X144068704Y-81900496D01*
X144072304Y-81876227D01*
X144078265Y-81852429D01*
X144086530Y-81829329D01*
X144097020Y-81807151D01*
X144109633Y-81786107D01*
X144124247Y-81766402D01*
X144140723Y-81748223D01*
X144158902Y-81731747D01*
X144178607Y-81717133D01*
X144199651Y-81704520D01*
X144221829Y-81694030D01*
X144244929Y-81685765D01*
X144268727Y-81679804D01*
X144292996Y-81676204D01*
X144317500Y-81675000D01*
X145242500Y-81675000D01*
X145267004Y-81676204D01*
X145267004Y-81676204D01*
G37*
D20*
G04 #@! TD*
G04 #@! TO.P,R10,1*
G04 #@! TO.N,Net-(J3-Pad3)*
X144780000Y-82550000D03*
D14*
G04 #@! TO.N,Net-(J3-Pad4)*
G04 #@! TO.C,R11*
G36*
X149239504Y-81838704D02*
X149263773Y-81842304D01*
X149287571Y-81848265D01*
X149310671Y-81856530D01*
X149332849Y-81867020D01*
X149353893Y-81879633D01*
X149373598Y-81894247D01*
X149391777Y-81910723D01*
X149408253Y-81928902D01*
X149422867Y-81948607D01*
X149435480Y-81969651D01*
X149445970Y-81991829D01*
X149454235Y-82014929D01*
X149460196Y-82038727D01*
X149463796Y-82062996D01*
X149465000Y-82087500D01*
X149465000Y-83012500D01*
X149463796Y-83037004D01*
X149460196Y-83061273D01*
X149454235Y-83085071D01*
X149445970Y-83108171D01*
X149435480Y-83130349D01*
X149422867Y-83151393D01*
X149408253Y-83171098D01*
X149391777Y-83189277D01*
X149373598Y-83205753D01*
X149353893Y-83220367D01*
X149332849Y-83232980D01*
X149310671Y-83243470D01*
X149287571Y-83251735D01*
X149263773Y-83257696D01*
X149239504Y-83261296D01*
X149215000Y-83262500D01*
X147965000Y-83262500D01*
X147940496Y-83261296D01*
X147916227Y-83257696D01*
X147892429Y-83251735D01*
X147869329Y-83243470D01*
X147847151Y-83232980D01*
X147826107Y-83220367D01*
X147806402Y-83205753D01*
X147788223Y-83189277D01*
X147771747Y-83171098D01*
X147757133Y-83151393D01*
X147744520Y-83130349D01*
X147734030Y-83108171D01*
X147725765Y-83085071D01*
X147719804Y-83061273D01*
X147716204Y-83037004D01*
X147715000Y-83012500D01*
X147715000Y-82087500D01*
X147716204Y-82062996D01*
X147719804Y-82038727D01*
X147725765Y-82014929D01*
X147734030Y-81991829D01*
X147744520Y-81969651D01*
X147757133Y-81948607D01*
X147771747Y-81928902D01*
X147788223Y-81910723D01*
X147806402Y-81894247D01*
X147826107Y-81879633D01*
X147847151Y-81867020D01*
X147869329Y-81856530D01*
X147892429Y-81848265D01*
X147916227Y-81842304D01*
X147940496Y-81838704D01*
X147965000Y-81837500D01*
X149215000Y-81837500D01*
X149239504Y-81838704D01*
X149239504Y-81838704D01*
G37*
D20*
G04 #@! TD*
G04 #@! TO.P,R11,1*
G04 #@! TO.N,Net-(J3-Pad4)*
X148590000Y-82550000D03*
D14*
G04 #@! TO.N,Net-(Q11-Pad3)*
G04 #@! TO.C,R11*
G36*
X149239504Y-84813704D02*
X149263773Y-84817304D01*
X149287571Y-84823265D01*
X149310671Y-84831530D01*
X149332849Y-84842020D01*
X149353893Y-84854633D01*
X149373598Y-84869247D01*
X149391777Y-84885723D01*
X149408253Y-84903902D01*
X149422867Y-84923607D01*
X149435480Y-84944651D01*
X149445970Y-84966829D01*
X149454235Y-84989929D01*
X149460196Y-85013727D01*
X149463796Y-85037996D01*
X149465000Y-85062500D01*
X149465000Y-85987500D01*
X149463796Y-86012004D01*
X149460196Y-86036273D01*
X149454235Y-86060071D01*
X149445970Y-86083171D01*
X149435480Y-86105349D01*
X149422867Y-86126393D01*
X149408253Y-86146098D01*
X149391777Y-86164277D01*
X149373598Y-86180753D01*
X149353893Y-86195367D01*
X149332849Y-86207980D01*
X149310671Y-86218470D01*
X149287571Y-86226735D01*
X149263773Y-86232696D01*
X149239504Y-86236296D01*
X149215000Y-86237500D01*
X147965000Y-86237500D01*
X147940496Y-86236296D01*
X147916227Y-86232696D01*
X147892429Y-86226735D01*
X147869329Y-86218470D01*
X147847151Y-86207980D01*
X147826107Y-86195367D01*
X147806402Y-86180753D01*
X147788223Y-86164277D01*
X147771747Y-86146098D01*
X147757133Y-86126393D01*
X147744520Y-86105349D01*
X147734030Y-86083171D01*
X147725765Y-86060071D01*
X147719804Y-86036273D01*
X147716204Y-86012004D01*
X147715000Y-85987500D01*
X147715000Y-85062500D01*
X147716204Y-85037996D01*
X147719804Y-85013727D01*
X147725765Y-84989929D01*
X147734030Y-84966829D01*
X147744520Y-84944651D01*
X147757133Y-84923607D01*
X147771747Y-84903902D01*
X147788223Y-84885723D01*
X147806402Y-84869247D01*
X147826107Y-84854633D01*
X147847151Y-84842020D01*
X147869329Y-84831530D01*
X147892429Y-84823265D01*
X147916227Y-84817304D01*
X147940496Y-84813704D01*
X147965000Y-84812500D01*
X149215000Y-84812500D01*
X149239504Y-84813704D01*
X149239504Y-84813704D01*
G37*
D20*
G04 #@! TD*
G04 #@! TO.P,R11,2*
G04 #@! TO.N,Net-(Q11-Pad3)*
X148590000Y-85525000D03*
D14*
G04 #@! TO.N,Net-(Q12-Pad3)*
G04 #@! TO.C,R12*
G36*
X153049504Y-84813704D02*
X153073773Y-84817304D01*
X153097571Y-84823265D01*
X153120671Y-84831530D01*
X153142849Y-84842020D01*
X153163893Y-84854633D01*
X153183598Y-84869247D01*
X153201777Y-84885723D01*
X153218253Y-84903902D01*
X153232867Y-84923607D01*
X153245480Y-84944651D01*
X153255970Y-84966829D01*
X153264235Y-84989929D01*
X153270196Y-85013727D01*
X153273796Y-85037996D01*
X153275000Y-85062500D01*
X153275000Y-85987500D01*
X153273796Y-86012004D01*
X153270196Y-86036273D01*
X153264235Y-86060071D01*
X153255970Y-86083171D01*
X153245480Y-86105349D01*
X153232867Y-86126393D01*
X153218253Y-86146098D01*
X153201777Y-86164277D01*
X153183598Y-86180753D01*
X153163893Y-86195367D01*
X153142849Y-86207980D01*
X153120671Y-86218470D01*
X153097571Y-86226735D01*
X153073773Y-86232696D01*
X153049504Y-86236296D01*
X153025000Y-86237500D01*
X151775000Y-86237500D01*
X151750496Y-86236296D01*
X151726227Y-86232696D01*
X151702429Y-86226735D01*
X151679329Y-86218470D01*
X151657151Y-86207980D01*
X151636107Y-86195367D01*
X151616402Y-86180753D01*
X151598223Y-86164277D01*
X151581747Y-86146098D01*
X151567133Y-86126393D01*
X151554520Y-86105349D01*
X151544030Y-86083171D01*
X151535765Y-86060071D01*
X151529804Y-86036273D01*
X151526204Y-86012004D01*
X151525000Y-85987500D01*
X151525000Y-85062500D01*
X151526204Y-85037996D01*
X151529804Y-85013727D01*
X151535765Y-84989929D01*
X151544030Y-84966829D01*
X151554520Y-84944651D01*
X151567133Y-84923607D01*
X151581747Y-84903902D01*
X151598223Y-84885723D01*
X151616402Y-84869247D01*
X151636107Y-84854633D01*
X151657151Y-84842020D01*
X151679329Y-84831530D01*
X151702429Y-84823265D01*
X151726227Y-84817304D01*
X151750496Y-84813704D01*
X151775000Y-84812500D01*
X153025000Y-84812500D01*
X153049504Y-84813704D01*
X153049504Y-84813704D01*
G37*
D20*
G04 #@! TD*
G04 #@! TO.P,R12,2*
G04 #@! TO.N,Net-(Q12-Pad3)*
X152400000Y-85525000D03*
D14*
G04 #@! TO.N,Net-(J3-Pad5)*
G04 #@! TO.C,R12*
G36*
X153049504Y-81838704D02*
X153073773Y-81842304D01*
X153097571Y-81848265D01*
X153120671Y-81856530D01*
X153142849Y-81867020D01*
X153163893Y-81879633D01*
X153183598Y-81894247D01*
X153201777Y-81910723D01*
X153218253Y-81928902D01*
X153232867Y-81948607D01*
X153245480Y-81969651D01*
X153255970Y-81991829D01*
X153264235Y-82014929D01*
X153270196Y-82038727D01*
X153273796Y-82062996D01*
X153275000Y-82087500D01*
X153275000Y-83012500D01*
X153273796Y-83037004D01*
X153270196Y-83061273D01*
X153264235Y-83085071D01*
X153255970Y-83108171D01*
X153245480Y-83130349D01*
X153232867Y-83151393D01*
X153218253Y-83171098D01*
X153201777Y-83189277D01*
X153183598Y-83205753D01*
X153163893Y-83220367D01*
X153142849Y-83232980D01*
X153120671Y-83243470D01*
X153097571Y-83251735D01*
X153073773Y-83257696D01*
X153049504Y-83261296D01*
X153025000Y-83262500D01*
X151775000Y-83262500D01*
X151750496Y-83261296D01*
X151726227Y-83257696D01*
X151702429Y-83251735D01*
X151679329Y-83243470D01*
X151657151Y-83232980D01*
X151636107Y-83220367D01*
X151616402Y-83205753D01*
X151598223Y-83189277D01*
X151581747Y-83171098D01*
X151567133Y-83151393D01*
X151554520Y-83130349D01*
X151544030Y-83108171D01*
X151535765Y-83085071D01*
X151529804Y-83061273D01*
X151526204Y-83037004D01*
X151525000Y-83012500D01*
X151525000Y-82087500D01*
X151526204Y-82062996D01*
X151529804Y-82038727D01*
X151535765Y-82014929D01*
X151544030Y-81991829D01*
X151554520Y-81969651D01*
X151567133Y-81948607D01*
X151581747Y-81928902D01*
X151598223Y-81910723D01*
X151616402Y-81894247D01*
X151636107Y-81879633D01*
X151657151Y-81867020D01*
X151679329Y-81856530D01*
X151702429Y-81848265D01*
X151726227Y-81842304D01*
X151750496Y-81838704D01*
X151775000Y-81837500D01*
X153025000Y-81837500D01*
X153049504Y-81838704D01*
X153049504Y-81838704D01*
G37*
D20*
G04 #@! TD*
G04 #@! TO.P,R12,1*
G04 #@! TO.N,Net-(J3-Pad5)*
X152400000Y-82550000D03*
D14*
G04 #@! TO.N,Net-(J3-Pad6)*
G04 #@! TO.C,R13*
G36*
X156859504Y-81838704D02*
X156883773Y-81842304D01*
X156907571Y-81848265D01*
X156930671Y-81856530D01*
X156952849Y-81867020D01*
X156973893Y-81879633D01*
X156993598Y-81894247D01*
X157011777Y-81910723D01*
X157028253Y-81928902D01*
X157042867Y-81948607D01*
X157055480Y-81969651D01*
X157065970Y-81991829D01*
X157074235Y-82014929D01*
X157080196Y-82038727D01*
X157083796Y-82062996D01*
X157085000Y-82087500D01*
X157085000Y-83012500D01*
X157083796Y-83037004D01*
X157080196Y-83061273D01*
X157074235Y-83085071D01*
X157065970Y-83108171D01*
X157055480Y-83130349D01*
X157042867Y-83151393D01*
X157028253Y-83171098D01*
X157011777Y-83189277D01*
X156993598Y-83205753D01*
X156973893Y-83220367D01*
X156952849Y-83232980D01*
X156930671Y-83243470D01*
X156907571Y-83251735D01*
X156883773Y-83257696D01*
X156859504Y-83261296D01*
X156835000Y-83262500D01*
X155585000Y-83262500D01*
X155560496Y-83261296D01*
X155536227Y-83257696D01*
X155512429Y-83251735D01*
X155489329Y-83243470D01*
X155467151Y-83232980D01*
X155446107Y-83220367D01*
X155426402Y-83205753D01*
X155408223Y-83189277D01*
X155391747Y-83171098D01*
X155377133Y-83151393D01*
X155364520Y-83130349D01*
X155354030Y-83108171D01*
X155345765Y-83085071D01*
X155339804Y-83061273D01*
X155336204Y-83037004D01*
X155335000Y-83012500D01*
X155335000Y-82087500D01*
X155336204Y-82062996D01*
X155339804Y-82038727D01*
X155345765Y-82014929D01*
X155354030Y-81991829D01*
X155364520Y-81969651D01*
X155377133Y-81948607D01*
X155391747Y-81928902D01*
X155408223Y-81910723D01*
X155426402Y-81894247D01*
X155446107Y-81879633D01*
X155467151Y-81867020D01*
X155489329Y-81856530D01*
X155512429Y-81848265D01*
X155536227Y-81842304D01*
X155560496Y-81838704D01*
X155585000Y-81837500D01*
X156835000Y-81837500D01*
X156859504Y-81838704D01*
X156859504Y-81838704D01*
G37*
D20*
G04 #@! TD*
G04 #@! TO.P,R13,1*
G04 #@! TO.N,Net-(J3-Pad6)*
X156210000Y-82550000D03*
D14*
G04 #@! TO.N,Net-(Q13-Pad3)*
G04 #@! TO.C,R13*
G36*
X156859504Y-84813704D02*
X156883773Y-84817304D01*
X156907571Y-84823265D01*
X156930671Y-84831530D01*
X156952849Y-84842020D01*
X156973893Y-84854633D01*
X156993598Y-84869247D01*
X157011777Y-84885723D01*
X157028253Y-84903902D01*
X157042867Y-84923607D01*
X157055480Y-84944651D01*
X157065970Y-84966829D01*
X157074235Y-84989929D01*
X157080196Y-85013727D01*
X157083796Y-85037996D01*
X157085000Y-85062500D01*
X157085000Y-85987500D01*
X157083796Y-86012004D01*
X157080196Y-86036273D01*
X157074235Y-86060071D01*
X157065970Y-86083171D01*
X157055480Y-86105349D01*
X157042867Y-86126393D01*
X157028253Y-86146098D01*
X157011777Y-86164277D01*
X156993598Y-86180753D01*
X156973893Y-86195367D01*
X156952849Y-86207980D01*
X156930671Y-86218470D01*
X156907571Y-86226735D01*
X156883773Y-86232696D01*
X156859504Y-86236296D01*
X156835000Y-86237500D01*
X155585000Y-86237500D01*
X155560496Y-86236296D01*
X155536227Y-86232696D01*
X155512429Y-86226735D01*
X155489329Y-86218470D01*
X155467151Y-86207980D01*
X155446107Y-86195367D01*
X155426402Y-86180753D01*
X155408223Y-86164277D01*
X155391747Y-86146098D01*
X155377133Y-86126393D01*
X155364520Y-86105349D01*
X155354030Y-86083171D01*
X155345765Y-86060071D01*
X155339804Y-86036273D01*
X155336204Y-86012004D01*
X155335000Y-85987500D01*
X155335000Y-85062500D01*
X155336204Y-85037996D01*
X155339804Y-85013727D01*
X155345765Y-84989929D01*
X155354030Y-84966829D01*
X155364520Y-84944651D01*
X155377133Y-84923607D01*
X155391747Y-84903902D01*
X155408223Y-84885723D01*
X155426402Y-84869247D01*
X155446107Y-84854633D01*
X155467151Y-84842020D01*
X155489329Y-84831530D01*
X155512429Y-84823265D01*
X155536227Y-84817304D01*
X155560496Y-84813704D01*
X155585000Y-84812500D01*
X156835000Y-84812500D01*
X156859504Y-84813704D01*
X156859504Y-84813704D01*
G37*
D20*
G04 #@! TD*
G04 #@! TO.P,R13,2*
G04 #@! TO.N,Net-(Q13-Pad3)*
X156210000Y-85525000D03*
D14*
G04 #@! TO.N,Net-(Q14-Pad3)*
G04 #@! TO.C,R14*
G36*
X154157004Y-88026204D02*
X154181273Y-88029804D01*
X154205071Y-88035765D01*
X154228171Y-88044030D01*
X154250349Y-88054520D01*
X154271393Y-88067133D01*
X154291098Y-88081747D01*
X154309277Y-88098223D01*
X154325753Y-88116402D01*
X154340367Y-88136107D01*
X154352980Y-88157151D01*
X154363470Y-88179329D01*
X154371735Y-88202429D01*
X154377696Y-88226227D01*
X154381296Y-88250496D01*
X154382500Y-88275000D01*
X154382500Y-89525000D01*
X154381296Y-89549504D01*
X154377696Y-89573773D01*
X154371735Y-89597571D01*
X154363470Y-89620671D01*
X154352980Y-89642849D01*
X154340367Y-89663893D01*
X154325753Y-89683598D01*
X154309277Y-89701777D01*
X154291098Y-89718253D01*
X154271393Y-89732867D01*
X154250349Y-89745480D01*
X154228171Y-89755970D01*
X154205071Y-89764235D01*
X154181273Y-89770196D01*
X154157004Y-89773796D01*
X154132500Y-89775000D01*
X153207500Y-89775000D01*
X153182996Y-89773796D01*
X153158727Y-89770196D01*
X153134929Y-89764235D01*
X153111829Y-89755970D01*
X153089651Y-89745480D01*
X153068607Y-89732867D01*
X153048902Y-89718253D01*
X153030723Y-89701777D01*
X153014247Y-89683598D01*
X152999633Y-89663893D01*
X152987020Y-89642849D01*
X152976530Y-89620671D01*
X152968265Y-89597571D01*
X152962304Y-89573773D01*
X152958704Y-89549504D01*
X152957500Y-89525000D01*
X152957500Y-88275000D01*
X152958704Y-88250496D01*
X152962304Y-88226227D01*
X152968265Y-88202429D01*
X152976530Y-88179329D01*
X152987020Y-88157151D01*
X152999633Y-88136107D01*
X153014247Y-88116402D01*
X153030723Y-88098223D01*
X153048902Y-88081747D01*
X153068607Y-88067133D01*
X153089651Y-88054520D01*
X153111829Y-88044030D01*
X153134929Y-88035765D01*
X153158727Y-88029804D01*
X153182996Y-88026204D01*
X153207500Y-88025000D01*
X154132500Y-88025000D01*
X154157004Y-88026204D01*
X154157004Y-88026204D01*
G37*
D20*
G04 #@! TD*
G04 #@! TO.P,R14,2*
G04 #@! TO.N,Net-(Q14-Pad3)*
X153670000Y-88900000D03*
D14*
G04 #@! TO.N,Net-(J3-Pad7)*
G04 #@! TO.C,R14*
G36*
X157132004Y-88026204D02*
X157156273Y-88029804D01*
X157180071Y-88035765D01*
X157203171Y-88044030D01*
X157225349Y-88054520D01*
X157246393Y-88067133D01*
X157266098Y-88081747D01*
X157284277Y-88098223D01*
X157300753Y-88116402D01*
X157315367Y-88136107D01*
X157327980Y-88157151D01*
X157338470Y-88179329D01*
X157346735Y-88202429D01*
X157352696Y-88226227D01*
X157356296Y-88250496D01*
X157357500Y-88275000D01*
X157357500Y-89525000D01*
X157356296Y-89549504D01*
X157352696Y-89573773D01*
X157346735Y-89597571D01*
X157338470Y-89620671D01*
X157327980Y-89642849D01*
X157315367Y-89663893D01*
X157300753Y-89683598D01*
X157284277Y-89701777D01*
X157266098Y-89718253D01*
X157246393Y-89732867D01*
X157225349Y-89745480D01*
X157203171Y-89755970D01*
X157180071Y-89764235D01*
X157156273Y-89770196D01*
X157132004Y-89773796D01*
X157107500Y-89775000D01*
X156182500Y-89775000D01*
X156157996Y-89773796D01*
X156133727Y-89770196D01*
X156109929Y-89764235D01*
X156086829Y-89755970D01*
X156064651Y-89745480D01*
X156043607Y-89732867D01*
X156023902Y-89718253D01*
X156005723Y-89701777D01*
X155989247Y-89683598D01*
X155974633Y-89663893D01*
X155962020Y-89642849D01*
X155951530Y-89620671D01*
X155943265Y-89597571D01*
X155937304Y-89573773D01*
X155933704Y-89549504D01*
X155932500Y-89525000D01*
X155932500Y-88275000D01*
X155933704Y-88250496D01*
X155937304Y-88226227D01*
X155943265Y-88202429D01*
X155951530Y-88179329D01*
X155962020Y-88157151D01*
X155974633Y-88136107D01*
X155989247Y-88116402D01*
X156005723Y-88098223D01*
X156023902Y-88081747D01*
X156043607Y-88067133D01*
X156064651Y-88054520D01*
X156086829Y-88044030D01*
X156109929Y-88035765D01*
X156133727Y-88029804D01*
X156157996Y-88026204D01*
X156182500Y-88025000D01*
X157107500Y-88025000D01*
X157132004Y-88026204D01*
X157132004Y-88026204D01*
G37*
D20*
G04 #@! TD*
G04 #@! TO.P,R14,1*
G04 #@! TO.N,Net-(J3-Pad7)*
X156645000Y-88900000D03*
D14*
G04 #@! TO.N,Net-(J3-Pad8)*
G04 #@! TO.C,R15*
G36*
X160669504Y-81838704D02*
X160693773Y-81842304D01*
X160717571Y-81848265D01*
X160740671Y-81856530D01*
X160762849Y-81867020D01*
X160783893Y-81879633D01*
X160803598Y-81894247D01*
X160821777Y-81910723D01*
X160838253Y-81928902D01*
X160852867Y-81948607D01*
X160865480Y-81969651D01*
X160875970Y-81991829D01*
X160884235Y-82014929D01*
X160890196Y-82038727D01*
X160893796Y-82062996D01*
X160895000Y-82087500D01*
X160895000Y-83012500D01*
X160893796Y-83037004D01*
X160890196Y-83061273D01*
X160884235Y-83085071D01*
X160875970Y-83108171D01*
X160865480Y-83130349D01*
X160852867Y-83151393D01*
X160838253Y-83171098D01*
X160821777Y-83189277D01*
X160803598Y-83205753D01*
X160783893Y-83220367D01*
X160762849Y-83232980D01*
X160740671Y-83243470D01*
X160717571Y-83251735D01*
X160693773Y-83257696D01*
X160669504Y-83261296D01*
X160645000Y-83262500D01*
X159395000Y-83262500D01*
X159370496Y-83261296D01*
X159346227Y-83257696D01*
X159322429Y-83251735D01*
X159299329Y-83243470D01*
X159277151Y-83232980D01*
X159256107Y-83220367D01*
X159236402Y-83205753D01*
X159218223Y-83189277D01*
X159201747Y-83171098D01*
X159187133Y-83151393D01*
X159174520Y-83130349D01*
X159164030Y-83108171D01*
X159155765Y-83085071D01*
X159149804Y-83061273D01*
X159146204Y-83037004D01*
X159145000Y-83012500D01*
X159145000Y-82087500D01*
X159146204Y-82062996D01*
X159149804Y-82038727D01*
X159155765Y-82014929D01*
X159164030Y-81991829D01*
X159174520Y-81969651D01*
X159187133Y-81948607D01*
X159201747Y-81928902D01*
X159218223Y-81910723D01*
X159236402Y-81894247D01*
X159256107Y-81879633D01*
X159277151Y-81867020D01*
X159299329Y-81856530D01*
X159322429Y-81848265D01*
X159346227Y-81842304D01*
X159370496Y-81838704D01*
X159395000Y-81837500D01*
X160645000Y-81837500D01*
X160669504Y-81838704D01*
X160669504Y-81838704D01*
G37*
D20*
G04 #@! TD*
G04 #@! TO.P,R15,1*
G04 #@! TO.N,Net-(J3-Pad8)*
X160020000Y-82550000D03*
D14*
G04 #@! TO.N,Net-(Q15-Pad3)*
G04 #@! TO.C,R15*
G36*
X160669504Y-84813704D02*
X160693773Y-84817304D01*
X160717571Y-84823265D01*
X160740671Y-84831530D01*
X160762849Y-84842020D01*
X160783893Y-84854633D01*
X160803598Y-84869247D01*
X160821777Y-84885723D01*
X160838253Y-84903902D01*
X160852867Y-84923607D01*
X160865480Y-84944651D01*
X160875970Y-84966829D01*
X160884235Y-84989929D01*
X160890196Y-85013727D01*
X160893796Y-85037996D01*
X160895000Y-85062500D01*
X160895000Y-85987500D01*
X160893796Y-86012004D01*
X160890196Y-86036273D01*
X160884235Y-86060071D01*
X160875970Y-86083171D01*
X160865480Y-86105349D01*
X160852867Y-86126393D01*
X160838253Y-86146098D01*
X160821777Y-86164277D01*
X160803598Y-86180753D01*
X160783893Y-86195367D01*
X160762849Y-86207980D01*
X160740671Y-86218470D01*
X160717571Y-86226735D01*
X160693773Y-86232696D01*
X160669504Y-86236296D01*
X160645000Y-86237500D01*
X159395000Y-86237500D01*
X159370496Y-86236296D01*
X159346227Y-86232696D01*
X159322429Y-86226735D01*
X159299329Y-86218470D01*
X159277151Y-86207980D01*
X159256107Y-86195367D01*
X159236402Y-86180753D01*
X159218223Y-86164277D01*
X159201747Y-86146098D01*
X159187133Y-86126393D01*
X159174520Y-86105349D01*
X159164030Y-86083171D01*
X159155765Y-86060071D01*
X159149804Y-86036273D01*
X159146204Y-86012004D01*
X159145000Y-85987500D01*
X159145000Y-85062500D01*
X159146204Y-85037996D01*
X159149804Y-85013727D01*
X159155765Y-84989929D01*
X159164030Y-84966829D01*
X159174520Y-84944651D01*
X159187133Y-84923607D01*
X159201747Y-84903902D01*
X159218223Y-84885723D01*
X159236402Y-84869247D01*
X159256107Y-84854633D01*
X159277151Y-84842020D01*
X159299329Y-84831530D01*
X159322429Y-84823265D01*
X159346227Y-84817304D01*
X159370496Y-84813704D01*
X159395000Y-84812500D01*
X160645000Y-84812500D01*
X160669504Y-84813704D01*
X160669504Y-84813704D01*
G37*
D20*
G04 #@! TD*
G04 #@! TO.P,R15,2*
G04 #@! TO.N,Net-(Q15-Pad3)*
X160020000Y-85525000D03*
D14*
G04 #@! TO.N,Net-(Q16-Pad3)*
G04 #@! TO.C,R16*
G36*
X164479504Y-84813704D02*
X164503773Y-84817304D01*
X164527571Y-84823265D01*
X164550671Y-84831530D01*
X164572849Y-84842020D01*
X164593893Y-84854633D01*
X164613598Y-84869247D01*
X164631777Y-84885723D01*
X164648253Y-84903902D01*
X164662867Y-84923607D01*
X164675480Y-84944651D01*
X164685970Y-84966829D01*
X164694235Y-84989929D01*
X164700196Y-85013727D01*
X164703796Y-85037996D01*
X164705000Y-85062500D01*
X164705000Y-85987500D01*
X164703796Y-86012004D01*
X164700196Y-86036273D01*
X164694235Y-86060071D01*
X164685970Y-86083171D01*
X164675480Y-86105349D01*
X164662867Y-86126393D01*
X164648253Y-86146098D01*
X164631777Y-86164277D01*
X164613598Y-86180753D01*
X164593893Y-86195367D01*
X164572849Y-86207980D01*
X164550671Y-86218470D01*
X164527571Y-86226735D01*
X164503773Y-86232696D01*
X164479504Y-86236296D01*
X164455000Y-86237500D01*
X163205000Y-86237500D01*
X163180496Y-86236296D01*
X163156227Y-86232696D01*
X163132429Y-86226735D01*
X163109329Y-86218470D01*
X163087151Y-86207980D01*
X163066107Y-86195367D01*
X163046402Y-86180753D01*
X163028223Y-86164277D01*
X163011747Y-86146098D01*
X162997133Y-86126393D01*
X162984520Y-86105349D01*
X162974030Y-86083171D01*
X162965765Y-86060071D01*
X162959804Y-86036273D01*
X162956204Y-86012004D01*
X162955000Y-85987500D01*
X162955000Y-85062500D01*
X162956204Y-85037996D01*
X162959804Y-85013727D01*
X162965765Y-84989929D01*
X162974030Y-84966829D01*
X162984520Y-84944651D01*
X162997133Y-84923607D01*
X163011747Y-84903902D01*
X163028223Y-84885723D01*
X163046402Y-84869247D01*
X163066107Y-84854633D01*
X163087151Y-84842020D01*
X163109329Y-84831530D01*
X163132429Y-84823265D01*
X163156227Y-84817304D01*
X163180496Y-84813704D01*
X163205000Y-84812500D01*
X164455000Y-84812500D01*
X164479504Y-84813704D01*
X164479504Y-84813704D01*
G37*
D20*
G04 #@! TD*
G04 #@! TO.P,R16,2*
G04 #@! TO.N,Net-(Q16-Pad3)*
X163830000Y-85525000D03*
D14*
G04 #@! TO.N,Net-(J3-Pad9)*
G04 #@! TO.C,R16*
G36*
X164479504Y-81838704D02*
X164503773Y-81842304D01*
X164527571Y-81848265D01*
X164550671Y-81856530D01*
X164572849Y-81867020D01*
X164593893Y-81879633D01*
X164613598Y-81894247D01*
X164631777Y-81910723D01*
X164648253Y-81928902D01*
X164662867Y-81948607D01*
X164675480Y-81969651D01*
X164685970Y-81991829D01*
X164694235Y-82014929D01*
X164700196Y-82038727D01*
X164703796Y-82062996D01*
X164705000Y-82087500D01*
X164705000Y-83012500D01*
X164703796Y-83037004D01*
X164700196Y-83061273D01*
X164694235Y-83085071D01*
X164685970Y-83108171D01*
X164675480Y-83130349D01*
X164662867Y-83151393D01*
X164648253Y-83171098D01*
X164631777Y-83189277D01*
X164613598Y-83205753D01*
X164593893Y-83220367D01*
X164572849Y-83232980D01*
X164550671Y-83243470D01*
X164527571Y-83251735D01*
X164503773Y-83257696D01*
X164479504Y-83261296D01*
X164455000Y-83262500D01*
X163205000Y-83262500D01*
X163180496Y-83261296D01*
X163156227Y-83257696D01*
X163132429Y-83251735D01*
X163109329Y-83243470D01*
X163087151Y-83232980D01*
X163066107Y-83220367D01*
X163046402Y-83205753D01*
X163028223Y-83189277D01*
X163011747Y-83171098D01*
X162997133Y-83151393D01*
X162984520Y-83130349D01*
X162974030Y-83108171D01*
X162965765Y-83085071D01*
X162959804Y-83061273D01*
X162956204Y-83037004D01*
X162955000Y-83012500D01*
X162955000Y-82087500D01*
X162956204Y-82062996D01*
X162959804Y-82038727D01*
X162965765Y-82014929D01*
X162974030Y-81991829D01*
X162984520Y-81969651D01*
X162997133Y-81948607D01*
X163011747Y-81928902D01*
X163028223Y-81910723D01*
X163046402Y-81894247D01*
X163066107Y-81879633D01*
X163087151Y-81867020D01*
X163109329Y-81856530D01*
X163132429Y-81848265D01*
X163156227Y-81842304D01*
X163180496Y-81838704D01*
X163205000Y-81837500D01*
X164455000Y-81837500D01*
X164479504Y-81838704D01*
X164479504Y-81838704D01*
G37*
D20*
G04 #@! TD*
G04 #@! TO.P,R16,1*
G04 #@! TO.N,Net-(J3-Pad9)*
X163830000Y-82550000D03*
D13*
G04 #@! TO.P,U3,16*
G04 #@! TO.N,VCC*
X133350000Y-86360000D03*
G04 #@! TO.P,U3,8*
G04 #@! TO.N,GND*
X115570000Y-78740000D03*
G04 #@! TO.P,U3,15*
G04 #@! TO.N,A2*
X130810000Y-86360000D03*
G04 #@! TO.P,U3,7*
G04 #@! TO.N,H2*
X118110000Y-78740000D03*
G04 #@! TO.P,U3,14*
G04 #@! TO.N,Net-(U2-Pad9)*
X128270000Y-86360000D03*
G04 #@! TO.P,U3,6*
G04 #@! TO.N,G2*
X120650000Y-78740000D03*
G04 #@! TO.P,U3,13*
G04 #@! TO.N,Net-(J1-Pad4)*
X125730000Y-86360000D03*
G04 #@! TO.P,U3,5*
G04 #@! TO.N,F2*
X123190000Y-78740000D03*
G04 #@! TO.P,U3,12*
G04 #@! TO.N,Net-(J1-Pad5)*
X123190000Y-86360000D03*
G04 #@! TO.P,U3,4*
G04 #@! TO.N,E2*
X125730000Y-78740000D03*
G04 #@! TO.P,U3,11*
G04 #@! TO.N,Net-(J1-Pad7)*
X120650000Y-86360000D03*
G04 #@! TO.P,U3,3*
G04 #@! TO.N,D2*
X128270000Y-78740000D03*
G04 #@! TO.P,U3,10*
G04 #@! TO.N,Net-(J1-Pad6)*
X118110000Y-86360000D03*
G04 #@! TO.P,U3,2*
G04 #@! TO.N,C2*
X130810000Y-78740000D03*
G04 #@! TO.P,U3,9*
G04 #@! TO.N,Net-(J1-Pad2)*
X115570000Y-86360000D03*
D12*
G04 #@! TO.P,U3,1*
G04 #@! TO.N,B2*
X133350000Y-78740000D03*
G04 #@! TD*
D21*
G04 #@! TO.N,GND*
X132080000Y-95250000D03*
X139700000Y-82550000D03*
G04 #@! TO.N,Net-(J3-Pad2)*
X144780000Y-93980000D03*
G04 #@! TD*
D22*
G04 #@! TO.N,Net-(C1-Pad2)*
X110490000Y-99060000D02*
X110490000Y-104140000D01*
X110537500Y-104140000D02*
X114347500Y-107950000D01*
X110490000Y-104140000D02*
X110537500Y-104140000D01*
X118415000Y-107950000D02*
X120955000Y-110490000D01*
X114347500Y-107950000D02*
X118415000Y-107950000D01*
G04 #@! TO.N,GND*
X110490000Y-78740000D02*
X115570000Y-78740000D01*
X110537500Y-106680000D02*
X110490000Y-106680000D01*
X115570000Y-109220000D02*
X113077500Y-109220000D01*
X113077500Y-109220000D02*
X110537500Y-106680000D01*
X116840000Y-110490000D02*
X115570000Y-109220000D01*
X116840000Y-110490000D02*
X116357500Y-110490000D01*
X119380000Y-110490000D02*
X116840000Y-110490000D01*
X121600000Y-112710000D02*
X119380000Y-110490000D01*
X126000000Y-112710000D02*
X121600000Y-112710000D01*
X132550001Y-107479999D02*
X133350000Y-106680000D01*
X132224999Y-107805001D02*
X132550001Y-107479999D01*
X130519997Y-107805001D02*
X132224999Y-107805001D01*
X126700000Y-111624998D02*
X130519997Y-107805001D01*
X126700000Y-112060000D02*
X126700000Y-111624998D01*
X126050000Y-112710000D02*
X126700000Y-112060000D01*
X126000000Y-112710000D02*
X126050000Y-112710000D01*
X136430000Y-106980000D02*
X136430000Y-107630000D01*
X136130000Y-106680000D02*
X136430000Y-106980000D01*
X133350000Y-106680000D02*
X136130000Y-106680000D01*
X137130000Y-106980000D02*
X136480000Y-107630000D01*
X137130000Y-106544998D02*
X137130000Y-106980000D01*
X138219989Y-105455009D02*
X137130000Y-106544998D01*
X139285009Y-105455009D02*
X138219989Y-105455009D01*
X141460000Y-107630000D02*
X139285009Y-105455009D01*
X136480000Y-107630000D02*
X136430000Y-107630000D01*
X141510000Y-107630000D02*
X141460000Y-107630000D01*
X142285001Y-106904999D02*
X141560000Y-107630000D01*
X141940000Y-103820000D02*
X142285001Y-104165001D01*
X141560000Y-107630000D02*
X141510000Y-107630000D01*
X142285001Y-104165001D02*
X142285001Y-106904999D01*
X141240000Y-103820000D02*
X141940000Y-103820000D01*
X141940000Y-103170000D02*
X141290000Y-103820000D01*
X141940000Y-102734998D02*
X141940000Y-103170000D01*
X143394998Y-101280000D02*
X141940000Y-102734998D01*
X141290000Y-103820000D02*
X141240000Y-103820000D01*
X145320000Y-101280000D02*
X143394998Y-101280000D01*
X154715001Y-97835001D02*
X153990000Y-97110000D01*
X156255001Y-97835001D02*
X154715001Y-97835001D01*
X157800000Y-99380000D02*
X156255001Y-97835001D01*
X157800000Y-100870000D02*
X157800000Y-99380000D01*
X153990000Y-97110000D02*
X153990000Y-97060000D01*
X153340000Y-97760000D02*
X153990000Y-97110000D01*
X153340000Y-102125690D02*
X153340000Y-97760000D01*
X152665680Y-102800010D02*
X153340000Y-102125690D01*
X151264320Y-102800010D02*
X152665680Y-102800010D01*
X149744310Y-101280000D02*
X151264320Y-102800010D01*
X145320000Y-101280000D02*
X149744310Y-101280000D01*
X162880000Y-99125002D02*
X162880000Y-97760000D01*
X160360001Y-101645001D02*
X162880000Y-99125002D01*
X158525001Y-101645001D02*
X160360001Y-101645001D01*
X162880000Y-97760000D02*
X162880000Y-97060000D01*
X157800000Y-100920000D02*
X158525001Y-101645001D01*
X157800000Y-100870000D02*
X157800000Y-100920000D01*
X164780000Y-90850000D02*
X164780000Y-90900000D01*
X163605001Y-89675001D02*
X164780000Y-90850000D01*
X161619997Y-89675001D02*
X163605001Y-89675001D01*
X159700000Y-91594998D02*
X161619997Y-89675001D01*
X159700000Y-93710000D02*
X159700000Y-91594998D01*
X164780000Y-90900000D02*
X164780000Y-94930000D01*
X162880000Y-97110000D02*
X162880000Y-97060000D01*
X163605001Y-97835001D02*
X162880000Y-97110000D01*
X165440001Y-97835001D02*
X163605001Y-97835001D01*
X165505001Y-97770001D02*
X165440001Y-97835001D01*
X165505001Y-95655001D02*
X165505001Y-97770001D01*
X164780000Y-94930000D02*
X165505001Y-95655001D01*
X159499978Y-92809978D02*
X159700000Y-93010000D01*
X157265020Y-92809978D02*
X159499978Y-92809978D01*
X156414998Y-93660000D02*
X157265020Y-92809978D01*
X159700000Y-93010000D02*
X159700000Y-93710000D01*
X152940000Y-93660000D02*
X156414998Y-93660000D01*
X148560000Y-91120000D02*
X147860000Y-91120000D01*
X148738587Y-91120000D02*
X148560000Y-91120000D01*
X150628587Y-93010000D02*
X148738587Y-91120000D01*
X152940000Y-93660000D02*
X152890000Y-93660000D01*
X152890000Y-93660000D02*
X152240000Y-93010000D01*
X152240000Y-93010000D02*
X150628587Y-93010000D01*
X139020000Y-87310000D02*
X138970000Y-87310000D01*
X139670000Y-86660000D02*
X139020000Y-87310000D01*
X139670000Y-86224998D02*
X139670000Y-86660000D01*
X140259999Y-85634999D02*
X139670000Y-86224998D01*
X142324999Y-85634999D02*
X140259999Y-85634999D01*
X144000000Y-87310000D02*
X142324999Y-85634999D01*
X144050000Y-87310000D02*
X144000000Y-87310000D01*
X135160000Y-96200000D02*
X133030000Y-96200000D01*
X133030000Y-96200000D02*
X132080000Y-95250000D01*
X139340000Y-82550000D02*
X139700000Y-82550000D01*
X136430000Y-79690000D02*
X136480000Y-79690000D01*
X136480000Y-79690000D02*
X139340000Y-82550000D01*
X155607490Y-91152448D02*
X157265020Y-92809978D01*
X155607490Y-88028200D02*
X155607490Y-91152448D01*
X144050000Y-87310000D02*
X148705690Y-87310000D01*
X148705690Y-87310000D02*
X151528200Y-84487490D01*
X151528200Y-84487490D02*
X157073180Y-84487490D01*
X157073180Y-84487490D02*
X157480000Y-84894310D01*
X157480000Y-84894310D02*
X157480000Y-86155690D01*
X157480000Y-86155690D02*
X155607490Y-88028200D01*
X137160000Y-78495002D02*
X138185002Y-77470000D01*
X136480000Y-79690000D02*
X137160000Y-79010000D01*
X137160000Y-79010000D02*
X137160000Y-78495002D01*
X144100000Y-87310000D02*
X144050000Y-87310000D01*
X144825001Y-86584999D02*
X144100000Y-87310000D01*
X144825001Y-84495691D02*
X144825001Y-86584999D01*
X143742490Y-83413180D02*
X144825001Y-84495691D01*
X143742490Y-82586800D02*
X143742490Y-83413180D01*
X138625690Y-77470000D02*
X143742490Y-82586800D01*
X138185002Y-77470000D02*
X138625690Y-77470000D01*
G04 #@! TO.N,VCC*
X113030000Y-96520000D02*
X115570000Y-99060000D01*
X110490000Y-96520000D02*
X113030000Y-96520000D01*
X115570000Y-100191370D02*
X115570000Y-99060000D01*
X110490000Y-109220000D02*
X110537500Y-109220000D01*
X109640001Y-97369999D02*
X110490000Y-96520000D01*
X109164990Y-97845010D02*
X109640001Y-97369999D01*
X109164990Y-107942490D02*
X109164990Y-97845010D01*
X110442500Y-109220000D02*
X109164990Y-107942490D01*
X110490000Y-109220000D02*
X110442500Y-109220000D01*
X110490000Y-110422500D02*
X110490000Y-109220000D01*
X110557500Y-110490000D02*
X110490000Y-110422500D01*
X114782500Y-110490000D02*
X110557500Y-110490000D01*
G04 #@! TO.N,Net-(J1-Pad7)*
X113030000Y-93980000D02*
X120650000Y-86360000D01*
X110490000Y-93980000D02*
X113030000Y-93980000D01*
G04 #@! TO.N,Net-(J1-Pad6)*
X112115011Y-89814989D02*
X112115011Y-87274989D01*
X110490000Y-91440000D02*
X112115011Y-89814989D01*
X112115011Y-87274989D02*
X114300000Y-85090000D01*
X116840000Y-85090000D02*
X118110000Y-86360000D01*
X114300000Y-85090000D02*
X116840000Y-85090000D01*
X126855001Y-95105001D02*
X126855001Y-85819999D01*
X121733600Y-83000011D02*
X120833581Y-82099991D01*
X124035013Y-83000011D02*
X121733600Y-83000011D01*
X126855001Y-85819999D02*
X124035013Y-83000011D01*
X130810000Y-99060000D02*
X126855001Y-95105001D01*
X109925999Y-85184999D02*
X109220000Y-85890998D01*
X110864003Y-85184999D02*
X109925999Y-85184999D01*
X120833581Y-82099991D02*
X113949011Y-82099991D01*
X113949011Y-82099991D02*
X110864003Y-85184999D01*
X109640001Y-90590001D02*
X110490000Y-91440000D01*
X109220000Y-90170000D02*
X109640001Y-90590001D01*
X109220000Y-85890998D02*
X109220000Y-90170000D01*
G04 #@! TO.N,Net-(J1-Pad5)*
X111665001Y-87724999D02*
X111665001Y-86454999D01*
X110490000Y-88900000D02*
X111665001Y-87724999D01*
X111665001Y-86454999D02*
X114300000Y-83820000D01*
X120650000Y-83820000D02*
X123190000Y-86360000D01*
X114300000Y-83820000D02*
X120650000Y-83820000D01*
X122064999Y-87485001D02*
X122064999Y-99600001D01*
X124930001Y-99859999D02*
X125730000Y-99060000D01*
X122794998Y-100330000D02*
X123823590Y-100330000D01*
X123190000Y-86360000D02*
X122064999Y-87485001D01*
X124293591Y-99859999D02*
X124930001Y-99859999D01*
X122064999Y-99600001D02*
X122794998Y-100330000D01*
X123823590Y-100330000D02*
X124293591Y-99859999D01*
G04 #@! TO.N,Net-(J1-Pad4)*
X125730000Y-96520000D02*
X123190000Y-99060000D01*
X125730000Y-86360000D02*
X125730000Y-96520000D01*
X124930001Y-85560001D02*
X125730000Y-86360000D01*
X114299998Y-82550002D02*
X120647181Y-82550002D01*
X122820022Y-83450022D02*
X124930001Y-85560001D01*
X120647181Y-82550002D02*
X121547200Y-83450022D01*
X110490000Y-86360000D02*
X114299998Y-82550002D01*
X121547200Y-83450022D02*
X122820022Y-83450022D01*
G04 #@! TO.N,Net-(J1-Pad3)*
X109640001Y-84669999D02*
X110490000Y-83820000D01*
X108769991Y-85540009D02*
X109640001Y-84669999D01*
X108769991Y-93998993D02*
X108769991Y-85540009D01*
X116745001Y-95155001D02*
X109925999Y-95155001D01*
X109925999Y-95155001D02*
X108769991Y-93998993D01*
X120650000Y-99060000D02*
X116745001Y-95155001D01*
G04 #@! TO.N,Net-(J2-Pad2)*
X163830000Y-104140000D02*
X163830000Y-105410000D01*
X161290000Y-107950000D02*
X161290000Y-111760000D01*
X163830000Y-105410000D02*
X161290000Y-107950000D01*
G04 #@! TO.N,Net-(J2-Pad3)*
X160020000Y-110490000D02*
X158750000Y-111760000D01*
X160020000Y-107950000D02*
X160020000Y-110490000D01*
G04 #@! TO.N,Net-(J2-Pad4)*
X156210000Y-111760000D02*
X156210000Y-107950000D01*
G04 #@! TO.N,Net-(J2-Pad5)*
X154940000Y-101600000D02*
X153670000Y-102870000D01*
X153670000Y-102870000D02*
X153670000Y-111760000D01*
G04 #@! TO.N,Net-(J2-Pad6)*
X151130000Y-107950000D02*
X151130000Y-111760000D01*
G04 #@! TO.N,Net-(J2-Pad7)*
X147320000Y-110490000D02*
X148590000Y-111760000D01*
X147320000Y-107950000D02*
X147320000Y-110490000D01*
G04 #@! TO.N,Net-(J2-Pad8)*
X144780000Y-110490000D02*
X146050000Y-111760000D01*
X140135000Y-110490000D02*
X144780000Y-110490000D01*
G04 #@! TO.N,Net-(J2-Pad9)*
X140135000Y-111760000D02*
X143510000Y-111760000D01*
X133785000Y-111760000D02*
X140970000Y-111760000D01*
X140970000Y-111760000D02*
X143510000Y-111760000D01*
G04 #@! TO.N,Net-(J3-Pad2)*
X143510000Y-93980000D02*
X144780000Y-93980000D01*
G04 #@! TO.N,Net-(J3-Pad3)*
X144780000Y-82550000D02*
X148590000Y-78740000D01*
G04 #@! TO.N,Net-(J3-Pad4)*
X148590000Y-81280000D02*
X151130000Y-78740000D01*
X148590000Y-82550000D02*
X148590000Y-81280000D01*
G04 #@! TO.N,Net-(J3-Pad5)*
X152400000Y-80010000D02*
X153670000Y-78740000D01*
X152400000Y-82550000D02*
X152400000Y-80010000D01*
G04 #@! TO.N,Net-(J3-Pad6)*
X156210000Y-82550000D02*
X156210000Y-78740000D01*
G04 #@! TO.N,Net-(J3-Pad7)*
X158750000Y-79942081D02*
X158750000Y-78740000D01*
X156645000Y-87925000D02*
X158750000Y-85820000D01*
X158750000Y-85820000D02*
X158750000Y-79942081D01*
X156645000Y-88900000D02*
X156645000Y-87925000D01*
G04 #@! TO.N,Net-(J3-Pad8)*
X160020000Y-80010000D02*
X161290000Y-78740000D01*
X160020000Y-82550000D02*
X160020000Y-80010000D01*
G04 #@! TO.N,Net-(J3-Pad9)*
X163830000Y-82550000D02*
X163830000Y-78740000D01*
G04 #@! TO.N,Net-(Q1-Pad3)*
X163830000Y-101165000D02*
X163830000Y-99060000D01*
G04 #@! TO.N,A1*
X164780000Y-97060000D02*
X164780000Y-97010000D01*
X164780000Y-97010000D02*
X163154980Y-95384980D01*
X152901430Y-95384980D02*
X152216420Y-96069990D01*
X152216420Y-96069990D02*
X141420010Y-96069990D01*
X118909999Y-99859999D02*
X118110000Y-99060000D01*
X163154980Y-95384980D02*
X152901430Y-95384980D01*
X141420010Y-96069990D02*
X135890000Y-101600000D01*
X135890000Y-101600000D02*
X120650000Y-101600000D01*
X120650000Y-101600000D02*
X118909999Y-99859999D01*
G04 #@! TO.N,Net-(Q2-Pad3)*
X158750000Y-103705000D02*
X160020000Y-104975000D01*
X158750000Y-102870000D02*
X158750000Y-103705000D01*
G04 #@! TO.N,B1*
X137346400Y-102050011D02*
X142876410Y-96520001D01*
X119149989Y-102050011D02*
X137346400Y-102050011D01*
X153087830Y-95834991D02*
X156099993Y-95834991D01*
X142876410Y-96520001D02*
X152402820Y-96520001D01*
X115570000Y-106680000D02*
X115570000Y-105630000D01*
X152402820Y-96520001D02*
X153087830Y-95834991D01*
X115570000Y-105630000D02*
X119149989Y-102050011D01*
X156099993Y-95834991D02*
X159700000Y-99434998D01*
X159700000Y-99434998D02*
X159700000Y-100170000D01*
X159700000Y-100170000D02*
X159700000Y-100870000D01*
G04 #@! TO.N,C1*
X122289978Y-102500022D02*
X118909999Y-105880001D01*
X155165000Y-96285000D02*
X153329998Y-96285000D01*
X153329998Y-96285000D02*
X151869999Y-97744999D01*
X142287823Y-97744999D02*
X137532800Y-102500022D01*
X155890000Y-97010000D02*
X155165000Y-96285000D01*
X155890000Y-97060000D02*
X155890000Y-97010000D01*
X151869999Y-97744999D02*
X142287823Y-97744999D01*
X118909999Y-105880001D02*
X118110000Y-106680000D01*
X137532800Y-102500022D02*
X122289978Y-102500022D01*
G04 #@! TO.N,Net-(Q3-Pad3)*
X155590000Y-99060000D02*
X154940000Y-99060000D01*
X156210000Y-99680000D02*
X155590000Y-99060000D01*
X156210000Y-104975000D02*
X156210000Y-99680000D01*
G04 #@! TO.N,D1*
X145320000Y-99380000D02*
X141920000Y-99380000D01*
X141920000Y-99380000D02*
X138349969Y-102950031D01*
X124379969Y-102950031D02*
X121449999Y-105880001D01*
X121449999Y-105880001D02*
X120650000Y-106680000D01*
X138349969Y-102950031D02*
X124379969Y-102950031D01*
G04 #@! TO.N,Net-(Q4-Pad3)*
X150695000Y-100330000D02*
X151965000Y-101600000D01*
X147320000Y-100330000D02*
X150695000Y-100330000D01*
G04 #@! TO.N,Net-(Q5-Pad3)*
X149025000Y-102870000D02*
X151130000Y-104975000D01*
X143240000Y-102870000D02*
X149025000Y-102870000D01*
G04 #@! TO.N,E1*
X141190000Y-101920000D02*
X139700000Y-103410000D01*
X141240000Y-101920000D02*
X141190000Y-101920000D01*
X141190000Y-101920000D02*
X138970000Y-104140000D01*
X138970000Y-104140000D02*
X127000000Y-104140000D01*
X127000000Y-104140000D02*
X125730000Y-105410000D01*
X124460000Y-105410000D02*
X123190000Y-106680000D01*
X125730000Y-105410000D02*
X124460000Y-105410000D01*
G04 #@! TO.N,F1*
X126529999Y-105880001D02*
X125730000Y-106680000D01*
X127405001Y-105004999D02*
X126529999Y-105880001D01*
X140084999Y-105004999D02*
X127405001Y-105004999D01*
X140810000Y-105730000D02*
X140084999Y-105004999D01*
X141510000Y-105730000D02*
X140810000Y-105730000D01*
G04 #@! TO.N,Net-(Q6-Pad3)*
X147320000Y-104975000D02*
X145615000Y-106680000D01*
X145615000Y-106680000D02*
X143510000Y-106680000D01*
G04 #@! TO.N,Net-(Q7-Pad3)*
X138430000Y-109220000D02*
X137160000Y-110490000D01*
X138430000Y-106680000D02*
X138430000Y-109220000D01*
G04 #@! TO.N,G1*
X135554999Y-105554999D02*
X129395001Y-105554999D01*
X135730000Y-105730000D02*
X135554999Y-105554999D01*
X129069999Y-105880001D02*
X128270000Y-106680000D01*
X129395001Y-105554999D02*
X129069999Y-105880001D01*
X136430000Y-105730000D02*
X135730000Y-105730000D01*
G04 #@! TO.N,H1*
X130010001Y-107479999D02*
X130810000Y-106680000D01*
X126680000Y-110810000D02*
X130010001Y-107479999D01*
X126000000Y-110810000D02*
X126680000Y-110810000D01*
G04 #@! TO.N,Net-(Q8-Pad3)*
X130810000Y-111760000D02*
X128000000Y-111760000D01*
G04 #@! TO.N,Net-(Q9-Pad3)*
X139265000Y-95250000D02*
X140535000Y-93980000D01*
X137160000Y-95250000D02*
X139265000Y-95250000D01*
G04 #@! TO.N,A2*
X135110000Y-94300000D02*
X129540000Y-88730000D01*
X135160000Y-94300000D02*
X135110000Y-94300000D01*
X129540000Y-87630000D02*
X130810000Y-86360000D01*
X129540000Y-88730000D02*
X129540000Y-87630000D01*
G04 #@! TO.N,Net-(Q10-Pad3)*
X141805000Y-82065000D02*
X141805000Y-82550000D01*
X138480000Y-78740000D02*
X141805000Y-82065000D01*
X138430000Y-78740000D02*
X138480000Y-78740000D01*
G04 #@! TO.N,B2*
X136130000Y-78740000D02*
X136430000Y-78440000D01*
X136430000Y-78440000D02*
X136430000Y-77790000D01*
X133350000Y-78740000D02*
X136130000Y-78740000D01*
G04 #@! TO.N,C2*
X141690010Y-83750010D02*
X143350000Y-85410000D01*
X143350000Y-85410000D02*
X144050000Y-85410000D01*
X135820010Y-83750010D02*
X141690010Y-83750010D01*
X130810000Y-78740000D02*
X135820010Y-83750010D01*
G04 #@! TO.N,Net-(Q11-Pad3)*
X147755000Y-86360000D02*
X148590000Y-85525000D01*
X146050000Y-86360000D02*
X147755000Y-86360000D01*
G04 #@! TO.N,D2*
X136271410Y-85410000D02*
X138270000Y-85410000D01*
X138270000Y-85410000D02*
X138970000Y-85410000D01*
X130729967Y-81199967D02*
X132061377Y-81199967D01*
X128270000Y-78740000D02*
X130729967Y-81199967D01*
X132061377Y-81199967D02*
X136271410Y-85410000D01*
G04 #@! TO.N,Net-(Q12-Pad3)*
X151628653Y-86296347D02*
X152400000Y-85525000D01*
X149889999Y-88035001D02*
X151628653Y-86296347D01*
X143345001Y-88035001D02*
X149889999Y-88035001D01*
X141670000Y-86360000D02*
X143345001Y-88035001D01*
X140970000Y-86360000D02*
X141670000Y-86360000D01*
G04 #@! TO.N,Net-(Q13-Pad3)*
X149860000Y-90170000D02*
X149910000Y-90170000D01*
X149910000Y-90170000D02*
X150560000Y-89520000D01*
X155235000Y-85525000D02*
X156210000Y-85525000D01*
X150560000Y-89520000D02*
X150942100Y-89520000D01*
X154937100Y-85525000D02*
X155235000Y-85525000D01*
X150942100Y-89520000D02*
X154937100Y-85525000D01*
G04 #@! TO.N,E2*
X125730000Y-78740000D02*
X128639978Y-81649978D01*
X128639978Y-81649978D02*
X131874977Y-81649978D01*
X139444999Y-89220000D02*
X147160000Y-89220000D01*
X147160000Y-89220000D02*
X147860000Y-89220000D01*
X131874977Y-81649978D02*
X139444999Y-89220000D01*
G04 #@! TO.N,F2*
X131688577Y-82099989D02*
X140128566Y-90539978D01*
X148649996Y-90394999D02*
X149149998Y-90895001D01*
X123190000Y-78740000D02*
X126549989Y-82099989D01*
X151375001Y-90895001D02*
X152240000Y-91760000D01*
X147149999Y-90394999D02*
X148649996Y-90394999D01*
X147005020Y-90539978D02*
X147149999Y-90394999D01*
X149149998Y-90895001D02*
X151375001Y-90895001D01*
X140128566Y-90539978D02*
X147005020Y-90539978D01*
X152240000Y-91760000D02*
X152940000Y-91760000D01*
X126549989Y-82099989D02*
X131688577Y-82099989D01*
G04 #@! TO.N,Net-(Q14-Pad3)*
X154940000Y-90170000D02*
X153670000Y-88900000D01*
X154940000Y-92710000D02*
X154940000Y-90170000D01*
G04 #@! TO.N,Net-(Q15-Pad3)*
X158750000Y-86795000D02*
X160020000Y-85525000D01*
X158750000Y-91710000D02*
X158750000Y-86795000D01*
G04 #@! TO.N,G2*
X120650000Y-78740000D02*
X121775001Y-79865001D01*
X121775001Y-79865001D02*
X123678592Y-79865001D01*
X123678592Y-79865001D02*
X126363590Y-82550000D01*
X131446411Y-82550000D02*
X139886400Y-90989989D01*
X152229999Y-94385001D02*
X157124999Y-94385001D01*
X157124999Y-94385001D02*
X157800000Y-93710000D01*
X151779988Y-93934990D02*
X152229999Y-94385001D01*
X148603577Y-93934990D02*
X151779988Y-93934990D01*
X126363590Y-82550000D02*
X131446411Y-82550000D01*
X145658576Y-90989989D02*
X148603577Y-93934990D01*
X139886400Y-90989989D02*
X145658576Y-90989989D01*
G04 #@! TO.N,H2*
X162880000Y-91600000D02*
X162880000Y-90900000D01*
X162880000Y-91965002D02*
X162880000Y-91600000D01*
X160009990Y-94835012D02*
X162880000Y-91965002D01*
X145472176Y-91440000D02*
X148417177Y-94385001D01*
X145472176Y-91440000D02*
X148867188Y-94835012D01*
X148867188Y-94835012D02*
X160009990Y-94835012D01*
X131935001Y-85819999D02*
X131935001Y-88118591D01*
X118110000Y-78740000D02*
X119685012Y-80315012D01*
X131350001Y-85234999D02*
X131935001Y-85819999D01*
X135256410Y-91440000D02*
X145472176Y-91440000D01*
X123492192Y-80315012D02*
X128412179Y-85234999D01*
X131935001Y-88118591D02*
X135256410Y-91440000D01*
X128412179Y-85234999D02*
X131350001Y-85234999D01*
X119685012Y-80315012D02*
X123492192Y-80315012D01*
G04 #@! TO.N,Net-(Q16-Pad3)*
X163830000Y-88900000D02*
X163830000Y-85525000D01*
G04 #@! TO.N,Net-(U2-Pad9)*
X128270000Y-86360000D02*
X128270000Y-93980000D01*
X128270000Y-93980000D02*
X132550001Y-98260001D01*
X132550001Y-98260001D02*
X133350000Y-99060000D01*
G04 #@! TD*
M02*
