G04 #@! TF.GenerationSoftware,KiCad,Pcbnew,5.0.1*
G04 #@! TF.CreationDate,2019-01-20T00:11:33+01:00*
G04 #@! TF.ProjectId,Powerstage,506F77657273746167652E6B69636164,rev?*
G04 #@! TF.SameCoordinates,Original*
G04 #@! TF.FileFunction,Copper,L2,Bot,Signal*
G04 #@! TF.FilePolarity,Positive*
%FSLAX46Y46*%
G04 Gerber Fmt 4.6, Leading zero omitted, Abs format (unit mm)*
G04 Created by KiCad (PCBNEW 5.0.1) date So 20 Jan 2019 00:11:33 CET*
%MOMM*%
%LPD*%
G01*
G04 APERTURE LIST*
G04 #@! TA.AperFunction,ComponentPad*
%ADD10R,2.000000X1.905000*%
G04 #@! TD*
G04 #@! TA.AperFunction,ComponentPad*
%ADD11O,2.000000X1.905000*%
G04 #@! TD*
G04 #@! TA.AperFunction,ComponentPad*
%ADD12R,1.600000X1.600000*%
G04 #@! TD*
G04 #@! TA.AperFunction,ComponentPad*
%ADD13O,1.600000X1.600000*%
G04 #@! TD*
G04 #@! TA.AperFunction,ComponentPad*
%ADD14O,1.700000X1.700000*%
G04 #@! TD*
G04 #@! TA.AperFunction,ComponentPad*
%ADD15R,1.700000X1.700000*%
G04 #@! TD*
G04 #@! TA.AperFunction,ViaPad*
%ADD16C,0.800000*%
G04 #@! TD*
G04 #@! TA.AperFunction,Conductor*
%ADD17C,0.250000*%
G04 #@! TD*
G04 #@! TA.AperFunction,Conductor*
%ADD18C,0.254000*%
G04 #@! TD*
G04 APERTURE END LIST*
D10*
G04 #@! TO.P,U1,1*
G04 #@! TO.N,Net-(C1-Pad2)*
X110490000Y-104140000D03*
D11*
G04 #@! TO.P,U1,2*
G04 #@! TO.N,GND*
X110490000Y-106680000D03*
G04 #@! TO.P,U1,3*
G04 #@! TO.N,VCC*
X110490000Y-109220000D03*
G04 #@! TD*
D12*
G04 #@! TO.P,U2,1*
G04 #@! TO.N,B1*
X115570000Y-106680000D03*
D13*
G04 #@! TO.P,U2,9*
G04 #@! TO.N,Net-(U2-Pad9)*
X133350000Y-99060000D03*
G04 #@! TO.P,U2,2*
G04 #@! TO.N,C1*
X118110000Y-106680000D03*
G04 #@! TO.P,U2,10*
G04 #@! TO.N,Net-(J1-Pad6)*
X130810000Y-99060000D03*
G04 #@! TO.P,U2,3*
G04 #@! TO.N,D1*
X120650000Y-106680000D03*
G04 #@! TO.P,U2,11*
G04 #@! TO.N,Net-(J1-Pad7)*
X128270000Y-99060000D03*
G04 #@! TO.P,U2,4*
G04 #@! TO.N,E1*
X123190000Y-106680000D03*
G04 #@! TO.P,U2,12*
G04 #@! TO.N,Net-(J1-Pad5)*
X125730000Y-99060000D03*
G04 #@! TO.P,U2,5*
G04 #@! TO.N,F1*
X125730000Y-106680000D03*
G04 #@! TO.P,U2,13*
G04 #@! TO.N,Net-(J1-Pad4)*
X123190000Y-99060000D03*
G04 #@! TO.P,U2,6*
G04 #@! TO.N,G1*
X128270000Y-106680000D03*
G04 #@! TO.P,U2,14*
G04 #@! TO.N,Net-(J1-Pad3)*
X120650000Y-99060000D03*
G04 #@! TO.P,U2,7*
G04 #@! TO.N,H1*
X130810000Y-106680000D03*
G04 #@! TO.P,U2,15*
G04 #@! TO.N,A1*
X118110000Y-99060000D03*
G04 #@! TO.P,U2,8*
G04 #@! TO.N,GND*
X133350000Y-106680000D03*
G04 #@! TO.P,U2,16*
G04 #@! TO.N,VCC*
X115570000Y-99060000D03*
G04 #@! TD*
D14*
G04 #@! TO.P,J1,9*
G04 #@! TO.N,Net-(C1-Pad2)*
X110490000Y-99060000D03*
G04 #@! TO.P,J1,8*
G04 #@! TO.N,VCC*
X110490000Y-96520000D03*
G04 #@! TO.P,J1,7*
G04 #@! TO.N,Net-(J1-Pad7)*
X110490000Y-93980000D03*
G04 #@! TO.P,J1,6*
G04 #@! TO.N,Net-(J1-Pad6)*
X110490000Y-91440000D03*
G04 #@! TO.P,J1,5*
G04 #@! TO.N,Net-(J1-Pad5)*
X110490000Y-88900000D03*
G04 #@! TO.P,J1,4*
G04 #@! TO.N,Net-(J1-Pad4)*
X110490000Y-86360000D03*
G04 #@! TO.P,J1,3*
G04 #@! TO.N,Net-(J1-Pad3)*
X110490000Y-83820000D03*
G04 #@! TO.P,J1,2*
G04 #@! TO.N,Net-(J1-Pad2)*
X110490000Y-81280000D03*
D15*
G04 #@! TO.P,J1,1*
G04 #@! TO.N,GND*
X110490000Y-78740000D03*
G04 #@! TD*
G04 #@! TO.P,J2,1*
G04 #@! TO.N,VCC*
X163830000Y-111760000D03*
D14*
G04 #@! TO.P,J2,2*
G04 #@! TO.N,Net-(J2-Pad2)*
X161290000Y-111760000D03*
G04 #@! TO.P,J2,3*
G04 #@! TO.N,Net-(J2-Pad3)*
X158750000Y-111760000D03*
G04 #@! TO.P,J2,4*
G04 #@! TO.N,Net-(J2-Pad4)*
X156210000Y-111760000D03*
G04 #@! TO.P,J2,5*
G04 #@! TO.N,Net-(J2-Pad5)*
X153670000Y-111760000D03*
G04 #@! TO.P,J2,6*
G04 #@! TO.N,Net-(J2-Pad6)*
X151130000Y-111760000D03*
G04 #@! TO.P,J2,7*
G04 #@! TO.N,Net-(J2-Pad7)*
X148590000Y-111760000D03*
G04 #@! TO.P,J2,8*
G04 #@! TO.N,Net-(J2-Pad8)*
X146050000Y-111760000D03*
G04 #@! TO.P,J2,9*
G04 #@! TO.N,Net-(J2-Pad9)*
X143510000Y-111760000D03*
G04 #@! TD*
D15*
G04 #@! TO.P,J3,1*
G04 #@! TO.N,VCC*
X143510000Y-78740000D03*
D14*
G04 #@! TO.P,J3,2*
G04 #@! TO.N,Net-(J3-Pad2)*
X146050000Y-78740000D03*
G04 #@! TO.P,J3,3*
G04 #@! TO.N,Net-(J3-Pad3)*
X148590000Y-78740000D03*
G04 #@! TO.P,J3,4*
G04 #@! TO.N,Net-(J3-Pad4)*
X151130000Y-78740000D03*
G04 #@! TO.P,J3,5*
G04 #@! TO.N,Net-(J3-Pad5)*
X153670000Y-78740000D03*
G04 #@! TO.P,J3,6*
G04 #@! TO.N,Net-(J3-Pad6)*
X156210000Y-78740000D03*
G04 #@! TO.P,J3,7*
G04 #@! TO.N,Net-(J3-Pad7)*
X158750000Y-78740000D03*
G04 #@! TO.P,J3,8*
G04 #@! TO.N,Net-(J3-Pad8)*
X161290000Y-78740000D03*
G04 #@! TO.P,J3,9*
G04 #@! TO.N,Net-(J3-Pad9)*
X163830000Y-78740000D03*
G04 #@! TD*
D13*
G04 #@! TO.P,U3,16*
G04 #@! TO.N,VCC*
X133350000Y-86360000D03*
G04 #@! TO.P,U3,8*
G04 #@! TO.N,GND*
X115570000Y-78740000D03*
G04 #@! TO.P,U3,15*
G04 #@! TO.N,A2*
X130810000Y-86360000D03*
G04 #@! TO.P,U3,7*
G04 #@! TO.N,H2*
X118110000Y-78740000D03*
G04 #@! TO.P,U3,14*
G04 #@! TO.N,Net-(U2-Pad9)*
X128270000Y-86360000D03*
G04 #@! TO.P,U3,6*
G04 #@! TO.N,G2*
X120650000Y-78740000D03*
G04 #@! TO.P,U3,13*
G04 #@! TO.N,Net-(J1-Pad4)*
X125730000Y-86360000D03*
G04 #@! TO.P,U3,5*
G04 #@! TO.N,F2*
X123190000Y-78740000D03*
G04 #@! TO.P,U3,12*
G04 #@! TO.N,Net-(J1-Pad5)*
X123190000Y-86360000D03*
G04 #@! TO.P,U3,4*
G04 #@! TO.N,E2*
X125730000Y-78740000D03*
G04 #@! TO.P,U3,11*
G04 #@! TO.N,Net-(J1-Pad7)*
X120650000Y-86360000D03*
G04 #@! TO.P,U3,3*
G04 #@! TO.N,D2*
X128270000Y-78740000D03*
G04 #@! TO.P,U3,10*
G04 #@! TO.N,Net-(J1-Pad6)*
X118110000Y-86360000D03*
G04 #@! TO.P,U3,2*
G04 #@! TO.N,C2*
X130810000Y-78740000D03*
G04 #@! TO.P,U3,9*
G04 #@! TO.N,Net-(J1-Pad2)*
X115570000Y-86360000D03*
D12*
G04 #@! TO.P,U3,1*
G04 #@! TO.N,B2*
X133350000Y-78740000D03*
G04 #@! TD*
D16*
G04 #@! TO.N,GND*
X132080000Y-95250000D03*
X139700000Y-82550000D03*
G04 #@! TO.N,Net-(J3-Pad2)*
X144780000Y-93980000D03*
G04 #@! TD*
D17*
G04 #@! TO.N,GND*
X132080000Y-105410000D02*
X133350000Y-106680000D01*
X132080000Y-95250000D02*
X132080000Y-105410000D01*
X139700000Y-87630000D02*
X132080000Y-95250000D01*
X139700000Y-82550000D02*
X139700000Y-83820000D01*
X139700000Y-83820000D02*
X139700000Y-87630000D01*
X111740000Y-106680000D02*
X110490000Y-106680000D01*
X112865001Y-105554999D02*
X111740000Y-106680000D01*
X132224999Y-105554999D02*
X112865001Y-105554999D01*
X133350000Y-106680000D02*
X132224999Y-105554999D01*
X109164999Y-105402499D02*
X110442500Y-106680000D01*
X109164999Y-78965001D02*
X109164999Y-105402499D01*
X109390000Y-78740000D02*
X109164999Y-78965001D01*
X110442500Y-106680000D02*
X110490000Y-106680000D01*
X110490000Y-78740000D02*
X109390000Y-78740000D01*
G04 #@! TO.N,VCC*
X140970000Y-78740000D02*
X133350000Y-86360000D01*
X143510000Y-78740000D02*
X140970000Y-78740000D01*
X133350000Y-86360000D02*
X132080000Y-85090000D01*
X111339999Y-95670001D02*
X110490000Y-96520000D01*
X119235001Y-87774999D02*
X111339999Y-95670001D01*
X119235001Y-86109997D02*
X119235001Y-87774999D01*
X120254998Y-85090000D02*
X119235001Y-86109997D01*
X132080000Y-85090000D02*
X120254998Y-85090000D01*
X163830000Y-111760000D02*
X163830000Y-109220000D01*
X115924998Y-109220000D02*
X110490000Y-109220000D01*
X163830000Y-109220000D02*
X115924998Y-109220000D01*
G04 #@! TO.N,Net-(J1-Pad7)*
X120650000Y-91440000D02*
X128270000Y-99060000D01*
X120650000Y-86360000D02*
X120650000Y-91440000D01*
G04 #@! TO.N,Net-(J1-Pad2)*
X110490000Y-81280000D02*
X115570000Y-86360000D01*
G04 #@! TO.N,Net-(J3-Pad2)*
X144780000Y-80010000D02*
X146050000Y-78740000D01*
X144780000Y-93980000D02*
X144780000Y-80010000D01*
G04 #@! TD*
D18*
G04 #@! TO.N,GND*
G36*
X165660000Y-113565000D02*
X108685000Y-113565000D01*
X108685000Y-109220000D01*
X108823900Y-109220000D01*
X108947109Y-109839411D01*
X109297977Y-110364523D01*
X109823089Y-110715391D01*
X110286150Y-110807500D01*
X110693850Y-110807500D01*
X111156911Y-110715391D01*
X111682023Y-110364523D01*
X111938953Y-109980000D01*
X163070001Y-109980000D01*
X163070001Y-110262560D01*
X162980000Y-110262560D01*
X162732235Y-110311843D01*
X162522191Y-110452191D01*
X162381843Y-110662235D01*
X162372816Y-110707619D01*
X162360625Y-110689375D01*
X161869418Y-110361161D01*
X161436256Y-110275000D01*
X161143744Y-110275000D01*
X160710582Y-110361161D01*
X160219375Y-110689375D01*
X160020000Y-110987761D01*
X159820625Y-110689375D01*
X159329418Y-110361161D01*
X158896256Y-110275000D01*
X158603744Y-110275000D01*
X158170582Y-110361161D01*
X157679375Y-110689375D01*
X157480000Y-110987761D01*
X157280625Y-110689375D01*
X156789418Y-110361161D01*
X156356256Y-110275000D01*
X156063744Y-110275000D01*
X155630582Y-110361161D01*
X155139375Y-110689375D01*
X154940000Y-110987761D01*
X154740625Y-110689375D01*
X154249418Y-110361161D01*
X153816256Y-110275000D01*
X153523744Y-110275000D01*
X153090582Y-110361161D01*
X152599375Y-110689375D01*
X152400000Y-110987761D01*
X152200625Y-110689375D01*
X151709418Y-110361161D01*
X151276256Y-110275000D01*
X150983744Y-110275000D01*
X150550582Y-110361161D01*
X150059375Y-110689375D01*
X149860000Y-110987761D01*
X149660625Y-110689375D01*
X149169418Y-110361161D01*
X148736256Y-110275000D01*
X148443744Y-110275000D01*
X148010582Y-110361161D01*
X147519375Y-110689375D01*
X147320000Y-110987761D01*
X147120625Y-110689375D01*
X146629418Y-110361161D01*
X146196256Y-110275000D01*
X145903744Y-110275000D01*
X145470582Y-110361161D01*
X144979375Y-110689375D01*
X144780000Y-110987761D01*
X144580625Y-110689375D01*
X144089418Y-110361161D01*
X143656256Y-110275000D01*
X143363744Y-110275000D01*
X142930582Y-110361161D01*
X142439375Y-110689375D01*
X142111161Y-111180582D01*
X141995908Y-111760000D01*
X142111161Y-112339418D01*
X142439375Y-112830625D01*
X142930582Y-113158839D01*
X143363744Y-113245000D01*
X143656256Y-113245000D01*
X144089418Y-113158839D01*
X144580625Y-112830625D01*
X144780000Y-112532239D01*
X144979375Y-112830625D01*
X145470582Y-113158839D01*
X145903744Y-113245000D01*
X146196256Y-113245000D01*
X146629418Y-113158839D01*
X147120625Y-112830625D01*
X147320000Y-112532239D01*
X147519375Y-112830625D01*
X148010582Y-113158839D01*
X148443744Y-113245000D01*
X148736256Y-113245000D01*
X149169418Y-113158839D01*
X149660625Y-112830625D01*
X149860000Y-112532239D01*
X150059375Y-112830625D01*
X150550582Y-113158839D01*
X150983744Y-113245000D01*
X151276256Y-113245000D01*
X151709418Y-113158839D01*
X152200625Y-112830625D01*
X152400000Y-112532239D01*
X152599375Y-112830625D01*
X153090582Y-113158839D01*
X153523744Y-113245000D01*
X153816256Y-113245000D01*
X154249418Y-113158839D01*
X154740625Y-112830625D01*
X154940000Y-112532239D01*
X155139375Y-112830625D01*
X155630582Y-113158839D01*
X156063744Y-113245000D01*
X156356256Y-113245000D01*
X156789418Y-113158839D01*
X157280625Y-112830625D01*
X157480000Y-112532239D01*
X157679375Y-112830625D01*
X158170582Y-113158839D01*
X158603744Y-113245000D01*
X158896256Y-113245000D01*
X159329418Y-113158839D01*
X159820625Y-112830625D01*
X160020000Y-112532239D01*
X160219375Y-112830625D01*
X160710582Y-113158839D01*
X161143744Y-113245000D01*
X161436256Y-113245000D01*
X161869418Y-113158839D01*
X162360625Y-112830625D01*
X162372816Y-112812381D01*
X162381843Y-112857765D01*
X162522191Y-113067809D01*
X162732235Y-113208157D01*
X162980000Y-113257440D01*
X164680000Y-113257440D01*
X164927765Y-113208157D01*
X165137809Y-113067809D01*
X165278157Y-112857765D01*
X165327440Y-112610000D01*
X165327440Y-110910000D01*
X165278157Y-110662235D01*
X165137809Y-110452191D01*
X164927765Y-110311843D01*
X164680000Y-110262560D01*
X164590000Y-110262560D01*
X164590000Y-109294852D01*
X164604889Y-109220000D01*
X164545904Y-108923463D01*
X164377929Y-108672071D01*
X164126537Y-108504096D01*
X163904852Y-108460000D01*
X163830000Y-108445111D01*
X163755148Y-108460000D01*
X111938953Y-108460000D01*
X111682023Y-108075477D01*
X111480526Y-107940841D01*
X111865973Y-107546924D01*
X112080563Y-107052980D01*
X111960594Y-106807000D01*
X110617000Y-106807000D01*
X110617000Y-106827000D01*
X110363000Y-106827000D01*
X110363000Y-106807000D01*
X109019406Y-106807000D01*
X108899437Y-107052980D01*
X109114027Y-107546924D01*
X109499474Y-107940841D01*
X109297977Y-108075477D01*
X108947109Y-108600589D01*
X108823900Y-109220000D01*
X108685000Y-109220000D01*
X108685000Y-103187500D01*
X108842560Y-103187500D01*
X108842560Y-105092500D01*
X108891843Y-105340265D01*
X109032191Y-105550309D01*
X109237143Y-105687255D01*
X109114027Y-105813076D01*
X108899437Y-106307020D01*
X109019406Y-106553000D01*
X110363000Y-106553000D01*
X110363000Y-106533000D01*
X110617000Y-106533000D01*
X110617000Y-106553000D01*
X111960594Y-106553000D01*
X112080563Y-106307020D01*
X111895048Y-105880000D01*
X114122560Y-105880000D01*
X114122560Y-107480000D01*
X114171843Y-107727765D01*
X114312191Y-107937809D01*
X114522235Y-108078157D01*
X114770000Y-108127440D01*
X116370000Y-108127440D01*
X116617765Y-108078157D01*
X116827809Y-107937809D01*
X116968157Y-107727765D01*
X116994785Y-107593894D01*
X117075423Y-107714577D01*
X117550091Y-108031740D01*
X117968667Y-108115000D01*
X118251333Y-108115000D01*
X118669909Y-108031740D01*
X119144577Y-107714577D01*
X119380000Y-107362242D01*
X119615423Y-107714577D01*
X120090091Y-108031740D01*
X120508667Y-108115000D01*
X120791333Y-108115000D01*
X121209909Y-108031740D01*
X121684577Y-107714577D01*
X121920000Y-107362242D01*
X122155423Y-107714577D01*
X122630091Y-108031740D01*
X123048667Y-108115000D01*
X123331333Y-108115000D01*
X123749909Y-108031740D01*
X124224577Y-107714577D01*
X124460000Y-107362242D01*
X124695423Y-107714577D01*
X125170091Y-108031740D01*
X125588667Y-108115000D01*
X125871333Y-108115000D01*
X126289909Y-108031740D01*
X126764577Y-107714577D01*
X127000000Y-107362242D01*
X127235423Y-107714577D01*
X127710091Y-108031740D01*
X128128667Y-108115000D01*
X128411333Y-108115000D01*
X128829909Y-108031740D01*
X129304577Y-107714577D01*
X129540000Y-107362242D01*
X129775423Y-107714577D01*
X130250091Y-108031740D01*
X130668667Y-108115000D01*
X130951333Y-108115000D01*
X131369909Y-108031740D01*
X131844577Y-107714577D01*
X132100947Y-107330892D01*
X132197611Y-107535134D01*
X132612577Y-107911041D01*
X133000961Y-108071904D01*
X133223000Y-107949915D01*
X133223000Y-106807000D01*
X133477000Y-106807000D01*
X133477000Y-107949915D01*
X133699039Y-108071904D01*
X134087423Y-107911041D01*
X134502389Y-107535134D01*
X134741914Y-107029041D01*
X134620629Y-106807000D01*
X133477000Y-106807000D01*
X133223000Y-106807000D01*
X133203000Y-106807000D01*
X133203000Y-106553000D01*
X133223000Y-106553000D01*
X133223000Y-105410085D01*
X133477000Y-105410085D01*
X133477000Y-106553000D01*
X134620629Y-106553000D01*
X134741914Y-106330959D01*
X134502389Y-105824866D01*
X134087423Y-105448959D01*
X133699039Y-105288096D01*
X133477000Y-105410085D01*
X133223000Y-105410085D01*
X133000961Y-105288096D01*
X132612577Y-105448959D01*
X132197611Y-105824866D01*
X132100947Y-106029108D01*
X131844577Y-105645423D01*
X131369909Y-105328260D01*
X130951333Y-105245000D01*
X130668667Y-105245000D01*
X130250091Y-105328260D01*
X129775423Y-105645423D01*
X129540000Y-105997758D01*
X129304577Y-105645423D01*
X128829909Y-105328260D01*
X128411333Y-105245000D01*
X128128667Y-105245000D01*
X127710091Y-105328260D01*
X127235423Y-105645423D01*
X127000000Y-105997758D01*
X126764577Y-105645423D01*
X126289909Y-105328260D01*
X125871333Y-105245000D01*
X125588667Y-105245000D01*
X125170091Y-105328260D01*
X124695423Y-105645423D01*
X124460000Y-105997758D01*
X124224577Y-105645423D01*
X123749909Y-105328260D01*
X123331333Y-105245000D01*
X123048667Y-105245000D01*
X122630091Y-105328260D01*
X122155423Y-105645423D01*
X121920000Y-105997758D01*
X121684577Y-105645423D01*
X121209909Y-105328260D01*
X120791333Y-105245000D01*
X120508667Y-105245000D01*
X120090091Y-105328260D01*
X119615423Y-105645423D01*
X119380000Y-105997758D01*
X119144577Y-105645423D01*
X118669909Y-105328260D01*
X118251333Y-105245000D01*
X117968667Y-105245000D01*
X117550091Y-105328260D01*
X117075423Y-105645423D01*
X116994785Y-105766106D01*
X116968157Y-105632235D01*
X116827809Y-105422191D01*
X116617765Y-105281843D01*
X116370000Y-105232560D01*
X114770000Y-105232560D01*
X114522235Y-105281843D01*
X114312191Y-105422191D01*
X114171843Y-105632235D01*
X114122560Y-105880000D01*
X111895048Y-105880000D01*
X111865973Y-105813076D01*
X111742857Y-105687255D01*
X111947809Y-105550309D01*
X112088157Y-105340265D01*
X112137440Y-105092500D01*
X112137440Y-103187500D01*
X112088157Y-102939735D01*
X111947809Y-102729691D01*
X111737765Y-102589343D01*
X111490000Y-102540060D01*
X109490000Y-102540060D01*
X109242235Y-102589343D01*
X109032191Y-102729691D01*
X108891843Y-102939735D01*
X108842560Y-103187500D01*
X108685000Y-103187500D01*
X108685000Y-81280000D01*
X108975908Y-81280000D01*
X109091161Y-81859418D01*
X109419375Y-82350625D01*
X109717761Y-82550000D01*
X109419375Y-82749375D01*
X109091161Y-83240582D01*
X108975908Y-83820000D01*
X109091161Y-84399418D01*
X109419375Y-84890625D01*
X109717761Y-85090000D01*
X109419375Y-85289375D01*
X109091161Y-85780582D01*
X108975908Y-86360000D01*
X109091161Y-86939418D01*
X109419375Y-87430625D01*
X109717761Y-87630000D01*
X109419375Y-87829375D01*
X109091161Y-88320582D01*
X108975908Y-88900000D01*
X109091161Y-89479418D01*
X109419375Y-89970625D01*
X109717761Y-90170000D01*
X109419375Y-90369375D01*
X109091161Y-90860582D01*
X108975908Y-91440000D01*
X109091161Y-92019418D01*
X109419375Y-92510625D01*
X109717761Y-92710000D01*
X109419375Y-92909375D01*
X109091161Y-93400582D01*
X108975908Y-93980000D01*
X109091161Y-94559418D01*
X109419375Y-95050625D01*
X109717761Y-95250000D01*
X109419375Y-95449375D01*
X109091161Y-95940582D01*
X108975908Y-96520000D01*
X109091161Y-97099418D01*
X109419375Y-97590625D01*
X109717761Y-97790000D01*
X109419375Y-97989375D01*
X109091161Y-98480582D01*
X108975908Y-99060000D01*
X109091161Y-99639418D01*
X109419375Y-100130625D01*
X109910582Y-100458839D01*
X110343744Y-100545000D01*
X110636256Y-100545000D01*
X111069418Y-100458839D01*
X111560625Y-100130625D01*
X111888839Y-99639418D01*
X112004092Y-99060000D01*
X111888839Y-98480582D01*
X111560625Y-97989375D01*
X111262239Y-97790000D01*
X111560625Y-97590625D01*
X111888839Y-97099418D01*
X112004092Y-96520000D01*
X111931209Y-96153592D01*
X119719474Y-88365328D01*
X119782930Y-88322928D01*
X119890000Y-88162686D01*
X119890001Y-91365148D01*
X119875112Y-91440000D01*
X119890001Y-91514852D01*
X119934097Y-91736537D01*
X120102072Y-91987929D01*
X120165528Y-92030329D01*
X125760198Y-97625000D01*
X125588667Y-97625000D01*
X125170091Y-97708260D01*
X124695423Y-98025423D01*
X124460000Y-98377758D01*
X124224577Y-98025423D01*
X123749909Y-97708260D01*
X123331333Y-97625000D01*
X123048667Y-97625000D01*
X122630091Y-97708260D01*
X122155423Y-98025423D01*
X121920000Y-98377758D01*
X121684577Y-98025423D01*
X121209909Y-97708260D01*
X120791333Y-97625000D01*
X120508667Y-97625000D01*
X120090091Y-97708260D01*
X119615423Y-98025423D01*
X119380000Y-98377758D01*
X119144577Y-98025423D01*
X118669909Y-97708260D01*
X118251333Y-97625000D01*
X117968667Y-97625000D01*
X117550091Y-97708260D01*
X117075423Y-98025423D01*
X116840000Y-98377758D01*
X116604577Y-98025423D01*
X116129909Y-97708260D01*
X115711333Y-97625000D01*
X115428667Y-97625000D01*
X115010091Y-97708260D01*
X114535423Y-98025423D01*
X114218260Y-98500091D01*
X114106887Y-99060000D01*
X114218260Y-99619909D01*
X114535423Y-100094577D01*
X115010091Y-100411740D01*
X115428667Y-100495000D01*
X115711333Y-100495000D01*
X116129909Y-100411740D01*
X116604577Y-100094577D01*
X116840000Y-99742242D01*
X117075423Y-100094577D01*
X117550091Y-100411740D01*
X117968667Y-100495000D01*
X118251333Y-100495000D01*
X118669909Y-100411740D01*
X119144577Y-100094577D01*
X119380000Y-99742242D01*
X119615423Y-100094577D01*
X120090091Y-100411740D01*
X120508667Y-100495000D01*
X120791333Y-100495000D01*
X121209909Y-100411740D01*
X121684577Y-100094577D01*
X121920000Y-99742242D01*
X122155423Y-100094577D01*
X122630091Y-100411740D01*
X123048667Y-100495000D01*
X123331333Y-100495000D01*
X123749909Y-100411740D01*
X124224577Y-100094577D01*
X124460000Y-99742242D01*
X124695423Y-100094577D01*
X125170091Y-100411740D01*
X125588667Y-100495000D01*
X125871333Y-100495000D01*
X126289909Y-100411740D01*
X126764577Y-100094577D01*
X127000000Y-99742242D01*
X127235423Y-100094577D01*
X127710091Y-100411740D01*
X128128667Y-100495000D01*
X128411333Y-100495000D01*
X128829909Y-100411740D01*
X129304577Y-100094577D01*
X129540000Y-99742242D01*
X129775423Y-100094577D01*
X130250091Y-100411740D01*
X130668667Y-100495000D01*
X130951333Y-100495000D01*
X131369909Y-100411740D01*
X131844577Y-100094577D01*
X132080000Y-99742242D01*
X132315423Y-100094577D01*
X132790091Y-100411740D01*
X133208667Y-100495000D01*
X133491333Y-100495000D01*
X133909909Y-100411740D01*
X134384577Y-100094577D01*
X134701740Y-99619909D01*
X134813113Y-99060000D01*
X134701740Y-98500091D01*
X134384577Y-98025423D01*
X133909909Y-97708260D01*
X133491333Y-97625000D01*
X133208667Y-97625000D01*
X132790091Y-97708260D01*
X132315423Y-98025423D01*
X132080000Y-98377758D01*
X131844577Y-98025423D01*
X131369909Y-97708260D01*
X130951333Y-97625000D01*
X130668667Y-97625000D01*
X130250091Y-97708260D01*
X129775423Y-98025423D01*
X129540000Y-98377758D01*
X129304577Y-98025423D01*
X128829909Y-97708260D01*
X128411333Y-97625000D01*
X128128667Y-97625000D01*
X127946115Y-97661312D01*
X121410000Y-91125199D01*
X121410000Y-87578043D01*
X121684577Y-87394577D01*
X121920000Y-87042242D01*
X122155423Y-87394577D01*
X122630091Y-87711740D01*
X123048667Y-87795000D01*
X123331333Y-87795000D01*
X123749909Y-87711740D01*
X124224577Y-87394577D01*
X124460000Y-87042242D01*
X124695423Y-87394577D01*
X125170091Y-87711740D01*
X125588667Y-87795000D01*
X125871333Y-87795000D01*
X126289909Y-87711740D01*
X126764577Y-87394577D01*
X127000000Y-87042242D01*
X127235423Y-87394577D01*
X127710091Y-87711740D01*
X128128667Y-87795000D01*
X128411333Y-87795000D01*
X128829909Y-87711740D01*
X129304577Y-87394577D01*
X129540000Y-87042242D01*
X129775423Y-87394577D01*
X130250091Y-87711740D01*
X130668667Y-87795000D01*
X130951333Y-87795000D01*
X131369909Y-87711740D01*
X131844577Y-87394577D01*
X132080000Y-87042242D01*
X132315423Y-87394577D01*
X132790091Y-87711740D01*
X133208667Y-87795000D01*
X133491333Y-87795000D01*
X133909909Y-87711740D01*
X134384577Y-87394577D01*
X134701740Y-86919909D01*
X134813113Y-86360000D01*
X134748688Y-86036113D01*
X141284803Y-79500000D01*
X142012560Y-79500000D01*
X142012560Y-79590000D01*
X142061843Y-79837765D01*
X142202191Y-80047809D01*
X142412235Y-80188157D01*
X142660000Y-80237440D01*
X144020001Y-80237440D01*
X144020000Y-93276289D01*
X143902569Y-93393720D01*
X143745000Y-93774126D01*
X143745000Y-94185874D01*
X143902569Y-94566280D01*
X144193720Y-94857431D01*
X144574126Y-95015000D01*
X144985874Y-95015000D01*
X145366280Y-94857431D01*
X145657431Y-94566280D01*
X145815000Y-94185874D01*
X145815000Y-93774126D01*
X145657431Y-93393720D01*
X145540000Y-93276289D01*
X145540000Y-80324801D01*
X145683592Y-80181209D01*
X145903744Y-80225000D01*
X146196256Y-80225000D01*
X146629418Y-80138839D01*
X147120625Y-79810625D01*
X147320000Y-79512239D01*
X147519375Y-79810625D01*
X148010582Y-80138839D01*
X148443744Y-80225000D01*
X148736256Y-80225000D01*
X149169418Y-80138839D01*
X149660625Y-79810625D01*
X149860000Y-79512239D01*
X150059375Y-79810625D01*
X150550582Y-80138839D01*
X150983744Y-80225000D01*
X151276256Y-80225000D01*
X151709418Y-80138839D01*
X152200625Y-79810625D01*
X152400000Y-79512239D01*
X152599375Y-79810625D01*
X153090582Y-80138839D01*
X153523744Y-80225000D01*
X153816256Y-80225000D01*
X154249418Y-80138839D01*
X154740625Y-79810625D01*
X154940000Y-79512239D01*
X155139375Y-79810625D01*
X155630582Y-80138839D01*
X156063744Y-80225000D01*
X156356256Y-80225000D01*
X156789418Y-80138839D01*
X157280625Y-79810625D01*
X157480000Y-79512239D01*
X157679375Y-79810625D01*
X158170582Y-80138839D01*
X158603744Y-80225000D01*
X158896256Y-80225000D01*
X159329418Y-80138839D01*
X159820625Y-79810625D01*
X160020000Y-79512239D01*
X160219375Y-79810625D01*
X160710582Y-80138839D01*
X161143744Y-80225000D01*
X161436256Y-80225000D01*
X161869418Y-80138839D01*
X162360625Y-79810625D01*
X162560000Y-79512239D01*
X162759375Y-79810625D01*
X163250582Y-80138839D01*
X163683744Y-80225000D01*
X163976256Y-80225000D01*
X164409418Y-80138839D01*
X164900625Y-79810625D01*
X165228839Y-79319418D01*
X165344092Y-78740000D01*
X165228839Y-78160582D01*
X164900625Y-77669375D01*
X164409418Y-77341161D01*
X163976256Y-77255000D01*
X163683744Y-77255000D01*
X163250582Y-77341161D01*
X162759375Y-77669375D01*
X162560000Y-77967761D01*
X162360625Y-77669375D01*
X161869418Y-77341161D01*
X161436256Y-77255000D01*
X161143744Y-77255000D01*
X160710582Y-77341161D01*
X160219375Y-77669375D01*
X160020000Y-77967761D01*
X159820625Y-77669375D01*
X159329418Y-77341161D01*
X158896256Y-77255000D01*
X158603744Y-77255000D01*
X158170582Y-77341161D01*
X157679375Y-77669375D01*
X157480000Y-77967761D01*
X157280625Y-77669375D01*
X156789418Y-77341161D01*
X156356256Y-77255000D01*
X156063744Y-77255000D01*
X155630582Y-77341161D01*
X155139375Y-77669375D01*
X154940000Y-77967761D01*
X154740625Y-77669375D01*
X154249418Y-77341161D01*
X153816256Y-77255000D01*
X153523744Y-77255000D01*
X153090582Y-77341161D01*
X152599375Y-77669375D01*
X152400000Y-77967761D01*
X152200625Y-77669375D01*
X151709418Y-77341161D01*
X151276256Y-77255000D01*
X150983744Y-77255000D01*
X150550582Y-77341161D01*
X150059375Y-77669375D01*
X149860000Y-77967761D01*
X149660625Y-77669375D01*
X149169418Y-77341161D01*
X148736256Y-77255000D01*
X148443744Y-77255000D01*
X148010582Y-77341161D01*
X147519375Y-77669375D01*
X147320000Y-77967761D01*
X147120625Y-77669375D01*
X146629418Y-77341161D01*
X146196256Y-77255000D01*
X145903744Y-77255000D01*
X145470582Y-77341161D01*
X144979375Y-77669375D01*
X144967184Y-77687619D01*
X144958157Y-77642235D01*
X144817809Y-77432191D01*
X144607765Y-77291843D01*
X144360000Y-77242560D01*
X142660000Y-77242560D01*
X142412235Y-77291843D01*
X142202191Y-77432191D01*
X142061843Y-77642235D01*
X142012560Y-77890000D01*
X142012560Y-77980000D01*
X141044846Y-77980000D01*
X140969999Y-77965112D01*
X140895152Y-77980000D01*
X140895148Y-77980000D01*
X140673463Y-78024096D01*
X140673461Y-78024097D01*
X140673462Y-78024097D01*
X140485526Y-78149671D01*
X140485524Y-78149673D01*
X140422071Y-78192071D01*
X140379673Y-78255524D01*
X133673887Y-84961312D01*
X133491333Y-84925000D01*
X133208667Y-84925000D01*
X133026114Y-84961312D01*
X132670331Y-84605530D01*
X132627929Y-84542071D01*
X132376537Y-84374096D01*
X132154852Y-84330000D01*
X132154847Y-84330000D01*
X132080000Y-84315112D01*
X132005153Y-84330000D01*
X120329846Y-84330000D01*
X120254998Y-84315112D01*
X120180150Y-84330000D01*
X120180146Y-84330000D01*
X119958461Y-84374096D01*
X119707069Y-84542071D01*
X119664669Y-84605527D01*
X119024804Y-85245393D01*
X118669909Y-85008260D01*
X118251333Y-84925000D01*
X117968667Y-84925000D01*
X117550091Y-85008260D01*
X117075423Y-85325423D01*
X116840000Y-85677758D01*
X116604577Y-85325423D01*
X116129909Y-85008260D01*
X115711333Y-84925000D01*
X115428667Y-84925000D01*
X115246114Y-84961312D01*
X111931209Y-81646408D01*
X112004092Y-81280000D01*
X111888839Y-80700582D01*
X111560625Y-80209375D01*
X111538967Y-80194904D01*
X111699698Y-80128327D01*
X111878327Y-79949699D01*
X111975000Y-79716310D01*
X111975000Y-79089041D01*
X114178086Y-79089041D01*
X114417611Y-79595134D01*
X114832577Y-79971041D01*
X115220961Y-80131904D01*
X115443000Y-80009915D01*
X115443000Y-78867000D01*
X114299371Y-78867000D01*
X114178086Y-79089041D01*
X111975000Y-79089041D01*
X111975000Y-79025750D01*
X111816250Y-78867000D01*
X110617000Y-78867000D01*
X110617000Y-78887000D01*
X110363000Y-78887000D01*
X110363000Y-78867000D01*
X109163750Y-78867000D01*
X109005000Y-79025750D01*
X109005000Y-79716310D01*
X109101673Y-79949699D01*
X109280302Y-80128327D01*
X109441033Y-80194904D01*
X109419375Y-80209375D01*
X109091161Y-80700582D01*
X108975908Y-81280000D01*
X108685000Y-81280000D01*
X108685000Y-77763690D01*
X109005000Y-77763690D01*
X109005000Y-78454250D01*
X109163750Y-78613000D01*
X110363000Y-78613000D01*
X110363000Y-77413750D01*
X110617000Y-77413750D01*
X110617000Y-78613000D01*
X111816250Y-78613000D01*
X111975000Y-78454250D01*
X111975000Y-78390959D01*
X114178086Y-78390959D01*
X114299371Y-78613000D01*
X115443000Y-78613000D01*
X115443000Y-77470085D01*
X115697000Y-77470085D01*
X115697000Y-78613000D01*
X115717000Y-78613000D01*
X115717000Y-78867000D01*
X115697000Y-78867000D01*
X115697000Y-80009915D01*
X115919039Y-80131904D01*
X116307423Y-79971041D01*
X116722389Y-79595134D01*
X116819053Y-79390892D01*
X117075423Y-79774577D01*
X117550091Y-80091740D01*
X117968667Y-80175000D01*
X118251333Y-80175000D01*
X118669909Y-80091740D01*
X119144577Y-79774577D01*
X119380000Y-79422242D01*
X119615423Y-79774577D01*
X120090091Y-80091740D01*
X120508667Y-80175000D01*
X120791333Y-80175000D01*
X121209909Y-80091740D01*
X121684577Y-79774577D01*
X121920000Y-79422242D01*
X122155423Y-79774577D01*
X122630091Y-80091740D01*
X123048667Y-80175000D01*
X123331333Y-80175000D01*
X123749909Y-80091740D01*
X124224577Y-79774577D01*
X124460000Y-79422242D01*
X124695423Y-79774577D01*
X125170091Y-80091740D01*
X125588667Y-80175000D01*
X125871333Y-80175000D01*
X126289909Y-80091740D01*
X126764577Y-79774577D01*
X127000000Y-79422242D01*
X127235423Y-79774577D01*
X127710091Y-80091740D01*
X128128667Y-80175000D01*
X128411333Y-80175000D01*
X128829909Y-80091740D01*
X129304577Y-79774577D01*
X129540000Y-79422242D01*
X129775423Y-79774577D01*
X130250091Y-80091740D01*
X130668667Y-80175000D01*
X130951333Y-80175000D01*
X131369909Y-80091740D01*
X131844577Y-79774577D01*
X131925215Y-79653894D01*
X131951843Y-79787765D01*
X132092191Y-79997809D01*
X132302235Y-80138157D01*
X132550000Y-80187440D01*
X134150000Y-80187440D01*
X134397765Y-80138157D01*
X134607809Y-79997809D01*
X134748157Y-79787765D01*
X134797440Y-79540000D01*
X134797440Y-77940000D01*
X134748157Y-77692235D01*
X134607809Y-77482191D01*
X134397765Y-77341843D01*
X134150000Y-77292560D01*
X132550000Y-77292560D01*
X132302235Y-77341843D01*
X132092191Y-77482191D01*
X131951843Y-77692235D01*
X131925215Y-77826106D01*
X131844577Y-77705423D01*
X131369909Y-77388260D01*
X130951333Y-77305000D01*
X130668667Y-77305000D01*
X130250091Y-77388260D01*
X129775423Y-77705423D01*
X129540000Y-78057758D01*
X129304577Y-77705423D01*
X128829909Y-77388260D01*
X128411333Y-77305000D01*
X128128667Y-77305000D01*
X127710091Y-77388260D01*
X127235423Y-77705423D01*
X127000000Y-78057758D01*
X126764577Y-77705423D01*
X126289909Y-77388260D01*
X125871333Y-77305000D01*
X125588667Y-77305000D01*
X125170091Y-77388260D01*
X124695423Y-77705423D01*
X124460000Y-78057758D01*
X124224577Y-77705423D01*
X123749909Y-77388260D01*
X123331333Y-77305000D01*
X123048667Y-77305000D01*
X122630091Y-77388260D01*
X122155423Y-77705423D01*
X121920000Y-78057758D01*
X121684577Y-77705423D01*
X121209909Y-77388260D01*
X120791333Y-77305000D01*
X120508667Y-77305000D01*
X120090091Y-77388260D01*
X119615423Y-77705423D01*
X119380000Y-78057758D01*
X119144577Y-77705423D01*
X118669909Y-77388260D01*
X118251333Y-77305000D01*
X117968667Y-77305000D01*
X117550091Y-77388260D01*
X117075423Y-77705423D01*
X116819053Y-78089108D01*
X116722389Y-77884866D01*
X116307423Y-77508959D01*
X115919039Y-77348096D01*
X115697000Y-77470085D01*
X115443000Y-77470085D01*
X115220961Y-77348096D01*
X114832577Y-77508959D01*
X114417611Y-77884866D01*
X114178086Y-78390959D01*
X111975000Y-78390959D01*
X111975000Y-77763690D01*
X111878327Y-77530301D01*
X111699698Y-77351673D01*
X111466309Y-77255000D01*
X110775750Y-77255000D01*
X110617000Y-77413750D01*
X110363000Y-77413750D01*
X110204250Y-77255000D01*
X109513691Y-77255000D01*
X109280302Y-77351673D01*
X109101673Y-77530301D01*
X109005000Y-77763690D01*
X108685000Y-77763690D01*
X108685000Y-76910000D01*
X165660001Y-76910000D01*
X165660000Y-113565000D01*
X165660000Y-113565000D01*
G37*
X165660000Y-113565000D02*
X108685000Y-113565000D01*
X108685000Y-109220000D01*
X108823900Y-109220000D01*
X108947109Y-109839411D01*
X109297977Y-110364523D01*
X109823089Y-110715391D01*
X110286150Y-110807500D01*
X110693850Y-110807500D01*
X111156911Y-110715391D01*
X111682023Y-110364523D01*
X111938953Y-109980000D01*
X163070001Y-109980000D01*
X163070001Y-110262560D01*
X162980000Y-110262560D01*
X162732235Y-110311843D01*
X162522191Y-110452191D01*
X162381843Y-110662235D01*
X162372816Y-110707619D01*
X162360625Y-110689375D01*
X161869418Y-110361161D01*
X161436256Y-110275000D01*
X161143744Y-110275000D01*
X160710582Y-110361161D01*
X160219375Y-110689375D01*
X160020000Y-110987761D01*
X159820625Y-110689375D01*
X159329418Y-110361161D01*
X158896256Y-110275000D01*
X158603744Y-110275000D01*
X158170582Y-110361161D01*
X157679375Y-110689375D01*
X157480000Y-110987761D01*
X157280625Y-110689375D01*
X156789418Y-110361161D01*
X156356256Y-110275000D01*
X156063744Y-110275000D01*
X155630582Y-110361161D01*
X155139375Y-110689375D01*
X154940000Y-110987761D01*
X154740625Y-110689375D01*
X154249418Y-110361161D01*
X153816256Y-110275000D01*
X153523744Y-110275000D01*
X153090582Y-110361161D01*
X152599375Y-110689375D01*
X152400000Y-110987761D01*
X152200625Y-110689375D01*
X151709418Y-110361161D01*
X151276256Y-110275000D01*
X150983744Y-110275000D01*
X150550582Y-110361161D01*
X150059375Y-110689375D01*
X149860000Y-110987761D01*
X149660625Y-110689375D01*
X149169418Y-110361161D01*
X148736256Y-110275000D01*
X148443744Y-110275000D01*
X148010582Y-110361161D01*
X147519375Y-110689375D01*
X147320000Y-110987761D01*
X147120625Y-110689375D01*
X146629418Y-110361161D01*
X146196256Y-110275000D01*
X145903744Y-110275000D01*
X145470582Y-110361161D01*
X144979375Y-110689375D01*
X144780000Y-110987761D01*
X144580625Y-110689375D01*
X144089418Y-110361161D01*
X143656256Y-110275000D01*
X143363744Y-110275000D01*
X142930582Y-110361161D01*
X142439375Y-110689375D01*
X142111161Y-111180582D01*
X141995908Y-111760000D01*
X142111161Y-112339418D01*
X142439375Y-112830625D01*
X142930582Y-113158839D01*
X143363744Y-113245000D01*
X143656256Y-113245000D01*
X144089418Y-113158839D01*
X144580625Y-112830625D01*
X144780000Y-112532239D01*
X144979375Y-112830625D01*
X145470582Y-113158839D01*
X145903744Y-113245000D01*
X146196256Y-113245000D01*
X146629418Y-113158839D01*
X147120625Y-112830625D01*
X147320000Y-112532239D01*
X147519375Y-112830625D01*
X148010582Y-113158839D01*
X148443744Y-113245000D01*
X148736256Y-113245000D01*
X149169418Y-113158839D01*
X149660625Y-112830625D01*
X149860000Y-112532239D01*
X150059375Y-112830625D01*
X150550582Y-113158839D01*
X150983744Y-113245000D01*
X151276256Y-113245000D01*
X151709418Y-113158839D01*
X152200625Y-112830625D01*
X152400000Y-112532239D01*
X152599375Y-112830625D01*
X153090582Y-113158839D01*
X153523744Y-113245000D01*
X153816256Y-113245000D01*
X154249418Y-113158839D01*
X154740625Y-112830625D01*
X154940000Y-112532239D01*
X155139375Y-112830625D01*
X155630582Y-113158839D01*
X156063744Y-113245000D01*
X156356256Y-113245000D01*
X156789418Y-113158839D01*
X157280625Y-112830625D01*
X157480000Y-112532239D01*
X157679375Y-112830625D01*
X158170582Y-113158839D01*
X158603744Y-113245000D01*
X158896256Y-113245000D01*
X159329418Y-113158839D01*
X159820625Y-112830625D01*
X160020000Y-112532239D01*
X160219375Y-112830625D01*
X160710582Y-113158839D01*
X161143744Y-113245000D01*
X161436256Y-113245000D01*
X161869418Y-113158839D01*
X162360625Y-112830625D01*
X162372816Y-112812381D01*
X162381843Y-112857765D01*
X162522191Y-113067809D01*
X162732235Y-113208157D01*
X162980000Y-113257440D01*
X164680000Y-113257440D01*
X164927765Y-113208157D01*
X165137809Y-113067809D01*
X165278157Y-112857765D01*
X165327440Y-112610000D01*
X165327440Y-110910000D01*
X165278157Y-110662235D01*
X165137809Y-110452191D01*
X164927765Y-110311843D01*
X164680000Y-110262560D01*
X164590000Y-110262560D01*
X164590000Y-109294852D01*
X164604889Y-109220000D01*
X164545904Y-108923463D01*
X164377929Y-108672071D01*
X164126537Y-108504096D01*
X163904852Y-108460000D01*
X163830000Y-108445111D01*
X163755148Y-108460000D01*
X111938953Y-108460000D01*
X111682023Y-108075477D01*
X111480526Y-107940841D01*
X111865973Y-107546924D01*
X112080563Y-107052980D01*
X111960594Y-106807000D01*
X110617000Y-106807000D01*
X110617000Y-106827000D01*
X110363000Y-106827000D01*
X110363000Y-106807000D01*
X109019406Y-106807000D01*
X108899437Y-107052980D01*
X109114027Y-107546924D01*
X109499474Y-107940841D01*
X109297977Y-108075477D01*
X108947109Y-108600589D01*
X108823900Y-109220000D01*
X108685000Y-109220000D01*
X108685000Y-103187500D01*
X108842560Y-103187500D01*
X108842560Y-105092500D01*
X108891843Y-105340265D01*
X109032191Y-105550309D01*
X109237143Y-105687255D01*
X109114027Y-105813076D01*
X108899437Y-106307020D01*
X109019406Y-106553000D01*
X110363000Y-106553000D01*
X110363000Y-106533000D01*
X110617000Y-106533000D01*
X110617000Y-106553000D01*
X111960594Y-106553000D01*
X112080563Y-106307020D01*
X111895048Y-105880000D01*
X114122560Y-105880000D01*
X114122560Y-107480000D01*
X114171843Y-107727765D01*
X114312191Y-107937809D01*
X114522235Y-108078157D01*
X114770000Y-108127440D01*
X116370000Y-108127440D01*
X116617765Y-108078157D01*
X116827809Y-107937809D01*
X116968157Y-107727765D01*
X116994785Y-107593894D01*
X117075423Y-107714577D01*
X117550091Y-108031740D01*
X117968667Y-108115000D01*
X118251333Y-108115000D01*
X118669909Y-108031740D01*
X119144577Y-107714577D01*
X119380000Y-107362242D01*
X119615423Y-107714577D01*
X120090091Y-108031740D01*
X120508667Y-108115000D01*
X120791333Y-108115000D01*
X121209909Y-108031740D01*
X121684577Y-107714577D01*
X121920000Y-107362242D01*
X122155423Y-107714577D01*
X122630091Y-108031740D01*
X123048667Y-108115000D01*
X123331333Y-108115000D01*
X123749909Y-108031740D01*
X124224577Y-107714577D01*
X124460000Y-107362242D01*
X124695423Y-107714577D01*
X125170091Y-108031740D01*
X125588667Y-108115000D01*
X125871333Y-108115000D01*
X126289909Y-108031740D01*
X126764577Y-107714577D01*
X127000000Y-107362242D01*
X127235423Y-107714577D01*
X127710091Y-108031740D01*
X128128667Y-108115000D01*
X128411333Y-108115000D01*
X128829909Y-108031740D01*
X129304577Y-107714577D01*
X129540000Y-107362242D01*
X129775423Y-107714577D01*
X130250091Y-108031740D01*
X130668667Y-108115000D01*
X130951333Y-108115000D01*
X131369909Y-108031740D01*
X131844577Y-107714577D01*
X132100947Y-107330892D01*
X132197611Y-107535134D01*
X132612577Y-107911041D01*
X133000961Y-108071904D01*
X133223000Y-107949915D01*
X133223000Y-106807000D01*
X133477000Y-106807000D01*
X133477000Y-107949915D01*
X133699039Y-108071904D01*
X134087423Y-107911041D01*
X134502389Y-107535134D01*
X134741914Y-107029041D01*
X134620629Y-106807000D01*
X133477000Y-106807000D01*
X133223000Y-106807000D01*
X133203000Y-106807000D01*
X133203000Y-106553000D01*
X133223000Y-106553000D01*
X133223000Y-105410085D01*
X133477000Y-105410085D01*
X133477000Y-106553000D01*
X134620629Y-106553000D01*
X134741914Y-106330959D01*
X134502389Y-105824866D01*
X134087423Y-105448959D01*
X133699039Y-105288096D01*
X133477000Y-105410085D01*
X133223000Y-105410085D01*
X133000961Y-105288096D01*
X132612577Y-105448959D01*
X132197611Y-105824866D01*
X132100947Y-106029108D01*
X131844577Y-105645423D01*
X131369909Y-105328260D01*
X130951333Y-105245000D01*
X130668667Y-105245000D01*
X130250091Y-105328260D01*
X129775423Y-105645423D01*
X129540000Y-105997758D01*
X129304577Y-105645423D01*
X128829909Y-105328260D01*
X128411333Y-105245000D01*
X128128667Y-105245000D01*
X127710091Y-105328260D01*
X127235423Y-105645423D01*
X127000000Y-105997758D01*
X126764577Y-105645423D01*
X126289909Y-105328260D01*
X125871333Y-105245000D01*
X125588667Y-105245000D01*
X125170091Y-105328260D01*
X124695423Y-105645423D01*
X124460000Y-105997758D01*
X124224577Y-105645423D01*
X123749909Y-105328260D01*
X123331333Y-105245000D01*
X123048667Y-105245000D01*
X122630091Y-105328260D01*
X122155423Y-105645423D01*
X121920000Y-105997758D01*
X121684577Y-105645423D01*
X121209909Y-105328260D01*
X120791333Y-105245000D01*
X120508667Y-105245000D01*
X120090091Y-105328260D01*
X119615423Y-105645423D01*
X119380000Y-105997758D01*
X119144577Y-105645423D01*
X118669909Y-105328260D01*
X118251333Y-105245000D01*
X117968667Y-105245000D01*
X117550091Y-105328260D01*
X117075423Y-105645423D01*
X116994785Y-105766106D01*
X116968157Y-105632235D01*
X116827809Y-105422191D01*
X116617765Y-105281843D01*
X116370000Y-105232560D01*
X114770000Y-105232560D01*
X114522235Y-105281843D01*
X114312191Y-105422191D01*
X114171843Y-105632235D01*
X114122560Y-105880000D01*
X111895048Y-105880000D01*
X111865973Y-105813076D01*
X111742857Y-105687255D01*
X111947809Y-105550309D01*
X112088157Y-105340265D01*
X112137440Y-105092500D01*
X112137440Y-103187500D01*
X112088157Y-102939735D01*
X111947809Y-102729691D01*
X111737765Y-102589343D01*
X111490000Y-102540060D01*
X109490000Y-102540060D01*
X109242235Y-102589343D01*
X109032191Y-102729691D01*
X108891843Y-102939735D01*
X108842560Y-103187500D01*
X108685000Y-103187500D01*
X108685000Y-81280000D01*
X108975908Y-81280000D01*
X109091161Y-81859418D01*
X109419375Y-82350625D01*
X109717761Y-82550000D01*
X109419375Y-82749375D01*
X109091161Y-83240582D01*
X108975908Y-83820000D01*
X109091161Y-84399418D01*
X109419375Y-84890625D01*
X109717761Y-85090000D01*
X109419375Y-85289375D01*
X109091161Y-85780582D01*
X108975908Y-86360000D01*
X109091161Y-86939418D01*
X109419375Y-87430625D01*
X109717761Y-87630000D01*
X109419375Y-87829375D01*
X109091161Y-88320582D01*
X108975908Y-88900000D01*
X109091161Y-89479418D01*
X109419375Y-89970625D01*
X109717761Y-90170000D01*
X109419375Y-90369375D01*
X109091161Y-90860582D01*
X108975908Y-91440000D01*
X109091161Y-92019418D01*
X109419375Y-92510625D01*
X109717761Y-92710000D01*
X109419375Y-92909375D01*
X109091161Y-93400582D01*
X108975908Y-93980000D01*
X109091161Y-94559418D01*
X109419375Y-95050625D01*
X109717761Y-95250000D01*
X109419375Y-95449375D01*
X109091161Y-95940582D01*
X108975908Y-96520000D01*
X109091161Y-97099418D01*
X109419375Y-97590625D01*
X109717761Y-97790000D01*
X109419375Y-97989375D01*
X109091161Y-98480582D01*
X108975908Y-99060000D01*
X109091161Y-99639418D01*
X109419375Y-100130625D01*
X109910582Y-100458839D01*
X110343744Y-100545000D01*
X110636256Y-100545000D01*
X111069418Y-100458839D01*
X111560625Y-100130625D01*
X111888839Y-99639418D01*
X112004092Y-99060000D01*
X111888839Y-98480582D01*
X111560625Y-97989375D01*
X111262239Y-97790000D01*
X111560625Y-97590625D01*
X111888839Y-97099418D01*
X112004092Y-96520000D01*
X111931209Y-96153592D01*
X119719474Y-88365328D01*
X119782930Y-88322928D01*
X119890000Y-88162686D01*
X119890001Y-91365148D01*
X119875112Y-91440000D01*
X119890001Y-91514852D01*
X119934097Y-91736537D01*
X120102072Y-91987929D01*
X120165528Y-92030329D01*
X125760198Y-97625000D01*
X125588667Y-97625000D01*
X125170091Y-97708260D01*
X124695423Y-98025423D01*
X124460000Y-98377758D01*
X124224577Y-98025423D01*
X123749909Y-97708260D01*
X123331333Y-97625000D01*
X123048667Y-97625000D01*
X122630091Y-97708260D01*
X122155423Y-98025423D01*
X121920000Y-98377758D01*
X121684577Y-98025423D01*
X121209909Y-97708260D01*
X120791333Y-97625000D01*
X120508667Y-97625000D01*
X120090091Y-97708260D01*
X119615423Y-98025423D01*
X119380000Y-98377758D01*
X119144577Y-98025423D01*
X118669909Y-97708260D01*
X118251333Y-97625000D01*
X117968667Y-97625000D01*
X117550091Y-97708260D01*
X117075423Y-98025423D01*
X116840000Y-98377758D01*
X116604577Y-98025423D01*
X116129909Y-97708260D01*
X115711333Y-97625000D01*
X115428667Y-97625000D01*
X115010091Y-97708260D01*
X114535423Y-98025423D01*
X114218260Y-98500091D01*
X114106887Y-99060000D01*
X114218260Y-99619909D01*
X114535423Y-100094577D01*
X115010091Y-100411740D01*
X115428667Y-100495000D01*
X115711333Y-100495000D01*
X116129909Y-100411740D01*
X116604577Y-100094577D01*
X116840000Y-99742242D01*
X117075423Y-100094577D01*
X117550091Y-100411740D01*
X117968667Y-100495000D01*
X118251333Y-100495000D01*
X118669909Y-100411740D01*
X119144577Y-100094577D01*
X119380000Y-99742242D01*
X119615423Y-100094577D01*
X120090091Y-100411740D01*
X120508667Y-100495000D01*
X120791333Y-100495000D01*
X121209909Y-100411740D01*
X121684577Y-100094577D01*
X121920000Y-99742242D01*
X122155423Y-100094577D01*
X122630091Y-100411740D01*
X123048667Y-100495000D01*
X123331333Y-100495000D01*
X123749909Y-100411740D01*
X124224577Y-100094577D01*
X124460000Y-99742242D01*
X124695423Y-100094577D01*
X125170091Y-100411740D01*
X125588667Y-100495000D01*
X125871333Y-100495000D01*
X126289909Y-100411740D01*
X126764577Y-100094577D01*
X127000000Y-99742242D01*
X127235423Y-100094577D01*
X127710091Y-100411740D01*
X128128667Y-100495000D01*
X128411333Y-100495000D01*
X128829909Y-100411740D01*
X129304577Y-100094577D01*
X129540000Y-99742242D01*
X129775423Y-100094577D01*
X130250091Y-100411740D01*
X130668667Y-100495000D01*
X130951333Y-100495000D01*
X131369909Y-100411740D01*
X131844577Y-100094577D01*
X132080000Y-99742242D01*
X132315423Y-100094577D01*
X132790091Y-100411740D01*
X133208667Y-100495000D01*
X133491333Y-100495000D01*
X133909909Y-100411740D01*
X134384577Y-100094577D01*
X134701740Y-99619909D01*
X134813113Y-99060000D01*
X134701740Y-98500091D01*
X134384577Y-98025423D01*
X133909909Y-97708260D01*
X133491333Y-97625000D01*
X133208667Y-97625000D01*
X132790091Y-97708260D01*
X132315423Y-98025423D01*
X132080000Y-98377758D01*
X131844577Y-98025423D01*
X131369909Y-97708260D01*
X130951333Y-97625000D01*
X130668667Y-97625000D01*
X130250091Y-97708260D01*
X129775423Y-98025423D01*
X129540000Y-98377758D01*
X129304577Y-98025423D01*
X128829909Y-97708260D01*
X128411333Y-97625000D01*
X128128667Y-97625000D01*
X127946115Y-97661312D01*
X121410000Y-91125199D01*
X121410000Y-87578043D01*
X121684577Y-87394577D01*
X121920000Y-87042242D01*
X122155423Y-87394577D01*
X122630091Y-87711740D01*
X123048667Y-87795000D01*
X123331333Y-87795000D01*
X123749909Y-87711740D01*
X124224577Y-87394577D01*
X124460000Y-87042242D01*
X124695423Y-87394577D01*
X125170091Y-87711740D01*
X125588667Y-87795000D01*
X125871333Y-87795000D01*
X126289909Y-87711740D01*
X126764577Y-87394577D01*
X127000000Y-87042242D01*
X127235423Y-87394577D01*
X127710091Y-87711740D01*
X128128667Y-87795000D01*
X128411333Y-87795000D01*
X128829909Y-87711740D01*
X129304577Y-87394577D01*
X129540000Y-87042242D01*
X129775423Y-87394577D01*
X130250091Y-87711740D01*
X130668667Y-87795000D01*
X130951333Y-87795000D01*
X131369909Y-87711740D01*
X131844577Y-87394577D01*
X132080000Y-87042242D01*
X132315423Y-87394577D01*
X132790091Y-87711740D01*
X133208667Y-87795000D01*
X133491333Y-87795000D01*
X133909909Y-87711740D01*
X134384577Y-87394577D01*
X134701740Y-86919909D01*
X134813113Y-86360000D01*
X134748688Y-86036113D01*
X141284803Y-79500000D01*
X142012560Y-79500000D01*
X142012560Y-79590000D01*
X142061843Y-79837765D01*
X142202191Y-80047809D01*
X142412235Y-80188157D01*
X142660000Y-80237440D01*
X144020001Y-80237440D01*
X144020000Y-93276289D01*
X143902569Y-93393720D01*
X143745000Y-93774126D01*
X143745000Y-94185874D01*
X143902569Y-94566280D01*
X144193720Y-94857431D01*
X144574126Y-95015000D01*
X144985874Y-95015000D01*
X145366280Y-94857431D01*
X145657431Y-94566280D01*
X145815000Y-94185874D01*
X145815000Y-93774126D01*
X145657431Y-93393720D01*
X145540000Y-93276289D01*
X145540000Y-80324801D01*
X145683592Y-80181209D01*
X145903744Y-80225000D01*
X146196256Y-80225000D01*
X146629418Y-80138839D01*
X147120625Y-79810625D01*
X147320000Y-79512239D01*
X147519375Y-79810625D01*
X148010582Y-80138839D01*
X148443744Y-80225000D01*
X148736256Y-80225000D01*
X149169418Y-80138839D01*
X149660625Y-79810625D01*
X149860000Y-79512239D01*
X150059375Y-79810625D01*
X150550582Y-80138839D01*
X150983744Y-80225000D01*
X151276256Y-80225000D01*
X151709418Y-80138839D01*
X152200625Y-79810625D01*
X152400000Y-79512239D01*
X152599375Y-79810625D01*
X153090582Y-80138839D01*
X153523744Y-80225000D01*
X153816256Y-80225000D01*
X154249418Y-80138839D01*
X154740625Y-79810625D01*
X154940000Y-79512239D01*
X155139375Y-79810625D01*
X155630582Y-80138839D01*
X156063744Y-80225000D01*
X156356256Y-80225000D01*
X156789418Y-80138839D01*
X157280625Y-79810625D01*
X157480000Y-79512239D01*
X157679375Y-79810625D01*
X158170582Y-80138839D01*
X158603744Y-80225000D01*
X158896256Y-80225000D01*
X159329418Y-80138839D01*
X159820625Y-79810625D01*
X160020000Y-79512239D01*
X160219375Y-79810625D01*
X160710582Y-80138839D01*
X161143744Y-80225000D01*
X161436256Y-80225000D01*
X161869418Y-80138839D01*
X162360625Y-79810625D01*
X162560000Y-79512239D01*
X162759375Y-79810625D01*
X163250582Y-80138839D01*
X163683744Y-80225000D01*
X163976256Y-80225000D01*
X164409418Y-80138839D01*
X164900625Y-79810625D01*
X165228839Y-79319418D01*
X165344092Y-78740000D01*
X165228839Y-78160582D01*
X164900625Y-77669375D01*
X164409418Y-77341161D01*
X163976256Y-77255000D01*
X163683744Y-77255000D01*
X163250582Y-77341161D01*
X162759375Y-77669375D01*
X162560000Y-77967761D01*
X162360625Y-77669375D01*
X161869418Y-77341161D01*
X161436256Y-77255000D01*
X161143744Y-77255000D01*
X160710582Y-77341161D01*
X160219375Y-77669375D01*
X160020000Y-77967761D01*
X159820625Y-77669375D01*
X159329418Y-77341161D01*
X158896256Y-77255000D01*
X158603744Y-77255000D01*
X158170582Y-77341161D01*
X157679375Y-77669375D01*
X157480000Y-77967761D01*
X157280625Y-77669375D01*
X156789418Y-77341161D01*
X156356256Y-77255000D01*
X156063744Y-77255000D01*
X155630582Y-77341161D01*
X155139375Y-77669375D01*
X154940000Y-77967761D01*
X154740625Y-77669375D01*
X154249418Y-77341161D01*
X153816256Y-77255000D01*
X153523744Y-77255000D01*
X153090582Y-77341161D01*
X152599375Y-77669375D01*
X152400000Y-77967761D01*
X152200625Y-77669375D01*
X151709418Y-77341161D01*
X151276256Y-77255000D01*
X150983744Y-77255000D01*
X150550582Y-77341161D01*
X150059375Y-77669375D01*
X149860000Y-77967761D01*
X149660625Y-77669375D01*
X149169418Y-77341161D01*
X148736256Y-77255000D01*
X148443744Y-77255000D01*
X148010582Y-77341161D01*
X147519375Y-77669375D01*
X147320000Y-77967761D01*
X147120625Y-77669375D01*
X146629418Y-77341161D01*
X146196256Y-77255000D01*
X145903744Y-77255000D01*
X145470582Y-77341161D01*
X144979375Y-77669375D01*
X144967184Y-77687619D01*
X144958157Y-77642235D01*
X144817809Y-77432191D01*
X144607765Y-77291843D01*
X144360000Y-77242560D01*
X142660000Y-77242560D01*
X142412235Y-77291843D01*
X142202191Y-77432191D01*
X142061843Y-77642235D01*
X142012560Y-77890000D01*
X142012560Y-77980000D01*
X141044846Y-77980000D01*
X140969999Y-77965112D01*
X140895152Y-77980000D01*
X140895148Y-77980000D01*
X140673463Y-78024096D01*
X140673461Y-78024097D01*
X140673462Y-78024097D01*
X140485526Y-78149671D01*
X140485524Y-78149673D01*
X140422071Y-78192071D01*
X140379673Y-78255524D01*
X133673887Y-84961312D01*
X133491333Y-84925000D01*
X133208667Y-84925000D01*
X133026114Y-84961312D01*
X132670331Y-84605530D01*
X132627929Y-84542071D01*
X132376537Y-84374096D01*
X132154852Y-84330000D01*
X132154847Y-84330000D01*
X132080000Y-84315112D01*
X132005153Y-84330000D01*
X120329846Y-84330000D01*
X120254998Y-84315112D01*
X120180150Y-84330000D01*
X120180146Y-84330000D01*
X119958461Y-84374096D01*
X119707069Y-84542071D01*
X119664669Y-84605527D01*
X119024804Y-85245393D01*
X118669909Y-85008260D01*
X118251333Y-84925000D01*
X117968667Y-84925000D01*
X117550091Y-85008260D01*
X117075423Y-85325423D01*
X116840000Y-85677758D01*
X116604577Y-85325423D01*
X116129909Y-85008260D01*
X115711333Y-84925000D01*
X115428667Y-84925000D01*
X115246114Y-84961312D01*
X111931209Y-81646408D01*
X112004092Y-81280000D01*
X111888839Y-80700582D01*
X111560625Y-80209375D01*
X111538967Y-80194904D01*
X111699698Y-80128327D01*
X111878327Y-79949699D01*
X111975000Y-79716310D01*
X111975000Y-79089041D01*
X114178086Y-79089041D01*
X114417611Y-79595134D01*
X114832577Y-79971041D01*
X115220961Y-80131904D01*
X115443000Y-80009915D01*
X115443000Y-78867000D01*
X114299371Y-78867000D01*
X114178086Y-79089041D01*
X111975000Y-79089041D01*
X111975000Y-79025750D01*
X111816250Y-78867000D01*
X110617000Y-78867000D01*
X110617000Y-78887000D01*
X110363000Y-78887000D01*
X110363000Y-78867000D01*
X109163750Y-78867000D01*
X109005000Y-79025750D01*
X109005000Y-79716310D01*
X109101673Y-79949699D01*
X109280302Y-80128327D01*
X109441033Y-80194904D01*
X109419375Y-80209375D01*
X109091161Y-80700582D01*
X108975908Y-81280000D01*
X108685000Y-81280000D01*
X108685000Y-77763690D01*
X109005000Y-77763690D01*
X109005000Y-78454250D01*
X109163750Y-78613000D01*
X110363000Y-78613000D01*
X110363000Y-77413750D01*
X110617000Y-77413750D01*
X110617000Y-78613000D01*
X111816250Y-78613000D01*
X111975000Y-78454250D01*
X111975000Y-78390959D01*
X114178086Y-78390959D01*
X114299371Y-78613000D01*
X115443000Y-78613000D01*
X115443000Y-77470085D01*
X115697000Y-77470085D01*
X115697000Y-78613000D01*
X115717000Y-78613000D01*
X115717000Y-78867000D01*
X115697000Y-78867000D01*
X115697000Y-80009915D01*
X115919039Y-80131904D01*
X116307423Y-79971041D01*
X116722389Y-79595134D01*
X116819053Y-79390892D01*
X117075423Y-79774577D01*
X117550091Y-80091740D01*
X117968667Y-80175000D01*
X118251333Y-80175000D01*
X118669909Y-80091740D01*
X119144577Y-79774577D01*
X119380000Y-79422242D01*
X119615423Y-79774577D01*
X120090091Y-80091740D01*
X120508667Y-80175000D01*
X120791333Y-80175000D01*
X121209909Y-80091740D01*
X121684577Y-79774577D01*
X121920000Y-79422242D01*
X122155423Y-79774577D01*
X122630091Y-80091740D01*
X123048667Y-80175000D01*
X123331333Y-80175000D01*
X123749909Y-80091740D01*
X124224577Y-79774577D01*
X124460000Y-79422242D01*
X124695423Y-79774577D01*
X125170091Y-80091740D01*
X125588667Y-80175000D01*
X125871333Y-80175000D01*
X126289909Y-80091740D01*
X126764577Y-79774577D01*
X127000000Y-79422242D01*
X127235423Y-79774577D01*
X127710091Y-80091740D01*
X128128667Y-80175000D01*
X128411333Y-80175000D01*
X128829909Y-80091740D01*
X129304577Y-79774577D01*
X129540000Y-79422242D01*
X129775423Y-79774577D01*
X130250091Y-80091740D01*
X130668667Y-80175000D01*
X130951333Y-80175000D01*
X131369909Y-80091740D01*
X131844577Y-79774577D01*
X131925215Y-79653894D01*
X131951843Y-79787765D01*
X132092191Y-79997809D01*
X132302235Y-80138157D01*
X132550000Y-80187440D01*
X134150000Y-80187440D01*
X134397765Y-80138157D01*
X134607809Y-79997809D01*
X134748157Y-79787765D01*
X134797440Y-79540000D01*
X134797440Y-77940000D01*
X134748157Y-77692235D01*
X134607809Y-77482191D01*
X134397765Y-77341843D01*
X134150000Y-77292560D01*
X132550000Y-77292560D01*
X132302235Y-77341843D01*
X132092191Y-77482191D01*
X131951843Y-77692235D01*
X131925215Y-77826106D01*
X131844577Y-77705423D01*
X131369909Y-77388260D01*
X130951333Y-77305000D01*
X130668667Y-77305000D01*
X130250091Y-77388260D01*
X129775423Y-77705423D01*
X129540000Y-78057758D01*
X129304577Y-77705423D01*
X128829909Y-77388260D01*
X128411333Y-77305000D01*
X128128667Y-77305000D01*
X127710091Y-77388260D01*
X127235423Y-77705423D01*
X127000000Y-78057758D01*
X126764577Y-77705423D01*
X126289909Y-77388260D01*
X125871333Y-77305000D01*
X125588667Y-77305000D01*
X125170091Y-77388260D01*
X124695423Y-77705423D01*
X124460000Y-78057758D01*
X124224577Y-77705423D01*
X123749909Y-77388260D01*
X123331333Y-77305000D01*
X123048667Y-77305000D01*
X122630091Y-77388260D01*
X122155423Y-77705423D01*
X121920000Y-78057758D01*
X121684577Y-77705423D01*
X121209909Y-77388260D01*
X120791333Y-77305000D01*
X120508667Y-77305000D01*
X120090091Y-77388260D01*
X119615423Y-77705423D01*
X119380000Y-78057758D01*
X119144577Y-77705423D01*
X118669909Y-77388260D01*
X118251333Y-77305000D01*
X117968667Y-77305000D01*
X117550091Y-77388260D01*
X117075423Y-77705423D01*
X116819053Y-78089108D01*
X116722389Y-77884866D01*
X116307423Y-77508959D01*
X115919039Y-77348096D01*
X115697000Y-77470085D01*
X115443000Y-77470085D01*
X115220961Y-77348096D01*
X114832577Y-77508959D01*
X114417611Y-77884866D01*
X114178086Y-78390959D01*
X111975000Y-78390959D01*
X111975000Y-77763690D01*
X111878327Y-77530301D01*
X111699698Y-77351673D01*
X111466309Y-77255000D01*
X110775750Y-77255000D01*
X110617000Y-77413750D01*
X110363000Y-77413750D01*
X110204250Y-77255000D01*
X109513691Y-77255000D01*
X109280302Y-77351673D01*
X109101673Y-77530301D01*
X109005000Y-77763690D01*
X108685000Y-77763690D01*
X108685000Y-76910000D01*
X165660001Y-76910000D01*
X165660000Y-113565000D01*
G04 #@! TD*
M02*
