M48
;DRILL file {KiCad 5.0.1} date So 20 Jan 2019 00:12:03 CET
;FORMAT={-:-/ absolute / inch / decimal}
FMAT,2
INCH,TZ
T1C0.0157
T2C0.0315
T3C0.0394
T4C0.0433
%
G90
G05
M72
T1
X5.2Y-3.75
X5.5Y-3.25
X5.7Y-3.7
T2
X4.55Y-3.1
X4.55Y-3.4
X4.65Y-3.1
X4.65Y-3.4
X4.75Y-3.1
X4.75Y-3.4
X4.85Y-3.1
X4.85Y-3.4
X4.95Y-3.1
X4.95Y-3.4
X5.05Y-3.1
X5.05Y-3.4
X5.15Y-3.1
X5.15Y-3.4
X5.25Y-3.1
X5.25Y-3.4
X4.55Y-3.9
X4.55Y-4.2
X4.65Y-3.9
X4.65Y-4.2
X4.75Y-3.9
X4.75Y-4.2
X4.85Y-3.9
X4.85Y-4.2
X4.95Y-3.9
X4.95Y-4.2
X5.05Y-3.9
X5.05Y-4.2
X5.15Y-3.9
X5.15Y-4.2
X5.25Y-3.9
X5.25Y-4.2
T3
X4.35Y-3.1
X4.35Y-3.2
X4.35Y-3.3
X4.35Y-3.4
X4.35Y-3.5
X4.35Y-3.6
X4.35Y-3.7
X4.35Y-3.8
X4.35Y-3.9
X5.65Y-3.1
X5.75Y-3.1
X5.85Y-3.1
X5.95Y-3.1
X6.05Y-3.1
X6.15Y-3.1
X6.25Y-3.1
X6.35Y-3.1
X6.45Y-3.1
X5.65Y-4.4
X5.75Y-4.4
X5.85Y-4.4
X5.95Y-4.4
X6.05Y-4.4
X6.15Y-4.4
X6.25Y-4.4
X6.35Y-4.4
X6.45Y-4.4
T4
X4.35Y-4.1
X4.35Y-4.2
X4.35Y-4.3
T0
M30
